<?xml version="1.0" encoding="UTF-8" standalone="no"?>
<!-- Creator: CorelDRAW 2017 -->

<svg
   xmlns:dc="http://purl.org/dc/elements/1.1/"
   xmlns:cc="http://creativecommons.org/ns#"
   xmlns:rdf="http://www.w3.org/1999/02/22-rdf-syntax-ns#"
   xmlns:svg="http://www.w3.org/2000/svg"
   xmlns="http://www.w3.org/2000/svg"
   xmlns:xlink="http://www.w3.org/1999/xlink"
   xmlns:sodipodi="http://sodipodi.sourceforge.net/DTD/sodipodi-0.dtd"
   xmlns:inkscape="http://www.inkscape.org/namespaces/inkscape"
   xml:space="preserve"
   width="800px"
   height="294px"
   version="1.1"
   style="shape-rendering:geometricPrecision; text-rendering:geometricPrecision; image-rendering:optimizeQuality; fill-rule:evenodd; clip-rule:evenodd"
   viewBox="0 0 800 294"
   id="svg168"
   sodipodi:docname="siepe-logo-alt.svg"
   inkscape:version="0.92.3 (2405546, 2018-03-11)"><metadata
   id="metadata172"><rdf:RDF><cc:Work
       rdf:about=""><dc:format>image/svg+xml</dc:format><dc:type
         rdf:resource="http://purl.org/dc/dcmitype/StillImage" /><dc:title /></cc:Work></rdf:RDF></metadata><sodipodi:namedview
   pagecolor="#ffffff"
   bordercolor="#666666"
   borderopacity="1"
   objecttolerance="10"
   gridtolerance="10"
   guidetolerance="10"
   inkscape:pageopacity="0"
   inkscape:pageshadow="2"
   inkscape:window-width="1920"
   inkscape:window-height="1012"
   id="namedview170"
   showgrid="false"
   inkscape:pagecheckerboard="true"
   inkscape:zoom="0.93749999"
   inkscape:cx="551.58805"
   inkscape:cy="199.23421"
   inkscape:window-x="0"
   inkscape:window-y="0"
   inkscape:window-maximized="1"
   inkscape:current-layer="svg168" />
 <defs
   id="defs4">
  <style
   type="text/css"
   id="style2">
   <![CDATA[
    .str0 {stroke:white;stroke-width:0.9;stroke-miterlimit:22.9256}
    .fil0 {fill:none}
    .fil3 {fill:white}
    .fil1 {fill:white;fill-rule:nonzero}
    .fil2 {fill:white;fill-rule:nonzero}
   ]]>
  </style>
 
  
  
  
  
  
  
  
  
  
  
  
  
  
  
  
  
  
  
  
  
  
  
  
  
  
  
  
  
  
  
  
  
  
  
  
  
  
  
  
  
  
  
  
  
  
  
  
  
  
  
  
  
  
  
  
  
  
  
  
  
  
  
  
  
  
  
  
  
  
  
  
  
  
  
  
  
  
  
  
  
  
 <clipPath
   id="SVGID_12_"><use
     xlink:href="#SVGID_11_"
     style="overflow:visible"
     id="use809"
     x="0"
     y="0"
     width="100%"
     height="100%" /></clipPath><clipPath
   id="SVGID_2_"><use
     xlink:href="#SVGID_1_"
     style="overflow:visible"
     id="use753"
     x="0"
     y="0"
     width="100%"
     height="100%" /></clipPath><clipPath
   id="SVGID_4_"><use
     xlink:href="#SVGID_3_"
     style="overflow:visible"
     id="use763"
     x="0"
     y="0"
     width="100%"
     height="100%" /></clipPath><clipPath
   id="SVGID_6_"><use
     xlink:href="#SVGID_5_"
     style="overflow:visible"
     id="use779"
     x="0"
     y="0"
     width="100%"
     height="100%" /></clipPath><clipPath
   id="SVGID_8_"><use
     xlink:href="#SVGID_7_"
     style="overflow:visible"
     id="use785"
     x="0"
     y="0"
     width="100%"
     height="100%" /></clipPath><clipPath
   id="SVGID_16_"><use
     xlink:href="#SVGID_15_"
     style="overflow:visible"
     id="use831"
     x="0"
     y="0"
     width="100%"
     height="100%" /></clipPath><clipPath
   id="SVGID_18_"><use
     xlink:href="#SVGID_17_"
     style="overflow:visible"
     id="use841"
     x="0"
     y="0"
     width="100%"
     height="100%" /></clipPath><rect
   id="SVGID_9_"
   x="38.689999"
   y="-97.32"
   width="564.58002"
   height="564.58002" /><rect
   id="SVGID_11_"
   x="38.689999"
   y="-97.32"
   width="564.58002"
   height="564.58002" /><rect
   id="SVGID_13_"
   x="38.689999"
   y="-97.32"
   width="564.58002"
   height="564.58002" /><polygon
   id="SVGID_1_"
   points="62.76,96.42 62.76,152.6 195.59,144.38 195.59,96.42 " /><rect
   id="SVGID_3_"
   x="38.689999"
   y="-97.32"
   width="564.58002"
   height="564.58002" /><polygon
   id="SVGID_5_"
   points="62.76,158.42 62.76,205.3 195.59,213.65 195.59,150.44 " /><rect
   id="SVGID_7_"
   x="41.509998"
   y="129.57001"
   width="128.97"
   height="111.93" /><polygon
   id="SVGID_15_"
   points="62.76,273.46 195.59,273.46 195.59,220.58 62.76,210.96 " /><rect
   id="SVGID_17_"
   x="38.689999"
   y="-97.32"
   width="564.58002"
   height="564.58002" /></defs>
 <rect
   style="fill:none"
   id="rect7"
   height="293.75"
   width="800"
   y="0.31999999"
   x="-0.46000001"
   class="fil0" /><path
   style="fill:#ffffff;fill-rule:nonzero"
   inkscape:connector-curvature="0"
   id="path11"
   d="m 449.4029,87.27 c -3.72,-5.89 -13.93,-11.49 -25.7,-11.49 -15.17,0 -22.45,6.04 -22.45,13.7 0,8.99 11.15,11.49 24.15,12.96 22.61,2.65 43.66,8.25 43.66,32.85 0,22.98 -21.36,32.85 -45.52,32.85 -22.13,0 -39.16,-6.48 -47.21,-25.34 l 17.03,-8.39 c 4.8,11.34 17.33,16.35 30.49,16.35 12.85,0 24.93,-4.27 24.93,-15.47 0,-9.72 -10.68,-13.7 -25.08,-15.17 -22.14,-2.51 -42.57,-8.1 -42.57,-31.23 0,-21.21 21.98,-29.9 41.95,-30.05 16.87,0 34.37,4.57 42.58,20.48 z"
   class="fil1" /><polygon
   style="fill:#ffffff;fill-rule:nonzero"
   id="polygon13"
   points="453.98,60.31 453.98,165.49 474.26,165.49 474.26,60.31 "
   class="fil1"
   transform="translate(27.152901)" /><polygon
   style="fill:#ffffff;fill-rule:nonzero"
   id="polygon15"
   points="570.4,60.31 570.4,79.55 509.56,79.55 509.56,103.74 568.23,103.74 568.23,122.22 509.56,122.22 509.56,145.96 570.4,145.96 570.4,165.49 489.28,165.49 489.28,60.31 "
   class="fil1"
   transform="translate(27.152901)" /><path
   style="fill:#ffffff;fill-rule:nonzero"
   inkscape:connector-curvature="0"
   id="path17"
   d="m 629.9029,116.36 h 30.66 c 26.16,0 26.01,-37.27 0,-37.27 h -30.66 z m 30.66,18.18 h -30.66 v 30.95 h -20.43 V 60.31 c 17.03,0 34.06,-0.15 51.09,-0.15 52.94,0 53.1,74.38 0,74.38 z"
   class="fil1" /><polygon
   style="fill:#ffffff;fill-rule:nonzero"
   id="polygon19"
   points="763.91,60.31 763.91,79.55 703.07,79.55 703.07,103.74 761.74,103.74 761.74,122.22 703.07,122.22 703.07,145.96 763.91,145.96 763.91,165.49 682.79,165.49 682.79,60.31 "
   class="fil1"
   transform="translate(27.152901)" /><path
   style="fill:#ffffff;fill-rule:nonzero"
   inkscape:connector-curvature="0"
   id="path21"
   d="m 351.0329,66.9 c -4.4,0 -7.1,4.19 -7.1,9.18 0,4.99 2.9,9.3 7.3,9.3 4.41,0 7.11,-4.2 7.11,-9.19 0,-4.99 -2.9,-9.29 -7.31,-9.29 z m -14.31,32.88 h 28.83 v 7.48 h -28.83 z m 14.31,-6.24 c -8.8,0 -15.31,-7.6 -15.31,-17.35 0,-9.75 6.71,-17.46 15.51,-17.46 8.81,0 15.32,7.6 15.32,17.35 0,9.75 -6.71,17.46 -15.52,17.46 z"
   class="fil1" /><path
   style="fill:#ffffff;fill-rule:nonzero"
   inkscape:connector-curvature="0"
   id="path23"
   d="m 291.07,190.64 c -0.9,-1.43 -3.37,-2.79 -6.22,-2.79 -3.67,0 -5.43,1.47 -5.43,3.32 0,2.18 2.69,2.78 5.84,3.14 5.47,0.64 10.57,2 10.57,7.95 0,5.56 -5.17,7.96 -11.02,7.96 -5.36,0 -9.48,-1.57 -11.43,-6.14 l 4.12,-2.03 c 1.16,2.74 4.2,3.96 7.39,3.96 3.11,0 6.03,-1.04 6.03,-3.75 0,-2.35 -2.59,-3.32 -6.07,-3.67 -5.36,-0.61 -10.31,-1.96 -10.31,-7.56 0,-5.14 5.33,-7.24 10.16,-7.28 4.08,0 8.32,1.11 10.31,4.96 z"
   class="fil1" /><path
   style="fill:#ffffff;fill-rule:nonzero"
   inkscape:connector-curvature="0"
   id="path25"
   d="m 313.52,198.73 c -0.3,-2.28 -2.17,-3.42 -4.8,-3.42 -2.47,0 -4.5,1.14 -5.17,3.42 z m -10.05,3.6 c 0.31,2.18 2.29,3.75 5.51,3.75 1.69,0 3.9,-0.61 4.95,-1.64 l 2.92,2.74 c -1.94,1.93 -5.13,2.86 -7.94,2.86 -6.37,0 -10.16,-3.75 -10.16,-9.38 0,-5.35 3.83,-9.2 9.82,-9.2 6.18,0 10.05,3.63 9.33,10.87 z"
   class="fil1" /><path
   style="fill:#ffffff;fill-rule:nonzero"
   inkscape:connector-curvature="0"
   id="path27"
   d="m 332.41,209.57 v -9.41 c 0,-2.32 -1.28,-4.42 -3.79,-4.42 -2.47,0 -3.93,2.1 -3.93,4.42 v 9.41 h -4.58 v -17.62 h 4.24 l 0.34,2.14 c 0.97,-1.78 3.11,-2.42 4.87,-2.42 2.21,0 4.42,0.86 5.47,3.28 1.65,-2.49 3.79,-3.21 6.19,-3.21 5.24,0 7.83,3.07 7.83,8.35 v 9.48 h -4.57 v -9.48 c 0,-2.32 -1.01,-4.28 -3.49,-4.28 -2.47,0 -4.01,2.03 -4.01,4.35 v 9.41 z"
   class="fil1" /><path
   style="fill:#ffffff;fill-rule:nonzero"
   inkscape:connector-curvature="0"
   id="path29"
   d="m 352.76,209.57 h 4.57 v -17.65 h -4.57 z m 4.98,-22.54 c 0,3.39 -5.4,3.39 -5.4,0 0,-3.38 5.4,-3.38 5.4,0 z"
   class="fil1" /><path
   style="fill:#ffffff;fill-rule:nonzero"
   inkscape:connector-curvature="0"
   id="path31"
   d="m 374.12,209.57 v -9.2 c 0,-2.67 -1.54,-4.71 -4.46,-4.71 -2.81,0 -4.72,2.25 -4.72,4.93 v 8.98 h -4.54 v -17.62 h 4.09 l 0.3,2.39 c 1.87,-1.74 3.74,-2.63 6.07,-2.63 4.35,0 7.83,3.1 7.83,8.62 v 9.24 z"
   class="fil1" /><path
   style="fill:#ffffff;fill-rule:nonzero"
   inkscape:connector-curvature="0"
   id="path33"
   d="m 395.93,184.25 h -5.4 l -2.77,4.85 v 0.22 h 4.05 l 4.12,-4.89 z m -5.21,11.2 c -3.04,0 -5.47,1.96 -5.47,5.31 0,3.36 2.43,5.35 5.47,5.35 7.2,0 7.2,-10.66 0,-10.66 z m 5.47,-1.03 0.15,-2.43 h 4.39 v 17.58 h -4.31 l -0.23,-2.56 c -1.05,2.06 -3.93,3.06 -6,3.1 -5.47,0.03 -9.51,-3.18 -9.51,-9.35 0,-6.06 4.23,-9.23 9.63,-9.2 2.47,0 4.83,1.11 5.88,2.86 z"
   class="fil1" /><path
   style="fill:#ffffff;fill-rule:nonzero"
   inkscape:connector-curvature="0"
   id="path35"
   d="m 407.88,191.99 0.34,2.03 c 1.43,-2.17 3.34,-2.49 5.21,-2.49 1.91,0 3.75,0.71 4.76,1.67 l -2.06,3.78 c -0.94,-0.75 -1.8,-1.14 -3.3,-1.14 -2.4,0 -4.61,1.22 -4.61,4.46 v 9.27 h -4.57 v -17.58 z"
   class="fil1" /><path
   style="fill:#ffffff;fill-rule:nonzero"
   inkscape:connector-curvature="0"
   id="path37"
   d="m 418.98,209.57 h 4.57 v -17.65 h -4.57 z m 4.98,-22.54 c 0,3.39 -5.4,3.39 -5.4,0 0,-3.38 5.4,-3.38 5.4,0 z"
   class="fil1" /><path
   style="fill:#ffffff;fill-rule:nonzero"
   inkscape:connector-curvature="0"
   id="path39"
   d="m 430.86,200.8 c 0,2.67 1.68,5.17 5.02,5.17 3.33,0 5.02,-2.5 5.02,-5.17 0,-2.64 -1.95,-5.21 -5.02,-5.21 -3.3,0 -5.02,2.57 -5.02,5.21 z m 14.65,0 c 0,5.06 -3.63,9.16 -9.63,9.16 -6,0 -9.6,-4.1 -9.6,-9.16 0,-5.03 3.68,-9.17 9.56,-9.17 5.89,0 9.67,4.14 9.67,9.17 z"
   class="fil1" /><polygon
   style="fill:#ffffff;fill-rule:nonzero"
   id="polygon41"
   points="459.64,184.61 454.73,184.61 454.73,209.57 459.64,209.57 "
   class="fil1" /><path
   style="fill:#ffffff;fill-rule:nonzero"
   inkscape:connector-curvature="0"
   id="path43"
   d="m 476.61,209.57 v -9.2 c 0,-2.67 -1.53,-4.71 -4.46,-4.71 -2.81,0 -4.72,2.25 -4.72,4.93 v 8.98 h -4.53 v -17.62 h 4.08 l 0.3,2.39 c 1.88,-1.74 3.75,-2.63 6.07,-2.63 4.35,0 7.84,3.1 7.84,8.62 v 9.24 z"
   class="fil1" /><path
   style="fill:#ffffff;fill-rule:nonzero"
   inkscape:connector-curvature="0"
   id="path45"
   d="m 489.84,187.03 v 5 h 5.1 v 3.74 h -5.13 v 7.6 c 0,1.67 0.97,2.49 2.4,2.49 0.71,0 1.53,-0.21 2.21,-0.53 l 1.27,3.71 c -1.31,0.5 -2.4,0.71 -3.78,0.75 -4.01,0.14 -6.64,-2.04 -6.64,-6.42 v -7.6 h -3.45 v -3.74 h 3.45 v -4.53 z"
   class="fil1" /><path
   style="fill:#ffffff;fill-rule:nonzero"
   inkscape:connector-curvature="0"
   id="path47"
   d="m 511.36,198.73 c -0.3,-2.28 -2.18,-3.42 -4.8,-3.42 -2.48,0 -4.5,1.14 -5.17,3.42 z m -10.05,3.6 c 0.3,2.18 2.29,3.75 5.51,3.75 1.69,0 3.9,-0.61 4.95,-1.64 l 2.92,2.74 c -1.95,1.93 -5.13,2.86 -7.94,2.86 -6.37,0 -10.16,-3.75 -10.16,-9.38 0,-5.35 3.82,-9.2 9.82,-9.2 6.18,0 10.04,3.63 9.33,10.87 z"
   class="fil1" /><path
   style="fill:#ffffff;fill-rule:nonzero"
   inkscape:connector-curvature="0"
   id="path49"
   d="m 521.92,200.34 c 0,3.06 2.18,4.88 4.84,4.88 2.62,0 4.8,-1.85 4.8,-4.88 0,-3.04 -2.18,-4.96 -4.8,-4.96 -2.66,0 -4.84,1.89 -4.84,4.96 z m 10.91,-10.13 3.37,2.42 -2.06,2.5 c 1.43,1.53 1.95,3.28 1.95,5.21 0,2.17 -0.86,5.24 -3.9,6.56 3.08,1.46 3.83,3.56 3.83,5.81 0,4.85 -3.9,7.85 -9.26,7.85 -5.36,0 -9.37,-3.11 -9.37,-7.85 h 4.53 c 0,2.28 2.22,3.78 4.84,3.78 2.62,0 4.68,-1.35 4.68,-3.78 0,-2.42 -2.4,-3.53 -4.68,-3.53 -5.77,0 -9.37,-3.35 -9.37,-8.84 0,-5.5 4.2,-8.92 9.37,-8.92 1.46,0 2.96,0.18 4.23,1 z"
   class="fil1" /><path
   style="fill:#ffffff;fill-rule:nonzero"
   inkscape:connector-curvature="0"
   id="path51"
   d="m 542.31,191.99 0.34,2.03 c 1.42,-2.17 3.33,-2.49 5.21,-2.49 1.91,0 3.75,0.71 4.76,1.67 l -2.06,3.78 c -0.94,-0.75 -1.8,-1.14 -3.3,-1.14 -2.4,0 -4.61,1.22 -4.61,4.46 v 9.27 h -4.57 v -17.58 z"
   class="fil1" /><path
   style="fill:#ffffff;fill-rule:nonzero"
   inkscape:connector-curvature="0"
   id="path53"
   d="m 556.96,200.76 c 0,3.36 2.44,5.35 5.47,5.35 7.2,0 7.2,-10.66 0,-10.66 -3.03,0 -5.47,1.96 -5.47,5.31 z m 11.1,-8.77 h 4.38 v 17.58 h -4.31 l -0.22,-2.56 c -1.05,2.06 -3.94,3.06 -6,3.1 -5.47,0.03 -9.52,-3.18 -9.52,-9.35 0,-6.06 4.24,-9.23 9.63,-9.2 2.48,0 4.84,1.11 5.89,2.86 z"
   class="fil1" /><path
   style="fill:#ffffff;fill-rule:nonzero"
   inkscape:connector-curvature="0"
   id="path55"
   d="m 579.07,200.76 c 0,3.07 2.33,5.18 5.25,5.18 2.89,0 5.36,-2 5.36,-5.18 0,-3.06 -2.47,-5.13 -5.36,-5.13 -2.92,0 -5.25,1.96 -5.25,5.13 z m 15.48,-16.12 v 24.93 h -4.27 l -0.3,-2.42 c -1.42,2.1 -3.71,2.81 -5.96,2.81 -5.43,0 -9.52,-3.42 -9.52,-9.2 0,-6.06 4.01,-9.2 9.41,-9.2 1.95,0 4.98,1 6.07,2.82 v -9.74 z"
   class="fil1" /><path
   style="fill:#ffffff;fill-rule:nonzero"
   inkscape:connector-curvature="0"
   id="path57"
   d="m 601.3,200.8 c 0,2.67 1.68,5.17 5.02,5.17 3.34,0 5.02,-2.5 5.02,-5.17 0,-2.64 -1.95,-5.21 -5.02,-5.21 -3.3,0 -5.02,2.57 -5.02,5.21 z m 14.65,0 c 0,5.06 -3.63,9.16 -9.63,9.16 -6,0 -9.6,-4.1 -9.6,-9.16 0,-5.03 3.68,-9.17 9.56,-9.17 5.89,0 9.67,4.14 9.67,9.17 z"
   class="fil1" /><path
   style="fill:#ffffff;fill-rule:nonzero"
   inkscape:connector-curvature="0"
   id="path59"
   d="m 628.5,200.76 c 0,3.07 2.33,5.18 5.25,5.18 2.89,0 5.36,-2 5.36,-5.18 0,-3.06 -2.47,-5.13 -5.36,-5.13 -2.92,0 -5.25,1.96 -5.25,5.13 z m 15.49,-16.12 v 24.93 h -4.28 l -0.3,-2.42 c -1.42,2.1 -3.71,2.81 -5.96,2.81 -5.43,0 -9.52,-3.42 -9.52,-9.2 0,-6.06 4.01,-9.2 9.41,-9.2 1.95,0 4.98,1 6.07,2.82 v -9.74 z"
   class="fil1" /><path
   style="fill:#ffffff;fill-rule:nonzero"
   inkscape:connector-curvature="0"
   id="path61"
   d="m 661.37,198.73 c -0.3,-2.28 -2.17,-3.42 -4.8,-3.42 -2.47,0 -4.49,1.14 -5.17,3.42 z m -10.04,3.6 c 0.3,2.18 2.28,3.75 5.51,3.75 1.68,0 3.89,-0.61 4.95,-1.64 l 2.92,2.74 c -1.95,1.93 -5.14,2.86 -7.95,2.86 -6.37,0 -10.15,-3.75 -10.15,-9.38 0,-5.35 3.82,-9.2 9.82,-9.2 6.18,0 10.04,3.63 9.33,10.87 z"
   class="fil1" /><polygon
   style="fill:#ffffff;fill-rule:nonzero"
   id="polygon63"
   points="274.8,220.86 294.44,220.86 294.44,225.42 279.72,225.42 279.72,231.16 293.92,231.16 293.92,235.55 279.72,235.55 279.72,241.19 294.44,241.19 294.44,245.82 274.8,245.82 "
   class="fil1" /><path
   style="fill:#ffffff;fill-rule:nonzero"
   inkscape:connector-curvature="0"
   id="path65"
   d="m 310.6,245.82 v -9.2 c 0,-2.67 -1.54,-4.71 -4.46,-4.71 -2.81,0 -4.73,2.25 -4.73,4.92 v 8.99 h -4.53 V 228.2 h 4.08 l 0.3,2.39 c 1.88,-1.74 3.75,-2.64 6.08,-2.64 4.34,0 7.83,3.11 7.83,8.63 v 9.24 z"
   class="fil1" /><path
   style="fill:#ffffff;fill-rule:nonzero"
   inkscape:connector-curvature="0"
   id="path67"
   d="m 330.23,232.91 c -1.31,-1.18 -2.81,-1.57 -4.57,-1.57 -2.17,0 -3.37,0.64 -3.37,1.75 0,1.14 1.08,1.78 3.45,1.93 3.48,0.21 7.9,0.96 7.9,5.63 0,3.1 -2.66,5.78 -7.94,5.78 -2.92,0 -5.85,-0.47 -8.55,-3.14 l 2.25,-3.1 c 1.31,1.39 4.31,2.42 6.37,2.46 1.73,0.03 3.34,-0.82 3.34,-2.11 0,-1.21 -1.05,-1.71 -3.67,-1.85 -3.49,-0.25 -7.65,-1.46 -7.65,-5.46 0,-4.06 4.42,-5.49 7.8,-5.49 2.88,0 5.06,0.54 7.19,2.32 z"
   class="fil1" /><path
   style="fill:#ffffff;fill-rule:nonzero"
   inkscape:connector-curvature="0"
   id="path69"
   d="m 335.63,245.82 h 4.57 v -17.65 h -4.57 z m 4.98,-22.54 c 0,3.39 -5.39,3.39 -5.39,0 0,-3.39 5.39,-3.39 5.39,0 z"
   class="fil1" /><path
   style="fill:#ffffff;fill-rule:nonzero"
   inkscape:connector-curvature="0"
   id="path71"
   d="m 356.99,245.82 v -9.2 c 0,-2.67 -1.54,-4.71 -4.46,-4.71 -2.81,0 -4.72,2.25 -4.72,4.92 v 8.99 h -4.54 V 228.2 h 4.09 l 0.3,2.39 c 1.87,-1.74 3.75,-2.64 6.07,-2.64 4.35,0 7.83,3.11 7.83,8.63 v 9.24 z"
   class="fil1" /><path
   style="fill:#ffffff;fill-rule:nonzero"
   inkscape:connector-curvature="0"
   id="path73"
   d="m 368.27,237.05 c 0,2.67 1.69,5.17 5.02,5.17 3.34,0 5.03,-2.5 5.03,-5.17 0,-2.64 -1.95,-5.21 -5.03,-5.21 -3.29,0 -5.02,2.57 -5.02,5.21 z m 14.66,0 c 0,5.06 -3.64,9.16 -9.64,9.16 -5.99,0 -9.59,-4.1 -9.59,-9.16 0,-5.03 3.67,-9.17 9.56,-9.17 5.88,0 9.67,4.14 9.67,9.17 z"
   class="fil1" /><path
   style="fill:#ffffff;fill-rule:nonzero"
   inkscape:connector-curvature="0"
   id="path75"
   d="m 388.88,249.32 h -2.58 l 0.71,-3.54 c -1.05,-0.17 -1.76,-0.81 -1.76,-1.92 0,-3.28 5.32,-3.14 5.32,0.11 0,0.42 0.04,0.32 -1.69,5.35 z"
   class="fil1" /><path
   style="fill:#ffffff;fill-rule:nonzero"
   inkscape:connector-curvature="0"
   id="path77"
   d="m 405.45,234.16 h 7.42 c 6.33,0 6.3,-8.85 0,-8.85 h -7.42 z m 7.42,4.31 h -7.42 v 7.35 h -4.95 v -24.96 c 4.12,0 8.25,-0.04 12.37,-0.04 12.82,0 12.85,17.65 0,17.65 z"
   class="fil1" /><path
   style="fill:#ffffff;fill-rule:nonzero"
   inkscape:connector-curvature="0"
   id="path79"
   d="m 437.72,234.98 c -0.3,-2.28 -2.18,-3.42 -4.8,-3.42 -2.48,0 -4.5,1.14 -5.17,3.42 z m -10.05,3.6 c 0.3,2.18 2.29,3.75 5.51,3.75 1.69,0 3.9,-0.61 4.95,-1.64 l 2.92,2.74 c -1.95,1.93 -5.13,2.86 -7.94,2.86 -6.38,0 -10.16,-3.75 -10.16,-9.39 0,-5.34 3.82,-9.19 9.82,-9.19 6.18,0 10.04,3.63 9.33,10.87 z"
   class="fil1" /><path
   style="fill:#ffffff;fill-rule:nonzero"
   inkscape:connector-curvature="0"
   id="path81"
   d="m 456.75,232.91 c -1.31,-1.18 -2.81,-1.57 -4.57,-1.57 -2.17,0 -3.37,0.64 -3.37,1.75 0,1.14 1.08,1.78 3.45,1.93 3.48,0.21 7.9,0.96 7.9,5.63 0,3.1 -2.66,5.78 -7.94,5.78 -2.92,0 -5.85,-0.47 -8.55,-3.14 l 2.25,-3.1 c 1.31,1.39 4.31,2.42 6.37,2.46 1.73,0.03 3.34,-0.82 3.34,-2.11 0,-1.21 -1.05,-1.71 -3.67,-1.85 -3.49,-0.25 -7.65,-1.46 -7.65,-5.46 0,-4.06 4.42,-5.49 7.8,-5.49 2.88,0 5.06,0.54 7.19,2.32 z"
   class="fil1" /><path
   style="fill:#ffffff;fill-rule:nonzero"
   inkscape:connector-curvature="0"
   id="path83"
   d="m 476.32,237.05 c 0,-2.75 -1.95,-4.99 -5.25,-4.99 -3.3,0 -5.25,2.24 -5.25,4.99 0,2.74 2.14,4.99 5.25,4.99 3.11,0 5.25,-2.25 5.25,-4.99 z m 0.41,16.12 v -9.42 c -1.31,1.93 -4.2,2.5 -6.15,2.5 -5.92,0 -9.33,-4.07 -9.33,-9.2 0,-5.17 3.79,-9.2 9.48,-9.2 2.1,0 4.57,0.85 6,2.82 l 0.3,-2.43 h 4.27 v 24.93 z"
   class="fil1" /><path
   style="fill:#ffffff;fill-rule:nonzero"
   inkscape:connector-curvature="0"
   id="path85"
   d="m 488.68,228.24 v 9.2 c 0,2.68 1.54,4.71 4.46,4.71 2.82,0 4.73,-2.25 4.73,-4.92 v -8.99 h 4.53 v 17.62 h -4.08 l -0.3,-2.39 c -1.92,1.78 -3.68,2.64 -6.26,2.64 -4.43,0 -7.65,-3.18 -7.65,-8.63 v -9.24 z"
   class="fil1" /><path
   style="fill:#ffffff;fill-rule:nonzero"
   inkscape:connector-curvature="0"
   id="path87"
   d="m 505.51,245.82 h 4.57 v -17.65 h -4.57 z m 4.98,-22.54 c 0,3.39 -5.39,3.39 -5.39,0 0,-3.39 5.39,-3.39 5.39,0 z"
   class="fil1" /><path
   style="fill:#ffffff;fill-rule:nonzero"
   inkscape:connector-curvature="0"
   id="path89"
   d="m 525.34,232.91 c -1.32,-1.18 -2.81,-1.57 -4.58,-1.57 -2.17,0 -3.37,0.64 -3.37,1.75 0,1.14 1.09,1.78 3.45,1.93 3.48,0.21 7.91,0.96 7.91,5.63 0,3.1 -2.66,5.78 -7.95,5.78 -2.92,0 -5.85,-0.47 -8.54,-3.14 l 2.24,-3.1 c 1.32,1.39 4.31,2.42 6.38,2.46 1.72,0.03 3.33,-0.82 3.33,-2.11 0,-1.21 -1.05,-1.71 -3.67,-1.85 -3.49,-0.25 -7.65,-1.46 -7.65,-5.46 0,-4.06 4.42,-5.49 7.8,-5.49 2.88,0 5.06,0.54 7.2,2.32 z"
   class="fil1" /><path
   style="fill:#ffffff;fill-rule:nonzero"
   inkscape:connector-curvature="0"
   id="path91"
   d="m 534.29,237.01 c 0,3.35 2.44,5.35 5.47,5.35 7.2,0 7.2,-10.66 0,-10.66 -3.03,0 -5.47,1.96 -5.47,5.31 z m 11.1,-8.77 h 4.38 v 17.58 h -4.31 l -0.22,-2.57 c -1.05,2.07 -3.94,3.07 -6,3.11 -5.47,0.03 -9.52,-3.18 -9.52,-9.35 0,-6.06 4.23,-9.23 9.63,-9.2 2.48,0 4.84,1.11 5.89,2.86 z"
   class="fil1" /><path
   style="fill:#ffffff;fill-rule:nonzero"
   inkscape:connector-curvature="0"
   id="path93"
   d="m 573.27,234.98 c -0.3,-2.28 -2.18,-3.42 -4.8,-3.42 -2.47,0 -4.5,1.14 -5.17,3.42 z m -10.05,3.6 c 0.3,2.18 2.29,3.75 5.51,3.75 1.69,0 3.9,-0.61 4.95,-1.64 l 2.92,2.74 c -1.95,1.93 -5.13,2.86 -7.94,2.86 -6.37,0 -10.16,-3.75 -10.16,-9.39 0,-5.34 3.82,-9.19 9.82,-9.19 6.18,0 10.05,3.63 9.33,10.87 z"
   class="fil1" /><polygon
   style="fill:#ffffff;fill-rule:nonzero"
   id="polygon95"
   points="587.13,220.86 606.77,220.86 606.77,225.42 592.04,225.42 592.04,231.16 606.25,231.16 606.25,235.55 592.04,235.55 592.04,241.19 606.77,241.19 606.77,245.82 587.13,245.82 "
   class="fil1" /><polygon
   style="fill:#ffffff;fill-rule:nonzero"
   id="polygon97"
   points="627.35,228.38 621.28,236.91 627.72,245.71 627.72,245.82 622.25,245.82 618.24,239.94 614.23,245.82 608.76,245.82 608.76,245.71 615.2,236.91 609.13,228.38 609.13,228.24 614.6,228.24 618.24,234.2 621.88,228.24 627.35,228.24 "
   class="fil1" /><path
   style="fill:#ffffff;fill-rule:nonzero"
   inkscape:connector-curvature="0"
   id="path99"
   d="m 635.55,223.28 v 5 h 5.1 v 3.74 h -5.13 v 7.6 c 0,1.67 0.97,2.49 2.39,2.49 0.72,0 1.54,-0.21 2.22,-0.53 l 1.27,3.71 c -1.31,0.49 -2.4,0.71 -3.79,0.74 -4.01,0.15 -6.63,-2.03 -6.63,-6.41 v -7.6 h -3.45 v -3.74 h 3.45 v -4.53 z"
   class="fil1" /><path
   style="fill:#ffffff;fill-rule:nonzero"
   inkscape:connector-curvature="0"
   id="path101"
   d="m 657.06,234.98 c -0.3,-2.28 -2.17,-3.42 -4.79,-3.42 -2.48,0 -4.5,1.14 -5.17,3.42 z m -10.04,3.6 c 0.3,2.18 2.29,3.75 5.51,3.75 1.69,0 3.9,-0.61 4.95,-1.64 l 2.92,2.74 c -1.95,1.93 -5.13,2.86 -7.94,2.86 -6.38,0 -10.16,-3.75 -10.16,-9.39 0,-5.34 3.82,-9.19 9.82,-9.19 6.18,0 10.04,3.63 9.33,10.87 z"
   class="fil1" /><path
   style="fill:#ffffff;fill-rule:nonzero"
   inkscape:connector-curvature="0"
   id="path103"
   d="m 677.64,245.82 v -9.2 c 0,-2.67 -1.54,-4.71 -4.46,-4.71 -2.81,0 -4.72,2.25 -4.72,4.92 v 8.99 h -4.54 V 228.2 h 4.09 l 0.3,2.39 c 1.87,-1.74 3.74,-2.64 6.07,-2.64 4.35,0 7.83,3.11 7.83,8.63 v 9.24 z"
   class="fil1" /><path
   style="fill:#ffffff;fill-rule:nonzero"
   inkscape:connector-curvature="0"
   id="path105"
   d="m 697.28,232.91 c -1.31,-1.18 -2.82,-1.57 -4.58,-1.57 -2.17,0 -3.37,0.64 -3.37,1.75 0,1.14 1.09,1.78 3.45,1.93 3.48,0.21 7.91,0.96 7.91,5.63 0,3.1 -2.66,5.78 -7.95,5.78 -2.92,0 -5.84,-0.47 -8.54,-3.14 l 2.25,-3.1 c 1.31,1.39 4.31,2.42 6.37,2.46 1.72,0.03 3.33,-0.82 3.33,-2.11 0,-1.21 -1.05,-1.71 -3.67,-1.85 -3.49,-0.25 -7.65,-1.46 -7.65,-5.46 0,-4.06 4.43,-5.49 7.8,-5.49 2.89,0 5.06,0.54 7.2,2.32 z"
   class="fil1" /><path
   style="fill:#ffffff;fill-rule:nonzero"
   inkscape:connector-curvature="0"
   id="path107"
   d="m 706.23,237.01 c 0,3.35 2.44,5.35 5.47,5.35 7.2,0 7.2,-10.66 0,-10.66 -3.03,0 -5.47,1.96 -5.47,5.31 z M 706.2,223.5 c 0.89,-2.11 2.36,-3.61 4.83,-3.07 1.76,0.39 3.49,2.25 4.65,0.04 l 3,1.35 c -1.09,2.75 -2.96,3.57 -4.73,3.14 -1.83,-0.5 -3.44,-2.6 -4.91,0 z m 11.13,4.74 h 4.38 v 17.58 h -4.31 l -0.22,-2.57 c -1.05,2.07 -3.94,3.07 -6,3.11 -5.47,0.03 -9.52,-3.18 -9.52,-9.35 0,-6.06 4.24,-9.23 9.63,-9.2 2.48,0 4.84,1.11 5.89,2.86 z"
   class="fil1" /><path
   style="fill:#ffffff;fill-rule:nonzero"
   inkscape:connector-curvature="0"
   id="path109"
   d="m 728.34,237.05 c 0,2.67 1.69,5.17 5.03,5.17 3.33,0 5.02,-2.5 5.02,-5.17 0,-2.64 -1.95,-5.21 -5.02,-5.21 -3.3,0 -5.03,2.57 -5.03,5.21 z m 14.66,0 c 0,5.06 -3.64,9.16 -9.63,9.16 -6,0 -9.6,-4.1 -9.6,-9.16 0,-5.03 3.67,-9.17 9.56,-9.17 5.88,0 9.67,4.14 9.67,9.17 z"
   class="fil1" /><polygon
   style="fill:#ffffff;fill-rule:nonzero;stroke:#ffffff;stroke-width:0.89999998;stroke-miterlimit:22.92560005"
   id="polygon111"
   points="40.94,165.84 40.94,165.84 40.94,172.28 43.95,172.46 40.94,172.28 "
   class="fil2 str0" /><path
   style="fill:#ffffff;stroke:#ffffff;stroke-width:0.89999998;stroke-miterlimit:22.92560005"
   inkscape:connector-curvature="0"
   id="path113"
   d="m 40.94,86.1 31.97,2.4 c 1.3,-5.17 3.17,-9.93 5.51,-13.11 2.81,-3.8 5.72,-7.39 12.21,-12.47 L 43.76,43.59 c 1.68,-1.82 3.32,-4.05 4.87,-6.47 L 98.2,57.54 c 3.02,-1.97 6.46,-4.05 10.22,-6.13 7.25,-4.01 15.35,-8.36 23.43,-10.9 2.93,-0.92 5.86,-1.7 8.74,-2.37 l -30.55,-12.6 h -69.1 z"
   class="fil3 str0" /><path
   style="fill:#ffffff;stroke:#ffffff;stroke-width:0.89999998;stroke-miterlimit:22.92560005"
   inkscape:connector-curvature="0"
   id="path115"
   d="m 110.04,25.54 30.55,12.6 c 15.2,-3.55 29.34,-3.96 37.84,-4.12 4.74,-0.09 9.84,-0.56 15.05,-0.37 3.6,0.13 7.25,0.84 10.86,1.09 4.64,0.32 11.03,0.99 15.63,1.55 3.18,0.38 6.21,0.72 9.03,1.19 V 25.54 Z"
   class="fil3 str0" /><path
   style="fill:#ffffff;stroke:#ffffff;stroke-width:0.89999998;stroke-miterlimit:22.92560005"
   inkscape:connector-curvature="0"
   id="path117"
   d="m 152.8,51.95 c -2.96,2.82 -6.74,7.87 -10.27,15.35 -6.16,13.14 -5.88,21.79 -4.01,22.55 0,0 0.22,0.11 1.08,-0.19 l 0.58,-0.13 31.42,-2.01 6.51,-13.85 -19.91,-23.51 c -0.02,-0.04 -0.04,-0.08 -0.06,-0.12 -0.99,0.29 -2,0.62 -3.05,1.02 -0.73,0.28 -1.5,0.58 -2.29,0.89 z"
   class="fil3 str0" /><path
   style="fill:#ffffff;stroke:#ffffff;stroke-width:0.89999998;stroke-miterlimit:22.92560005"
   inkscape:connector-curvature="0"
   id="path119"
   d="m 162.33,49.05 34.6,40.67 -56.28,3.62 c -1.47,0.44 -2.72,0.46 -3.79,0 l -0.1,-0.04 -23.01,-1.73 c -0.04,1.09 -0.02,2.2 0.07,3.32 0.05,0.66 0.15,1.34 0.29,2.03 L 229,90.16 V 45.22 c -3.9,-0.43 -7.86,-0.84 -11.88,-1.2 -4.82,-0.42 -9.73,0.1 -14.74,0.32 -4.24,0.19 -8.55,0.56 -12.93,1.13 -5.2,0.68 -10.49,0.25 -15.88,1.56 -4.02,0.97 -7.55,1.31 -11.24,2.02 z"
   class="fil3 str0" /><path
   style="fill:#ffffff;stroke:#ffffff;stroke-width:0.89999998;stroke-miterlimit:22.92560005"
   inkscape:connector-curvature="0"
   id="path121"
   d="M 71.07,99.45 C 71.38,95.87 72,92.09 72.91,88.5 L 40.94,86.1 v 15.12 z"
   class="fil3 str0" /><path
   style="fill:#ffffff;stroke:#ffffff;stroke-width:0.89999998;stroke-miterlimit:22.92560005"
   inkscape:connector-curvature="0"
   id="path123"
   d="m 119.63,74.88 c -3.23,4.55 -5.63,10.36 -5.88,16.69 l 23.01,1.73 0.1,0.04 c 1.07,0.46 2.32,0.44 3.79,0 l 56.28,-3.62 -34.6,-40.67 c -1.36,0.26 -2.75,0.57 -4.19,0.99 0.02,0.04 0.04,0.08 0.06,0.12 l 19.91,23.51 -6.51,13.85 -31.42,2.01 -0.58,0.13 c -0.86,0.3 -1.08,0.19 -1.08,0.19 -1.87,-0.76 -2.15,-9.41 4.01,-22.55 3.53,-7.48 7.31,-12.53 10.27,-15.35 -6.51,2.53 -14.83,6.04 -20.24,9.61 -3.53,2.33 -5.84,4.44 -7.94,6.86 l 7.71,3.18 c -0.87,2.74 -1.52,5.36 -1.86,7.75 z"
   class="fil3 str0" /><path
   style="fill:#ffffff;stroke:#ffffff;stroke-width:0.89999998;stroke-miterlimit:22.92560005"
   inkscape:connector-curvature="0"
   id="path125"
   d="m 119.63,74.88 10.84,4.47 c 0.34,-2.39 0.99,-5.01 1.86,-7.75 l -7.71,-3.18 c -1.52,1.75 -2.92,3.66 -4.6,5.92 -0.13,0.18 -0.26,0.36 -0.39,0.54 z"
   class="fil3 str0" /><path
   style="fill:#ffffff;stroke:#ffffff;stroke-width:0.89999998;stroke-miterlimit:22.92560005"
   inkscape:connector-curvature="0"
   id="path127"
   d="M 90.93,62.68 C 92.95,61.1 95.4,59.37 98.2,57.54 L 48.63,37.12 c -1.55,2.42 -3.19,4.65 -4.87,6.47 l 46.87,19.33 c 0.1,-0.08 0.2,-0.16 0.3,-0.24 z"
   class="fil3 str0" /><path
   style="fill:#ffffff;stroke:#ffffff;stroke-width:0.89999998;stroke-miterlimit:22.92560005"
   inkscape:connector-curvature="0"
   id="path129"
   d="m 70.93,107.41 -29.99,1.71 v 56.72 L 54.2,147.41 c 6.74,-2.86 15.69,-2.51 22.16,-5.76 C 74.35,134.5 73.8,127 74.81,119.6 c -1.75,-3.09 -3.02,-6.23 -3.55,-9.35 -0.15,-0.88 -0.26,-1.83 -0.33,-2.84 z"
   class="fil3 str0" /><path
   style="fill:#ffffff;stroke:#ffffff;stroke-width:0.89999998;stroke-miterlimit:22.92560005"
   inkscape:connector-curvature="0"
   id="path131"
   d="m 76.36,141.65 c -6.47,3.25 -15.42,2.9 -22.16,5.76 l -13.26,18.43 v 6.44 l 18.28,1.09 6.47,-6.38 c 6.12,-2.59 11.06,-8.26 17.26,-10.65 3.95,6.2 9.22,11.78 15.75,16.33 1.77,1.24 3.6,2.36 5.46,3.39 l 38.69,2.31 c -0.86,-1.18 -1.86,-2.37 -2.95,-3.55 -1.92,0.22 -3.86,0.33 -5.8,0.33 -10.05,0 -20.18,-2.93 -28.91,-9.01 -11.64,-8.11 -18.42,-20.18 -19.8,-32.84 -0.09,-0.09 -0.18,-0.18 -0.26,-0.27 -3.95,-4.2 -7.68,-8.76 -10.32,-13.43 -1.01,7.4 -0.46,14.9 1.55,22.05 z"
   class="fil3 str0" /><path
   style="fill:#ffffff;stroke:#ffffff;stroke-width:0.89999998;stroke-miterlimit:22.92560005"
   inkscape:connector-curvature="0"
   id="path133"
   d="m 82.95,156.34 c -6.2,2.39 -11.14,8.06 -17.26,10.65 l -6.47,6.38 44.94,2.69 c -1.86,-1.03 -3.69,-2.15 -5.46,-3.39 -6.53,-4.55 -11.8,-10.13 -15.75,-16.33 z"
   class="fil3 str0" /><path
   style="fill:#ffffff;stroke:#ffffff;stroke-width:0.89999998;stroke-miterlimit:22.92560005"
   inkscape:connector-curvature="0"
   id="path135"
   d="m 85.39,133.3 c 1.38,12.66 8.16,24.73 19.8,32.84 8.73,6.08 18.86,9.01 28.91,9.01 1.94,0 3.88,-0.11 5.8,-0.33 -3.79,-4.1 -8.71,-8.09 -13.35,-11.12 -6.02,-3.95 -6.65,-5.36 -17.18,-11.68 -3.63,-2.18 -9.95,-5.76 -15.1,-10.23 -2.96,-2.57 -5.99,-5.43 -8.88,-8.49 z"
   class="fil3 str0" /><path
   style="fill:#ffffff;stroke:#ffffff;stroke-width:0.89999998;stroke-miterlimit:22.92560005"
   inkscape:connector-curvature="0"
   id="path137"
   d="m 136.92,121.99 c 5.39,2.9 9.73,4.55 15.29,7.38 5.57,2.82 13.96,7.29 20.41,11.4 3.08,1.97 5.16,3.57 7,5.16 6.25,-14.75 4.09,-31.56 -5.51,-44.42 l -57.08,3.26 c 0.03,0.06 0.06,0.11 0.09,0.17 1.67,3.15 2.95,5.45 6.6,8.2 3.65,2.76 7.81,5.95 13.2,8.85 z"
   class="fil3 str0" /><path
   style="fill:#ffffff;stroke:#ffffff;stroke-width:0.89999998;stroke-miterlimit:22.92560005"
   inkscape:connector-curvature="0"
   id="path139"
   d="m 186.75,100.79 c 4.41,8.09 6.69,17.06 6.7,26.09 v 0.1 c 0,8.74 -2.11,17.54 -6.46,25.66 4.35,3.96 8.79,8.6 11.98,13.47 2.92,4.45 6.32,9.85 7.32,16.06 L 229,183.53 V 98.38 Z"
   class="fil3 str0" /><path
   style="fill:#ffffff;stroke:#ffffff;stroke-width:0.89999998;stroke-miterlimit:22.92560005"
   inkscape:connector-curvature="0"
   id="path141"
   d="m 193.45,126.88 c -0.01,-9.03 -2.29,-18 -6.7,-26.09 l -12.64,0.72 c 9.6,12.86 11.76,29.67 5.51,44.42 2,1.73 3.72,3.46 6.18,5.64 0.39,0.35 0.79,0.71 1.19,1.07 4.35,-8.12 6.46,-16.92 6.46,-25.66 z"
   class="fil3 str0" /><path
   style="fill:#ffffff;stroke:#ffffff;stroke-width:0.89999998;stroke-miterlimit:22.92560005"
   inkscape:connector-curvature="0"
   id="path143"
   d="m 131.77,188.56 c -0.9,-0.9 -1.86,-1.76 -2.89,-2.58 l -67.22,-4.63 c -11.05,5.83 -18.15,14.82 -18.15,24.9 0,12.9 11.64,24.44 29.68,29.38 1.46,0.41 2.33,1.83 1.99,3.23 -1.56,6.53 -3.03,10.82 -4.33,13.65 7.23,-1.88 18.57,-6.24 21.36,-12.86 0.42,-0.98 1.4,-1.65 2.52,-1.7 24.49,-1.15 43.61,-14.83 44.48,-31.83 0.31,-6.32 -2.25,-12.38 -7.44,-17.56 z"
   class="fil3 str0" /><path
   style="fill:#ffffff;stroke:#ffffff;stroke-width:0.89999998;stroke-miterlimit:22.92560005"
   inkscape:connector-curvature="0"
   id="path145"
   d="m 43.51,206.25 c 0,-10.08 7.1,-19.07 18.15,-24.9 l -9.25,-0.64 c -5.01,3.69 -8.94,8.08 -11.47,12.93 v 25.33 c 4.79,9.26 14.74,16.91 28.05,21.13 -2.42,9.31 -4.5,12.81 -5.27,13.32 -2.31,1.1 -1.97,2.99 -1.87,3.36 0.12,0.52 0.74,2.21 3.31,2.21 3.55,0 25.06,-4.37 31.57,-15.71 1.63,-0.1 3.25,-0.28 4.83,-0.49 0.37,0.54 0.75,1.08 1.15,1.61 2.95,-1.85 5.83,-3.7 8.49,-5.44 3.34,-2.17 5.68,-4.47 9.23,-6.77 5.63,-3.64 10.01,-7.26 13.08,-10.32 5.01,-5 6.01,-6.75 8.73,-11.01 1.14,-1.78 2.28,-3.98 3.25,-6.18 -0.06,-1.26 -0.22,-2.52 -0.47,-3.79 0.66,0.01 1.3,0.02 1.95,0.05 0.57,-1.67 0.97,-3.18 1.09,-4.34 0.05,-0.39 0.08,-0.74 0.11,-1.07 -1.2,-0.06 -2.4,-0.09 -3.62,-0.09 -0.49,0 -0.97,0.02 -1.46,0.04 -1.24,-3.13 -3.07,-6.12 -5.51,-8.9 l -8.7,-0.6 c 1.03,0.82 1.99,1.68 2.89,2.58 5.19,5.18 7.75,11.24 7.44,17.56 -0.87,17 -19.99,30.68 -44.48,31.83 -1.12,0.05 -2.1,0.72 -2.52,1.7 -2.79,6.62 -14.13,10.98 -21.36,12.86 1.3,-2.83 2.77,-7.12 4.33,-13.65 0.34,-1.4 -0.53,-2.82 -1.99,-3.23 -18.04,-4.94 -29.68,-16.48 -29.68,-29.38 z m 21.65,50.01 -0.03,-2.71 h 0.03 z"
   class="fil3 str0" /><path
   style="fill:#ffffff;stroke:#ffffff;stroke-width:0.89999998;stroke-miterlimit:22.92560005"
   inkscape:connector-curvature="0"
   id="path147"
   d="m 40.94,193.64 c 2.53,-4.85 6.46,-9.24 11.47,-12.93 l -11.47,-0.79 z"
   class="fil3 str0" /><path
   style="fill:#ffffff;stroke:#ffffff;stroke-width:0.89999998;stroke-miterlimit:22.92560005"
   inkscape:connector-curvature="0"
   id="path149"
   d="M 68.99,240.1 C 55.68,235.88 45.73,228.23 40.94,218.97 v 45.14 h 22.42 c 5.2,-2.21 11.5,-4.53 19.98,-8.63 5.85,-2.83 12.8,-6.95 19.37,-11.08 -0.4,-0.53 -0.78,-1.07 -1.15,-1.61 -1.58,0.21 -3.2,0.39 -4.83,0.49 -6.51,11.34 -28.02,15.71 -31.57,15.71 -2.57,0 -3.19,-1.69 -3.31,-2.21 -0.1,-0.37 -0.44,-2.26 1.87,-3.36 0.77,-0.51 2.85,-4.01 5.27,-13.32 z"
   class="fil3 str0" /><path
   style="fill:#ffffff;stroke:#ffffff;stroke-width:0.89999998;stroke-miterlimit:22.92560005"
   inkscape:connector-curvature="0"
   id="path151"
   d="m 137.58,186.58 c 2.44,2.78 4.27,5.77 5.51,8.9 0.49,-0.02 0.97,-0.04 1.46,-0.04 1.22,0 2.42,0.03 3.62,0.09 0.22,-2.49 0.06,-3.13 -0.19,-4.9 -0.16,-1.17 -0.4,-2.29 -0.7,-3.38 z"
   class="fil3 str0" /><path
   style="fill:#ffffff;stroke:#ffffff;stroke-width:0.89999998;stroke-miterlimit:22.92560005"
   inkscape:connector-curvature="0"
   id="path153"
   d="m 205.86,191.28 c -0.4,1.61 -0.95,3.4 -1.61,5.91 -1.4,5.3 -4.37,13.59 -8.82,19.4 -1.34,1.74 -2.88,3.43 -4.54,5.07 0.66,2.18 1,4.45 1,6.76 0,13 -10.62,24.53 -27.31,29.92 0.62,2.33 1.21,4.24 1.75,5.77 H 229 v -71.24 z"
   class="fil3 str0" /><path
   style="fill:#ffffff;stroke:#ffffff;stroke-width:0.89999998;stroke-miterlimit:22.92560005"
   inkscape:connector-curvature="0"
   id="path155"
   d="m 191.89,228.42 c 0,-2.31 -0.34,-4.58 -1,-6.76 -1.55,1.53 -3.19,3.01 -4.87,4.44 0.09,0.77 0.14,1.54 0.14,2.32 0,11.16 -10.12,21.17 -25.78,25.46 -1.46,0.4 -2.33,1.81 -2,3.22 0.67,2.77 1.32,5.08 1.93,7.01 h 6.02 c -0.54,-1.53 -1.13,-3.44 -1.75,-5.77 16.69,-5.39 27.31,-16.92 27.31,-29.92 z"
   class="fil3 str0" /><path
   style="fill:#ffffff;stroke:#ffffff;stroke-width:0.89999998;stroke-miterlimit:22.92560005"
   inkscape:connector-curvature="0"
   id="path157"
   d="m 160.38,253.88 c 15.66,-4.29 25.78,-14.3 25.78,-25.46 0,-0.78 -0.05,-1.55 -0.14,-2.32 -2.52,2.15 -5.11,4.18 -7.53,6.09 -5.78,4.56 -10.54,8.04 -17.44,11.98 -6.9,3.95 -15.62,7.9 -23.53,11.26 -0.09,0.04 -0.18,0.08 -0.27,0.12 1.42,0.16 2.88,0.27 4.35,0.34 1.12,0.05 2.11,0.72 2.53,1.7 1.08,2.58 3.67,4.76 6.77,6.52 h 9.41 c -0.61,-1.93 -1.26,-4.24 -1.93,-7.01 -0.33,-1.41 0.54,-2.82 2,-3.22 z"
   class="fil3 str0" /><path
   style="fill:#ffffff;stroke:#ffffff;stroke-width:0.89999998;stroke-miterlimit:22.92560005"
   inkscape:connector-curvature="0"
   id="path159"
   d="m 160.38,253.88 c 15.66,-4.29 25.78,-14.3 25.78,-25.46 0,-0.78 -0.05,-1.55 -0.14,-2.32 -2.52,2.15 -5.11,4.18 -7.53,6.09 -5.78,4.56 -10.54,8.04 -17.44,11.98 -6.9,3.95 -15.62,7.9 -23.53,11.26 -0.09,0.04 -0.18,0.08 -0.27,0.12 1.42,0.16 2.88,0.27 4.35,0.34 1.12,0.05 2.11,0.72 2.53,1.7 1.08,2.58 3.67,4.76 6.77,6.52 h 9.41 c -0.61,-1.93 -1.26,-4.24 -1.93,-7.01 -0.33,-1.41 0.54,-2.82 2,-3.22 z"
   class="fil3 str0" /><path
   style="fill:#ffffff;stroke:#ffffff;stroke-width:0.89999998;stroke-miterlimit:22.92560005"
   inkscape:connector-curvature="0"
   id="path161"
   d="m 150.9,264.11 c -3.1,-1.76 -5.69,-3.94 -6.77,-6.52 -0.42,-0.98 -1.41,-1.65 -2.53,-1.7 -1.47,-0.07 -2.93,-0.18 -4.35,-0.34 -3.19,1.35 -6.26,2.65 -9.26,3.87 3.68,0.91 7.59,1.52 11.64,1.8 0.6,1.03 1.35,1.99 2.2,2.89 z"
   class="fil3 str0" /><path
   style="fill:#ffffff;stroke:#ffffff;stroke-width:0.89999998;stroke-miterlimit:22.92560005"
   inkscape:connector-curvature="0"
   id="path163"
   d="m 141.83,264.11 c -0.85,-0.9 -1.6,-1.86 -2.2,-2.89 -4.05,-0.28 -7.96,-0.89 -11.64,-1.8 -4.33,1.76 -8.5,3.35 -12.67,4.69 z"
   class="fil3 str0" /><path
   style="fill:#ffffff;stroke:#ffffff;stroke-width:0.89999998;stroke-miterlimit:22.92560005"
   inkscape:connector-curvature="0"
   id="path165"
   d="m 145.02,200.89 c 0.25,1.27 0.41,2.53 0.47,3.79 0.56,-1.27 1.07,-2.55 1.48,-3.74 -0.65,-0.03 -1.29,-0.04 -1.95,-0.05 z"
   class="fil3 str0" />
<g
   id="g850"
   style="fill:#ffffff;stroke-width:0.70343041"
   transform="matrix(1.4192482,0,0,1.4239652,-63.043497,-119.73023)"><path
     class="st20"
     d="m 217.19,147.31 c 0.11,-15.78 15.03,-22.61 28.79,-22.61 14.93,0 31.14,6.08 31.14,23.78 0,18.98 -14.29,22.6 -29.96,22.6 -6.18,0 -16.21,1.6 -16.21,9.7 v 6.4 h 46.38 v 13.12 h -60.46 c 0,-6.5 0,-13.01 0,-19.62 0,-17.17 15.57,-22.29 30.28,-22.29 5.65,0 15.99,-0.96 15.99,-9.6 0,-8.1 -7.36,-11.94 -16.95,-11.94 -7.36,0 -14.93,3.73 -15.03,10.45 h -13.97 z"
     id="path848"
     inkscape:connector-curvature="0"
     style="fill:#ffffff;stroke-width:0.70343041" /></g></svg>