<svg xmlns="http://www.w3.org/2000/svg" viewBox="0 0 470 470" width="512" height="512"><g stroke-width="1.135"><path d="M260.782 228.747c.157-.67.202-1.096-.022-1.543-.201.447-.156.872.022 1.543zM5.844 159.644a56.132 56.132 0 0 0-3.714 1.745c-.805.402-1.431 1.006-1.588 1.946-.09-.067-.156-.045-.201.045v1.252c.067 0 .156 0 .223.023l.291.984c.112 1.051.537 1.969 1.208 2.774.291.56.806.783 1.343 1.007 1.252.514 2.26 1.364 3.02 2.483 1.342 1.924 2.08 4.049 1.856 6.42-.022.045-.044.09-.067.157-.134.29-.156.604-.111.917 0 .09-.023.157-.023.246a5.119 5.119 0 0 0-.514 1.723 20.16 20.16 0 0 0-1.454 4.027c-.202.29-.336.626-.291.984a7.157 7.157 0 0 0-.694 3.266c-.246 1.88-.179 3.714.425 5.526.18 2.058 1.03 3.915 1.924 5.749 2.014 4.094 4.832 7.628 7.852 11.006 2.484 2.797 4.99 5.548 7.472 8.322.336 1.23 1.477.716 2.237 1.007.783.179 1.41.626 1.969 1.186 1.342 1.856 3.02 3.355 4.81 4.742.09.067.201.135.29.202.247.358.582.604.962.783.068.268.291.223.493.223.626.65 1.431 1.007 2.304 1.477v-1.208c.358-.76.94-1.365 1.476-2.014 1.343-.827 1.343-.827.18-1.745-.224-.178-.47-.313-.694-.47-1.7-1.252-3.2-2.706-3.759-4.809-.47-1.812-.85-3.646-1.275-5.459-.358-2.505-.581-5.055-1.185-7.516-.09-.917-.157-1.857-.291-2.774-.112-.694.224-.76.738-.694.649.246 1.32.515 1.969.761.335.157.693.336 1.029.492 1.096.805 2.17 1.656 2.997 2.752l.47.738c.313.76.649 1.499.962 2.26.269 1.029.604 2.035 1.141 2.975.067.09.112.179.18.268.491 1.253 1.207 2.372 2.214 3.289.268.559.738.94 1.253 1.253 1.476 1.297 3.176 2.237 5.033 2.908.85.492 1.745.917 2.73 1.051.2.246.491.269.782.224 1.835.649 3.714.268 5.57.134 4.385-.335 8.345.492 11.5 3.87a18.061 18.061 0 0 0 3.22 2.752c-.47.56-1.073.201-1.61.179-2.64-.112-5.28-.291-8.188-.47.649.85-.067 1.454-.112 2.304 1.208-.358 2.26-.738 3.356-.94.47-.089.962-.648 1.476-.089-1.185 1.096-2.125 2.685-4.183 2.014-.022 0-.09.111-.179.2.94.65 1.812 1.388 2.886 1.813.984.76 2.08 1.297 3.221 1.767 1.074.738 2.282 1.186 3.67 1.768-.515-.985-1.008-1.678-1.59-2.327-.066-.336-.268-.604-.491-.828-.291-.962-1.32-1.633-1.007-2.796 2.55.156 5.056-.045 7.539-.537.917-.179 1.521-.56 1.678-1.521.268-.134.358-.537.738-.537.492-.045.671.649 1.208.537.873.134 1.096.828 1.298 1.521.09.94.022 1.834-.269 2.73-.246.67-1.051.223-1.41.67-.939.314-1.722.962-2.728 1.141-.314.045-.627.783-.47.783 1.297-.044.559 1.074 1.051 1.768.269-1.477 1.186-.783 1.88-.85.715.313 1.476.111 2.214.111l1.745.336c.94.29 1.857.604 2.796.917-.112-.067-.156-.157-.201-.268l.201.268c1.052.828 2.282.76 3.647.805-.582-.984-1.32-1.633-2.014-2.304-1.409-1.387-3.132-2.483-3.915-4.407-.089-.246-.156-.492-.246-.738 0-.246 0-.492-.022-.738-.134-1.544.38-2.93 1.03-4.273.737-.47.872-1.499 1.766-1.79a96.06 96.06 0 0 0 1.723.716c.29.134.582.29.716.626.828 1.902 2.282 3.311 3.758 4.698.157.291.313.604.85.65-.156-.47-.246-.873-.559-1.209-.738-2.46-1.88-4.81-2.08-7.427-.18-1.119-.336-2.237 0-3.356v-.425c.29-1.163.626-2.349 1.32-3.333 3.042-4.295 7.136-7.114 12.214-8.523.738-.202.984-.067.962.716-.09 2.527-.045 5.078-.246 7.606-.224 2.886.805 5.346 2.058 7.807.76 2.103 1.879 4.004 3.266 5.75 1.79 2.773 3.982 5.167 6.778 7.001 1.097 1.007 2.394 1.634 3.736 2.193a9.798 9.798 0 0 0 3.155 1.096c1.23.47 2.527.604 3.847.671 1.343.112 2.685.224 4.005-.179 2.617-.134 5.056-.85 7.226-2.349 1.118-.492 2.147-1.096 3.042-1.924.693-.246 1.23-.693 1.745-1.208a3.308 3.308 0 0 0 1.253-.962c.246-.201.47-.425.716-.626 3.736-2.438 5.973-5.816 6.644-10.224.358-1.454.67-2.908.648-4.429.068-.268.18-.537.202-.828.268-2.93.56-5.838.783-8.77.067-.961.358-1.476 1.454-1.52 1.029-.023 2.036-.336 3.042-.537.716-.134.783.38.918.872.268 1.164.536 2.327.805 3.468.134 2.036.56 4.027.447 6.085-.044.738.358.716.873.537.649-.247 1.14-.65 1.342-1.365.179-.582.425-1.163.626-1.745.962-1.387 2.282-2.46 2.998-4.027l.269-.47c.425-.425.626-.961.85-1.498.111-.269.246-.537.626-.358.984.402 2.058.626 2.595 1.722.224.492.537.94.85 1.365.246.358 2.17.358 2.618-.045.514-.492-.023-.917-.224-1.297-.917-1.79-2.26-3.356-2.618-5.414-.067-.627.135-.94.828-1.052 1.007-.134 1.991-.447 2.975-.693 1.902-.045 3.804-.403 5.705-.09 2.192.291 4.25 1.03 6.264 1.88 2.394 1.252 4.519 2.908 6.487 4.765.716.693 1.455 1.387 2.416 1.722.448.157 1.23.313.85-.581-.603-1.455.068-1.745 1.298-1.768.29 0 .56-.156.85-.179 1.007-.022 1.052-.559.783-1.342-.425-1.23-.984-2.416-1.879-3.356-4.43-4.586-9.15-8.836-14.317-12.594-.94-1.052-2.35-1.544-3.378-2.64.358-.067.648-.112.917-.157.984.112 1.969.202 2.953.313l3.557.739c1.029.47 2.125.783 3.244 1.029 2.08.827 4.138 1.678 6.219 2.483 2.662 1.029 5.346 2.036 8.232 2.349.269.022.604.246.76-.134.157-.38-.089-.627-.424-.783-.627-.314-1.253-.65-1.88-.962-.447-.246-.738-.537-.402-1.074.895-1.387 1.857-2.707 3.512-3.2 1.298-.38 2.26-1.185 3.132-2.147 1.365-1.521 2.438-3.244 3.378-5.056.447-.581.76-.313 1.119.157 1.185 1.476 2.013 3.177 2.908 4.832 2.438 5.794 3.624 12.013 6.107 17.785 1.186-6.6-.492-12.819-2.282-19.038a.729.729 0 0 0-.09-.29 70.091 70.091 0 0 0-3.288-9.956c-.56-1.968-1.387-3.825-2.26-5.66-2.236-4.81-5.212-9.082-9.216-12.594-.29-.336-.582-.716-.917-1.007-2.304-2.036-4.631-4.049-6.958-6.085-.358-.313-.85-.537-.984-1.185 7.629 1.52 14.989 4.093 22.729 4.966-1.723-.805-2.886-2.416-4.787-2.886-1.41-.335-2.82-.716-4.184-1.208-3.467-1.253-6.935-2.573-10.38-3.848-2.08-1.029-4.228-1.901-6.555-2.237-1.252-1.029-2.37-2.282-3.96-2.84-.156-.09-.312-.157-.469-.247-1.633-.984-3.467-1.476-5.302-1.946-1.051-.76-2.237-1.253-3.49-1.544-.447-.38-.962-.47-1.521-.425-.805-.604-1.7-.828-2.684-.828-2.484-.425-4.944-.38-7.74.224 1.14.537 1.923.917 2.728 1.298-.134.044-.425.09-.313.179.269.268.627.536 1.007.09.671.223 1.342.446 2.013.648.246.09.492.201.716.29.47.247.895.65 1.499.538.515.425 1.119.626 1.767.738.246.112.47.223.716.313.738.358 1.454.738 2.26.872.156.157.29.314.246.56-.246 0-.492 0-.738.022-.672-.112-1.32-.246-1.992-.179-2.125.067-4.16-.582-6.241-.85-1.7-.604-3.49-.649-5.235-.917-1.342-.202-2.684-.38-4.027-.582l-7.986-.537c-.984-.335-2.013-.201-3.02-.246-2.662-.29-5.324-.581-8.009-.447-.984-.291-1.99-.269-2.997-.224-1.812-.09-3.602-.201-5.414-.09-.47-.246-.962-.178-1.454-.178-2.93-.023-5.861-.023-8.792-.023-.492 0-1.007-.067-1.454.202-1.477-.045-2.953-.112-4.407.29-1.074-.2-1.61.627-2.282 1.208-.604.157-1.186.38-1.79.47-6.8 1.141-13.49 1.186-19.798-2.147-1.41-.739-2.908-.962-4.474-.761-4.452.582-8.77 1.767-12.953 3.378-.805.112-1.543.403-2.282.76-.537.068-1.051.202-1.499.515-5.19 1.767-10.29 3.736-15.547 5.213-1.186.335-1.23 1.029-1.164 1.968.045.56.291.738.806.38 2.282-1.543 4.877-2.281 7.472-2.975 3.49-.917 7.002-1.722 10.514-2.55a7.178 7.178 0 0 0 2.26-.492c2.281-.269 4.518-.783 6.755-1.253h1.007c.85.447 1.991-.134 2.73.738-1.007.336-2.036.671-3.043 1.03-3.333 1.23-6.711 2.303-9.955 3.735-2.774.85-5.414 1.991-8.009 3.289-1.432.47-2.752 1.185-4.049 1.946-1.61.738-3.221 1.521-4.698 2.506-1.23.47-2.349 1.096-3.467 1.79l-3.781 1.99c-.492.157-.962.358-1.32.716-.179 0-.358.022-.447.224-1.5.604-2.864 1.454-4.25 2.237-1.343.716-2.685 1.41-4.028 2.147-.827.448-1.029 1.119-.536 1.97.156.268.536.514.246.85-.246.29-.604.089-.918 0-.246-.068-.492-.09-.715-.113-1.03-.313-2.036-.716-3.088-.962-1.006-.246-2.035.023-2.505.962-.806 1.589-2.237 2.103-3.714 2.707-.917.38-1.454.246-1.7-.805a11.547 11.547 0 0 0-.783-2.237c-.335-.716-.246-1.141.358-1.7 3.02-2.842 4.273-6.354 3.669-10.47.067-1.007-.313-1.969-.448-2.93-.447-3.423-6.532-6.712-9.932-3.938-2.662 2.17-5.615 2.662-8.86 2.327-.648-.202-1.341-.202-2.012-.18-.895-.312-1.813-.357-2.73-.268-.94.269-1.924.112-2.886.38-.805.224-1.029.538-.894 1.41.313 2.26.492 4.541.738 6.8.045.896-.224 1.41-1.007 1.746zm175.857 34.764c.112-.514.828-.134 1.23-.313.18-.09.314-.18.448-.313.067.402.269.581.694.402h.022-.045c-.29.806.157 1.343.65 1.857.11.067.223.157.312.224.358 1.029.202 1.051-1.14 1.096-.135 0-.291.022-.426.022a1.03 1.03 0 0 0-.38-.201c-.425-.201-1.186.112-1.32-.447-.179-.739-.224-1.589-.045-2.327zm-145.612.738zm2.797 15.034c.022-.023.022-.045.022-.045v.045c0-.023-.022-.023-.022 0zm.335-14.765c-.201.313-.402.648-.29 1.051.044.045.089.09.111.157h-.044c-.783.201-.94 1.096-1.566 1.499-.112-.94.179-1.88-.246-2.73-.023-.022-.045-.044-.09-.067.358-2.997 1.41-5.682 3.691-7.785.604-.56 1.23-1.074 1.835-1.633.895-.492 1.678-1.14 2.438-1.812.56-.134.895-.582 1.275-.962a9.687 9.687 0 0 0 2.193-1.722c.47-.403.94-.828 1.387-1.23l.246-.247c.716-1.253 1.924-1.722 3.221-2.013.626-.38 1.387-.492 1.946-1.03.38-.156.761-.29 1.141-.47 4.832-2.415 9.732-4.675 15.011-5.905 1.119-.268 2.304-.336 3.356-.85 1.879-.022 3.691-.47 5.525-.76 3.423-.56 6.89-1.007 10.224-2.036.335-.09.671-.157 1.007-.247 1.744-.29 3.534-.067 5.257-.447h-.023c.94-.09 1.902.09 2.82-.246 1.99 0 3.981-.067 5.972 0 1.723.067 3.468.224 5.168 1.14-1.521.381-2.864.74-4.228 1.075-.358 0-.739-.045-1.052.223l-.47.067c-.604.068-1.208.135-1.767.448-.358.045-.738.09-1.096.156-4.004.85-8.009 1.835-12.036 2.506-5.995.984-11.834 2.528-17.583 4.452-2.058.447-4.027 1.23-6.018 1.924-4.138 1.431-8.322 2.729-12.281 4.653-.448.09-.873.268-1.23.581a24.072 24.072 0 0 0-6.488 4.14c-.023 0-.045-.023-.067-.023-.582-.067-.873.38-1.276.67-2.55 1.97-4.16 4.81-5.973 7.473zm30.425-29.284c2.147-.29 4.295-.648 6.398-1.208.112.067.224.134.358.202.559.067 1.074-.112 1.588-.247 2.483-.67 5.056-.738 7.875-1.118-1.7 1.521-3.423 2.394-5.302 3.02-2.819.917-5.705 1.096-8.635 1.03-.56-.023-1.298-.247-1.634.536h.023-.045c-.29-.224-.582-.224-.872 0h-.023c.135-.626-.29-1.03-.604-1.477.38-.134.828-.156.873-.693v-.045zm3.199-8.009c-.023.023-.045.045-.045.068.022-.023.022-.045.045-.068zm27.784-3.02c-.76.023-1.61-.335-2.26.224-.133-.492.135-.895.359-1.275 1.007-1.7 2.304-3.042 4.317-3.512 1.7-.403 3.446-.694 5.19-.873-.2.224-.335.492-.447.783-.872 2.26-2.282 3.982-4.81 4.497-.738.335-1.52.47-2.349.156zm1.253 1.298h-.09v-.022c.045 0 .068.022.09.022zm2.058 3.02c.246.022.492 0 .716-.045.694.202 1.499.291 1.7 1.253-.85.492-1.677.984-2.528 1.477-.179 0-.358.022-.536.022a1.127 1.127 0 0 0-.515-.269c-1.432.045-2.841.202-4.295.157-.76-.022-1.544-.336-2.304-.045-.112.112-.224.202-.336.313a57.463 57.463 0 0 1-1.946-.223c-1.141-.246-2.282-.492-3.4-.76.089-.068.2-.113.357-.157 1.208-.56 2.528-.783 3.803-1.141 3.02-.873 6.13-1.23 9.284-.582zm4.34-5.078c.157-.134.336-.202.492-.09-.134.023-.313.045-.492.09zm16.913-7.718c-.09-.134.134.045 0 .134-1.097.313-2.237.56-2.953 1.588v.067c-.918.045-1.79.224-2.305 1.097l-.067-.067c-1.208 0-2.26.559-3.31 1.029-1.857.85-3.759 1.61-5.548 2.595-.291.156-.672.38-.94.156-.313-.268-.134-.716-.045-1.051.18-.694.738-1.096 1.253-1.499 1.857-1.41 3.96-2.26 6.264-2.685.783-.134 1.566-.246 2.26-.67.022-.023.044-.023.066-.045.627.313 1.208.425 1.723-.269.045.022.09.067.134.09 1.186.313 2.282-.068 3.4-.358.068-.023.09-.067.068-.112zm-83.153 58.97c.112-.135.201-.291.313-.426.47-1.14 1.164-2.192 1.208-3.467-.022-.09-.044-.157-.067-.224.716-1.074 1.365-2.17 2.595-2.774.985-.47 2.08-.447 3.11-.76 1.41.067 2.84-.157 4.273.09-.023.156-.023.2-.045.223-.604.56-1.186 1.14-1.79 1.7-1.006.716-2.036 1.454-3.042 2.17A265.71 265.71 0 0 0 46 203.67c-.067-.045-.112-.09-.202-.112-.894.313-1.744.693-2.304 1.499 0 .044-.045.09-.045.156-.29.134-.581.269-.872.425-.425.202-.515.112-.537-.045zm12.796 14.384c-.47-.045-.895-.09-1.297.224-.023.022-.045.044-.045.067-.582-.671-1.23-.895-2.036-.38v-.045c-.738-.627-1.476-1.208-2.528-.739-.044 0-.067.023-.09.023.046-.045.068-.09.113-.134-.985-1.164-2.372-1.768-3.67-2.484-.335-1.387-1.23-2.393-2.17-3.4-.2-.76.202-1.7-.715-2.215 1.566-1.946 2.998-4.026 4.922-5.682.09-.09.111-.224.09-.358-.023 0-.023 0-.046-.022.403-.157.739-.38 1.007-.716.56-.268 1.119-.537 1.566-.984l.201-.269 5.504-2.237c.335.09.76-.313 1.006.201-.268.828-.559 1.678-.827 2.506-.291.917-.582 1.857-.895 2.774-.269.984-.627 1.969-.783 2.975-.246 1.611-.739 3.244.201 4.81.246.895.94 1.432 1.7 1.857 1.298.738 2.662 1.32 4.072 1.812.179.626.76.85 1.275 1.208-2.237 1.029-4.43 1.41-6.555 1.208zm9.24-10.738c0 .447.066.872.044 1.32-.067.962-.403 2.26 1.32 1.924v.134c-.09.358-.179.716-.268 1.096-.38 1.633-.38 1.61-2.059 1.32-.85-.157-1.722-.447-2.55.09-1.007-.202-1.99-.493-2.998-.582-.894-.09-1.32-.492-1.409-1.342v-5.302c.313-1.164.626-2.305.94-3.468 1.588-3.087 4.026-5.302 7.024-6.98 2.35-1.32 4.855-2.304 7.248-3.534.582-.067 1.074-.38 1.544-.716 8.478-3.4 15.794-8.21 20.134-16.912-1.566.335-2.73.872-3.647 1.924a51.222 51.222 0 0 1-6.845 6.733c-3.423 2.797-7.316 4.743-11.432 6.264-.47.09-.94.134-1.342.425l-3.669.828c-2.841.492-5.66.984-8.5 1.476-3.02.448-5.996 1.096-8.77 2.439-.47 0-.873.268-1.275.47-2.036.917-3.87 2.192-5.727 3.4h-.269c-.402.022-.29-.246-.29-.492.111-2.707 1.364-4.877 3.087-6.846.425-.492.894-.962 1.073-1.633 0-.045 0-.09.023-.134 1.79-1.432 3.58-2.841 5.369-4.273.783-.224 1.41-.738 2.058-1.186 1.275-.67 2.55-1.32 3.803-1.99.649-.27 1.297-.538 1.924-.828 4.273-1.969 8.77-3.4 13.199-4.944 6.51-1.544 12.908-3.714 19.708-3.826.806-.022.94.246 1.23.671.761 1.097 2.506 1.432 3.29.403.626-.828 1.409-1.007 2.214-1.297 1.924-.761 3.87-1.477 5.794-2.193 2.08-.358 4.161-.693 6.242-1.051.179 0 .335 0 .514-.023.515.023 1.03.09 1.521-.156 1.902-.023 3.826-.023 5.727-.045l.067 1.745c.045 3.221-1.61 4.966-4.675 5.816-5.078 1.387-10.09 2.953-15.123 4.475-5.346 1.61-10.425 3.758-15.033 6.957-1.342.649-2.573 1.521-3.714 2.46-1.118.605-2.058 1.433-3.02 2.238-.537.201-.94.56-1.275 1.007-.358.156-.626.38-.738.783-.09 0-.157.022-.201.067-.783.47-1.32 1.208-2.014 1.767-1.23.94-1.946 2.416-3.176 3.356h-.202c-.738.022-1.342.357-1.924.805-2.035 1.61-3.02 3.713-3.042 6.286 0 .358.045.716.09 1.074zm6.867-16.935c.067.067.134.134.202.18a.227.227 0 0 1-.157.133c-.022-.134-.022-.223-.045-.313zm.738 10.112c.582-.56 1.119-1.23 2.148-.94.112 0 .18.045.269.067v.09c-.09-.023-.18-.023-.269.045-.179 1.431-.85 2.416-2.349 2.684-.179-.671.313-1.297.201-1.946zm-4.966 6.398c-.156-.873.246-1.41 1.03-1.745.693-.29 1.297-.403 1.52.56.068.312.224.58.56.67-.023.135-.023.269-.023.403-.783.09-1.543.29-2.304.447-.313.068-.693.112-.783-.335zm21.61 1.678s0-.023 0 0c0-.023.023-.023.023-.023 0 .023 0 .023-.023.023zm17.852-14.564c-.514.448-1.051.85-1.588 1.275-.112 0-.224-.022-.313-.022-3.4 1.588-6.644 3.445-10.067 4.989-1.655.738-1.678 1.14-.425 2.393.626.627 1.208 1.276 1.41 2.17.223 1.052-.515 2.08-1.298 1.7-1.387-.67-3.043-.984-4.05-2.326-.581-.805-1.185-.828-1.9-.313-1.231.872-2.372 1.834-3.535 2.796a1.036 1.036 0 0 0-.38.537 1.662 1.662 0 0 0-.761.336c-1.678 1.431-3.535 2.64-5.168 4.138-1.969 1.812-3.803 3.759-4.9 6.242a6.854 6.854 0 0 1-1.968 2.528c-.962.805-1.297.76-2.237-.135-.38-.38-.76-.783-1.163-1.14-.76-.672-.783-1.365-.246-2.215 1.029-1.61 1.924-3.311 3.02-4.9.29-.447.67-.872.604-1.454-.023-.022-.023-.044-.045-.044.582-.962 1.521-1.656 2.148-2.595 1.61-1.23 2.416-2.998 3.243-4.743.09-.067.18-.134.269-.224 2.46-.85 4.43-2.483 6.443-4.049.917-.47 1.745-1.074 2.55-1.745.403-.156.76-.38 1.029-.716.313-.067.56-.2.738-.47.336-.156.671-.313.984-.491 3.915-2.372 8.076-3.96 12.752-3.848 1.566.246 3.087.559 4.586 1.118.895.313.872.694.268 1.208zm3.423 19.217s.022 0 0 0zm.022 0zm-.536-19.53c-.068-.022-.135-.022-.202-.022v-.023c.336-.492.09-.962-.09-1.409-.805-2.036-2.617-3.11-5.033-2.998-.09.045-.156.09-.246.134-.38-.67-1.051-.827-1.767-.894-.224-.045-.448-.045-.649-.045-.112-.045-.201-.112-.179-.269.045-.357.515-.268.783-.425.224-.111.47-.179.738-.246.157.067.291.112.425.18.65.111 1.23-.113 1.812-.359 1.164-.47 2.372-.716 3.58-1.051 2.483-.738 5.056-.805 7.606-1.119 1.521-.201 3.132.269 4.675-.09.023-.066.067-.133.09-.2 0 .022 0 .044-.022.067 1.163.179 2.326.358 3.49.559.29.268.626.425 1.006.47.067.044.134.067.224.112 1.118.67 2.103 1.52 3.02 2.438.76 1.79.492 2.595-1.253 3.467-.693.358-1.432.604-2.192.828-1.991.582-4.05.828-6.063 1.163-.134-.067-.268-.156-.425-.223-1.275.045-2.595-.067-3.803.47-.045.067-.067.156-.09.223l-1.386.067c-.716-.626-1.566-.335-2.35-.358-.603.023-1.207 0-1.7-.447zm12.527 12.751c0 .023 0 .023 0 0 0 .023-.022.023 0 0-.022.023 0 .023 0 0zm-9.977-2.729c0 .023-.023.023-.023.045 0 0 0-.022.023-.045-.023 0 0 0 0 0zm2.975 12.103c-.045-.09-.112-.157-.156-.246-.202-.291-.314-.694-.783-.604-.783-.962-1.656-1.812-2.797-2.35-.022 0-.045.023-.067.023v-.09a.7.7 0 0 1 .224-.111c.783-1.41.962-2.998 1.297-4.541-.067-.202-.112-.403-.201-.582.134-.403.492-.537 1.03-.604 2.415-.29 4.786-.47 6.956.984.65.671 1.298 1.365 1.97 2.036.491 2.125.872 4.228-1.008 5.95-.447.113-.67.47-.94.784-.38.179-.76.223-1.185.268-1.566.112-2.975-.313-4.34-.917zm23.579 14.295h-.358c-2.707 2.058-5.704 3.087-9.127 2.774-.358-.023-.738 0-1.074.246-.022.045-.045.09-.045.134-.626-.134-1.253-.29-1.879-.425-.067-.09-.112-.179-.179-.268-1.543-.806-2.975-1.768-4.138-3.11-.47-.537-.694-1.342-1.5-1.588-.022.022-.044.044-.066.044-.358-.514-.694-1.05-.761-1.7.626-.112.94.314 1.297.582.023.067.023.134.045.201.716.985 1.767 1.41 2.908 1.678.112-.022.202-.045.314-.067 1.767.671 3.49 1.521 5.436 1.499.581.134 1.185.112 1.767.022.917.067 1.812 0 2.707-.112 1.387-.156 2.774-.268 4.16-.402.448.022.761.044.493.492zm.447-.134zm0-5.548c-.2.223-.38.447-.402.76-.18-.022-.336 0-.47.112-1.857 1.432-4.05 2.08-6.309 2.55 0 0-.022.09-.044.224l-.045-.045h-.515c-1.79-.246-3.534-.604-5.123-1.476v-.067c-.917-1.343-2.37-1.902-3.735-2.55-.068-.045-.157-.045-.269-.023-.335-.447-.403-.984-.358-1.588.09-.94.134-1.88.18-2.819.066-.09.133-.179.2-.29.112-.27.112-.56 0-.828.068-.068-.089-.112-.179-.18 0-.044.023-.089.023-.134.022-.022.067-.022.112-.044.313.067.604.134.94.156.066 0 .156 0 .223-.022 1.007.671 2.058 1.275 3.199 1.767.022.09.067.18.134.269.425.47.895.872 1.589.738.044-.023.067-.045.111-.067a12.541 12.541 0 0 0 4.407 1.655.293.293 0 0 0 .09.291c1.208.492 2.416.872 3.646.112.023-.067.023-.134.023-.201 0 0 0 .022.022.022.805-.022 1.477-.313 2.036-.895.022 0 .045.022.067.045.984-.18 1.342-1.03 1.767-1.723.917-1.476 1.544-1.722 3.065-.962a.83.83 0 0 0-.38.291c-1.141 1.745-2.528 3.378-4.005 4.922zm-7.695-14.586c.47-.537 1.476-.627 1.387-1.633 1.096-.313 2.282-.269 3.355-.694.045.067.09.157.157.224.47.358 1.03.224 1.566.336.492.089 1.074.111 1.32.604.582 1.23 1.275 2.483.582 3.914-.672 1.387-1.79 2.014-3.311 2.036-.65 0-1.343-.112-1.902.425-.045.023-.067.045-.09.067-.245-.134-.514-.201-.782-.156-.112-.56-.448-.917-1.03-.985h-.066c-.09-.805-.694-1.32-1.208-1.901-.023 0-.045-.022-.068-.022-.067-.716-.447-1.41-.111-2.126.044-.022.134-.044.2-.09zm-.157-1.633v-.023c.023 0 .045.023.067.023h-.067zm.828-4.25c-.045-.023-.067-.023-.112-.023.045-.022.067-.022.112-.045v.067zm11.543 20.983c.023 0 0 0 0 0zm5.705-8.277c-.112 2.036-.805 3.87-1.745 5.66 0 .045.022.09.022.134-1.006.38-2.058.694-2.55 1.812-.47.157-.962.313-1.432.47-.358-.448-.067-.85.09-1.253.402-1.14 1.051-2.215 1.074-3.49.358-.917.715-1.834 1.096-2.751a69.389 69.389 0 0 1 1.499-1.186c1.051-.336 1.029-1.23 1.163-2.036.022.023.067.023.09.045.984.47.447 1.544.85 2.237l.067.067c-.135.022-.202.157-.224.29zm-.269-18.3c-.022 0-.022.023-.022.023.067.179-.112.022.022-.022zm0 0c.023 0 .023 0 0 0h.068-.068c.023 0 0 0 0 0zm2.909-8.5c.022.022.022.044.044.067-.917.492-.335 1.297-.38 1.946-.045.022-.09.067-.134.09-.134.2-.134.425-.045.648.067.023.112.067.18.09-.56.76-.515 1.454.111 2.103l-.045.044a3.568 3.568 0 0 0-.268.604c-.649-.783-1.544-.626-2.439-.47a.804.804 0 0 0-.268.18c-.201-.068-.425-.135-.626-.202-.023-.067-.045-.156-.09-.246-1.118-.783-2.416-.783-3.691-.872-.291.067-.671 0-.94.112h-.09c-1.32-.157-2.639-.358-3.959-.537-.403.022-.828.044-1.23.067-2.282-.246-4.542-.537-6.846-.537 0-.022 0-.045-.022-.067-.805-1.365-.738-2.998-1.454-4.385-.067-.067-.134-.112-.201-.179-.18-1.432-.582-2.819-.985-4.206-.179-.313-.47-.604-.045-.94.023.046.068.113.09.157 1.41.112 2.819.582 4.228-.044.022-.045.022-.067.045-.112.134-.022.268-.022.38-.045h.134c.067.134.202.246.336.358 2.26.76 4.564.671 6.868.358.067-.067.09-.157.134-.224l.022.023c.582.537 1.23.425 1.902.179a.853.853 0 0 0 .201-.202c.29.023.604.045.895.045.649.045 1.32.112 1.969.157l2.55.067c1.253.134 2.483.335 3.758.223l1.7.068h.045c.067.626.604.492.984.514.672.067 1.32.134 2.036.336-.335.447-.738.715-.828 1.185l.068.202-.023-.023c-.246-.112-.492-.022-.693.112-1.119.694-2.058 1.61-3.065 2.46-.224.247-.403.538-.313.896zm-23.557-6.958c.045.09.112.18.157.269a.563.563 0 0 1-.157-.269zm17.673-.94zm1.767-.984c.023-.022.023-.022 0 0 .023-.022.023-.022 0 0 .023-.022.023 0 0 0zm7.74-2.527c0-.023.023-.023.046-.045v.045h-.045zm20.425 20.021c-.492.135-.894.425-1.118.895-1.007-.022-3.602.985-4.407 1.7-.09-.044-.157-.089-.246-.111-1.611 0-3.2-.157-4.81-.246-.09.067-.246.111-.358.156-.738-.224-1.499-.447-2.237-.693h-.022a.417.417 0 0 0-.246-.09c-.828-.313-1.656-.604-2.484-.917-.67-.47-1.387-.783-2.17-1.03-1.745-1.14-3.49-2.326-4.54-4.227-.09-.403-.202-.828-.292-1.23.224-1.007.492-1.97 1.253-2.752.738-.76 1.655-1.186 2.506-1.768a54.09 54.09 0 0 1 2.035-.626c.985-.112 1.991-.201 2.976-.313 2.84.201 5.48.962 7.74 2.796.179.202.358.425.537.627 0 .111 0 .201.022.313 1.007 1.32 2.148 2.505 3.669 3.244.022.313.224.559.38.783.582.805 1.343 1.454 2.036 2.147.604.604.85 1.052-.224 1.342zM158.346 179.8s.023 0 0 0c.045 0 .157.134.045.067-.022-.022-.022-.045-.045-.067zm.76 5.593c0-.023 0-.023 0 0 0-.023 0-.023 0 0zm4.274 1.498s.022 0 0 0zm18.187-1.812c-.156-.044-.313-.067-.447-.134-.291 0-.627-.045-.738.313 0 0 0-.022-.023-.022-.313-.313-.649-.38-1.051-.201-.023.022-.045.067-.09.09-1.208-.247-2.393-.515-3.601-.762a25.34 25.34 0 0 0-4.273-1.252c-.94-.492-1.969-.76-3.02-.962-.783-.425-1.633-.627-2.506-.783-.268-.313-.626-.246-.962-.269-.783-.425-1.61-.693-2.528-.738-.268-.29-.67-.246-1.006-.29-1.119-.515-2.305-.739-3.513-.918-1.387-.47-2.818-.693-4.272-.805-.47-.291-.985-.18-1.5-.202-.961-.29-1.946-.335-2.93-.313-.671-.246-1.365-.246-2.058-.179h-.246l-.492-.067a.852.852 0 0 0-.38-.09c-1.186-.268-2.372-.066-3.558-.066-2.192.022-4.407-.246-6.599.134-.492.022-.984.045-1.476.09h-.493c-2.617.044-5.234.156-7.83.357-.335-.067-.67 0-1.006.09-1.79 0-3.58-.023-5.347.044-.76.023-.962-.179-.738-.917.425-1.431.805-2.863 1.186-4.295.268-.179.223-.47.268-.716.067-.09.157-.201.224-.29.693-.784 1.476-1.186 2.617-.873.649.179 1.41.045 2.103.045 1.991.156 3.96.38 5.973.313.045.022.067.045.112.045.022 0 .067 0 .09-.023 1.431.246 2.885.47 4.34.448.47.335.984.201 1.476.179 1.41.29 2.819.537 4.273.581.29.246.648.224 1.006.202 2.17.38 4.318.85 6.51 1.006 1.208.425 2.484.627 3.736.739 1.03.425 2.17.447 3.222.738.425.045.805.38 1.275.246 1.387.358 2.751.738 4.183.828.425.134.873.268 1.298.425.537.29 1.073.514 1.7.559 1.79.76 3.646 1.32 5.525 1.812 2.506.962 5.101 1.7 7.517 2.908v.022c.201.56.649.85 1.141 1.097a17.975 17.975 0 0 1 2.841 1.812c0 .022.022.022.045.044h.022zm-58.164-15.66c0-.022.022-.022.045.023-.023 0-.023 0-.045-.022zm8.456-4.831c.022-.09.022-.18.045-.269l.134.067c-.067.045-.112.112-.179.202zm10.47 1.029c.044-.023.067-.045.112-.045.111.022.223.045.313.09-.134-.045-.269-.045-.425-.045zm.268 3.288v-.022.022zm3.758-1.297s.023 0 0 0c.023 0 .023 0 0 0 0 .022 0 0 0 0zm.515 3.31h.045v.023c-.023-.022-.045-.022-.045-.022zm4.004-6.778c.023 0 .045-.022.067-.022l-.044.045c0-.023-.023-.023-.023-.023zm1.745 3.759h.023c0 .022 0 .022-.023.044v-.044zm.492-.291c0-.023 0-.067.023-.09 0 .023.022.045.022.09h-.045zm44.026 17.471c-.223 1.924-.223 1.924-1.655 2.014a.414.414 0 0 0-.157.045c-.201-.426-.67-.448-1.074-.537-2.662-.672-5.212-1.656-7.695-2.841-.425-.202-.873-.493-1.387-.157v-.112c-.201-.447-.604-.693-1.007-.895-1.946-1.029-3.937-1.99-5.906-2.953-.38-.179-.783-.313-1.208-.246a.8.8 0 0 0-.246.09c-.537-.18-1.074-.38-1.61-.56-1.32-.447-2.64-.962-4.072-1.051-.872-.403-1.834-.47-2.774-.515-.716-.044-.85-.38-.425-.94.56-1.319 1.61-1.476 2.863-1.252.94.18 1.88.29 2.82.425.245.09.491.157.737.246 3.67 1.052 7.316 2.103 10.984 3.155.112.178.291.178.448.156 0 .045 0 .067.022.112.269.358.65.447 1.052.492.402.112.783.134 1.163.112 2.125.671 4.318 1.119 6.376 2.013.738 1.119 2.147 1.633 2.84 2.797-.021.112-.066.246-.089.402zm12.595-7.069c0 .56-.09 1.096-.626 1.41-2.193 1.208-4.407 2.147-7.002 1.387-.918-.269-1.835-.604-2.82-.403-.021 0-.044.022-.066.022.201-.962 1.118-1.275 1.767-1.812 1.186-.984 2.55-1.745 3.2-3.221.894-.895.939-2.17 1.498-3.222l.201-.134c.067.022.135.045.224.045.336-.067.582-.246.671-.604v-.023c1.544.045 1.566.09 1.902 1.857.201 1.141.402 2.304.648 3.423.09.38.157.783.493 1.029-.045.09-.067.179-.09.246zm-4.944-20.178c.47.402.85.917 1.566.872-.246.604.246.917.582 1.253a35.58 35.58 0 0 1 5.324 7.18c1.275 2.26 2.192 4.654 2.886 7.137-1.342-2.326-2.841-4.563-4.788-6.443-.313-.29-.559-.738-1.073-.693-.023-.403-.314-.649-.537-.94-2.215-2.818-4.698-5.391-7.07-8.053-1.677-1.857-3.355-3.736-4.966-5.66 2.976 1.342 5.615 3.2 8.076 5.347zm-7.74 4.451c1.678.873 3.132 1.991 4.653 3.088.872.626 1.678 1.23 1.454 2.483-.045.29.134.56.38.76.023.023.045.023.067.045v.224a288.988 288.988 0 0 1-.492 4.362c-.067.492.112 1.096-.492 1.41-1.163-1.522-2.17-3.177-2.684-5.011-1.164-4.072-4.296-5.258-7.964-5.772-.314-.224-.694-.291-1.074-.246-1.141-.448-2.35-.492-3.557-.448-.582.023-1.052-.112-1.454-.514-.828-1.387-.828-1.387.738-1.812.112-.023.201-.112.313-.157 1.61-.38 3.244-.268 4.877-.246h.022s-.022 0-.022.022c.09.493.515.47.872.515 1.566.067 2.976.582 4.363 1.297zm-27.069-18.321c.447.09.873.201 1.32.067h.604a7.036 7.036 0 0 0 2.058.09c.067.066.134.134.201.223.336.268.716.336 1.141.358.76-.09 1.611.157 2.305-.134.223-.023.425-.023.648-.045.023.045.023.112.067.157 1.857 1.744 4.117 2.751 6.488 3.579.38.134.76.156 1.14-.022.336.604.85.872 1.5.85.022.044.022.09.044.134.157.201.336.29.56.179.872 1.051 1.946 1.79 3.221 2.192.022.023.022.045.022.067.291.806.962 1.32 1.522 1.902.559.604 1.14 1.208 1.431 2.08-.827.023-1.476-.47-2.17-.134l-.022.023c-.716-.157-1.41-.291-2.125-.448-1.119-.537-2.26-.984-3.468-1.275a14.513 14.513 0 0 0-3.042-1.253c-2.349-1.074-4.676-2.147-7.025-3.221-.111-.224-.335-.224-.536-.246-.85-.515-1.656-1.141-2.685-1.253-.94-.917-2.215-1.253-3.266-1.991-.09-.403.067-.872-.29-1.208-.202-.358-.448-.828.357-.671zm4.206 13.914h-.045l.022-.022.023.022zm-10.649-3.087h.112v.045h-.022c-.023 0-.134-.045-.09-.045zm-1.163-3.154v-.067c.022 0 .022 0 .045.022-.023 0-.023.023-.045.045zm-.515-3.289s0 .023.023.023c-.023 0-.023 0-.023-.023 0 .023 0 0 0 0zm-2.997 3.759s0 .022.022.022c-.022 0-.022-.022-.022-.022zm-2.014.984c0 .022 0 .022.023.045l-.045-.045h.022zm-9.172-10.962v.067c-.022-.022-.044-.044-.044-.067h.044zm-3.064 3.222c0 .022 0 0 0 0-.023 0 0 0 0 0zm-.247 7.539c-.067-.045-.111-.09-.179-.112.068.022.135.045.18.112zm-.715-.515h-.023.023zm.715.515h-.022c.045 0 .09 0 .134-.023a.45.45 0 0 0-.067.246c1.454.761 2.976.694 4.542.47.089-.067.156-.134.246-.201 1.252.984 2.662 1.588 4.183 1.969 1.051.76 2.125 1.52 3.512 1.454 1.052.29 2.103.581 3.222.604.134.134.29.201.492.134.335.045.693.067 1.029.112 1.476.268 2.975.514 4.496.425.067.045.157.067.246.045.873.357 1.768.022 2.663.134 1.61.179 3.288.313 4.899-.09.94-.313 1.946-.022 2.886-.201.358.045.716.09 1.051.134 1.298.38 2.64.604 4.004.694.068.067.135.112.202.179l-.694.693c-1.118.828-2.416 1.208-3.736 1.544a.699.699 0 0 0-.537.134c-.089.045-.156.067-.246.112-1.006.223-2.013.47-3.02.693-.85.09-1.678.18-2.528.291-1.901-.112-3.825-.201-5.727.18h-5.234c-.246 0-.492 0-.76-.023-1.477-.291-2.976-.269-4.453-.291-1.163-.313-2.349-.358-3.534-.425-.582-.112-1.141-.313-1.745-.224-.336-.134-.649-.268-.985-.403-.179-.067-.335-.134-.514-.2-1.074-.694-2.304-.918-3.535-1.164-.805-.291-1.633-.537-2.505-.515-1.052-.335-2.103-.559-3.222-.559-2.483-.56-4.988-.917-7.516-1.208-2.394-.716-4.832-1.096-7.316-1.297-2.304-.18-4.563-.403-6.688-1.455-.47-.223-.94-.559-.918-1.051.045-.447.65-.38 1.03-.492 1.454-.448 3.042-.425 4.384-1.253a12.77 12.77 0 0 0 3.02-.649.43.43 0 0 0 .269-.09c1.745-.268 3.467-.536 5.212-.805.425.157.895.336 1.342.18 2.058-.627 3.938-.023 5.884.559 2.17.738 4.16 2.103 6.555 1.633zm-18.008-15.011c0 .022 0 .022 0 0 0 .022-.022 0-.022 0h.022zm-57.359 16.085c.425-.247.872-.47 1.007-1.03.402.18.76-.022 1.073-.223 2.215-1.343 4.609-2.304 7.003-3.222.38-.134.783-.268.805-.783.022.023.067.045.09.09.514.179.984 0 1.453-.134 3.244-1.007 6.399-2.327 9.687-3.222.447-.112 1.074-.09 1.253-.716.156.045.313.067.47.135 1.879-.627 3.825-.694 5.771-.895 8.434-.94 16.89-1.835 25.324-2.774.895-.09 1.857-.09 2.595-.738-.09-.202-.09-.336-.045-.47.09.044.18.09.18.156 1.028.18 1.99-.223 2.997-.246 2.036.112 4.004-.201 5.95-.693.068.044.135.09.224.156.336.09.672.112.94-.112.045.023.09.045.134.09 2.304.537 2.304.537.985 2.304-.023.022-.023.045-.023.067l-4.698.94c-4.049-.134-7.941.738-11.744 2.058-.38-.045-.739-.067-1.074.201-2.975.515-5.95 1.052-8.926 1.566-4.295.649-8.613 1.253-12.908 1.969-5.928.984-11.946 1.543-17.584 3.848-.537.223-1.118.29-1.7.402-2.953.627-5.928 1.186-8.836 2.014-.291-.045-.56-.045-.806.09-.268-.493.112-.65.403-.829zM42.13 172.664c.179-.112.335-.247.514-.358 1.163-1.365 2.416-2.573 4.116-3.311a38.551 38.551 0 0 1 6.242-2.08c.537-.135 1.163-.113 1.499-.717.492.18.94.045 1.32-.335.134.112.313.224.492.313 2.304.157 4.586-.246 6.868-.268.357 0 .738-.112 1.029-.403.022 0 .044.022.067.022.402.157.827.246 1.275.202h.022c-.358 1.096-1.253 1.879-1.767 2.885-2.483 2.663-5.503 4.452-8.948 5.57-.537.068-1.052.157-1.5.448-.424 0-.85.022-1.23.246-1.342.09-2.662.202-3.982.291-1.476-.112-2.953-.134-4.43-.335-2.259-.291-2.482-.493-1.587-2.17zm-12.282 6.733c.045-.09.067-.156.112-.246.09-.022.179-.067.268-.09.313-.134.582-.335.783-.581 1.387-1.633 3.087-2.953 4.564-4.519.962-1.029 1.029-1.007 2.103-.112.335.269.649.537 1.096.38a.17.17 0 0 0 .112-.044c1.655 1.566 3.624 2.393 5.906 2.46.492.068.962.112 1.454.202.828.157 1.7-.336 2.483.224-.224.111-.38.268-.447.514-.515.313-.918.76-1.276 1.253a376.07 376.07 0 0 1-2.953 2.998 1.621 1.621 0 0 0-.738.76c-.402.425-.827.828-1.23 1.253-.023-.022-.023-.022-.023-.045-.313-.067-.559.112-.76.313a187.012 187.012 0 0 0-4.698 4.72c-.201.202-.47.426-.29.784-.717.044-.94.716-1.365 1.14-.672.672-1.23.94-1.857 0-.157-.245-.38-.47-.716-.447a28.615 28.615 0 0 1-2.237-3.96c-.045-.357-.023-.715-.291-1.006l-.067-.47c-.336-1.812.045-3.646.067-5.48zm2.148 14.564c1.073.738 1.879 1.61 2.058 2.93.044 0 .067 0 .112.023-.09.044-.18.111-.269.179-.201.536 0 1.05.09 1.565.268 1.656.268 1.656-1.343 1.902 0 .022 0 .067.023.09l-.045-.045c-.09-.358-.29-.425-.537-.336-.022-.022-.022-.045-.045-.067a1.933 1.933 0 0 0-.85-.492c-2.505-.716-4.541-2.17-6.42-3.893-.537-.492-.739-1.006-.85-1.7-.269-1.61-.067-3.221-.38-4.832a.853.853 0 0 0-.202-.201v-.134c.045-.023.067-.023.112-.045a.784.784 0 0 0 .134-.313c.022-.157 0-.291-.022-.403a18.92 18.92 0 0 1 2.26-4.05c.044-.066.089-.133.156-.2.492-.515.67-.18.828.268.268.895.536 1.812.805 2.707.09 1.074.268 2.147.984 3.02.76 1.655 1.924 2.998 3.4 4.027zm-3.088-8.3c.023-.022.045-.022.067-.045 0 .023 0 .045-.067.045zm.627-6.241c.022 0 .022-.023.045-.023a.414.414 0 0 1-.045.157c0-.045.022-.09 0-.134zM7.947 162.44c.313.045.649-.045.94-.224.581-.447.603-1.096.514-1.7-.224-1.432-.246-2.886-.336-4.34-.09-1.499-.581-3.02-.067-4.541v-.201h.023c0 .067 0 .134.044.2 1.522.493 3.11.694 4.654 1.12.067.022.134 0 .179-.045.022.044.044.09.089.134 1.074.537 2.215.693 3.378.537 1.454-.201 2.819-.649 4.072-1.477 1.454-.962 2.952-1.856 4.675-2.281 2.26-.56 3.624.313 4.116 2.572.18.85.202 1.723.403 2.573.09.112.179.246.268.358-.067 2.528-.648 4.966-1.252 7.405-.067.044-.135.089-.224.134-1.32 2.393-2.058 5.01-1.253 7.628.873 2.819.716 5.257-1.163 7.584-.336.403-.783.917-.425 1.566.045.067.112.09.179.134-.09.38-.313.671-.627.917-1.23.94-2.102 2.193-2.84 3.535-.784.984-1.41 2.036-1.679 3.266-.067.045-.134.09-.178.18 0 .446-.358.67-.627.961-1.074 1.969-.537 4.05-.156 5.973.76 3.825 3.4 6.555 6.196 9.083.09.067.202.134.291.2.448.762.895 1.5 1.208 2.328-.022.067-.022.134-.045.2-.022.068.023.157.068.247.044.09.111.157.178.224-.089.223-.044.447.023.648a75.413 75.413 0 0 1 1.722 8.032c.112.648-.022 1.387.336 1.968-.022.134-.067.269-.067.403-.224.962.045 1.901.201 2.841.09.514.067.94-.38 1.23-2.036-1.924-4.564-3.266-6.51-5.324-.112-.112-.29-.179-.447-.224-.112 0-.202-.022-.291-.044-.269-.38-.604-.694-.962-.985l-.269-.537c-.738-1.006-1.79-1.767-2.528-2.751-2.214-2.953-4.832-5.593-6.867-8.702-1.768-2.685-3.423-5.392-4.43-8.434-.09-.246-.179-.515-.492-.492.403-.448.224-.94.112-1.41-.425-1.566-.224-3.087.112-4.63.29-1.298 1.051-2.417 1.275-3.737 0-.111.022-.246.022-.38.56-.47.492-1.096.246-1.767.09 0 .157 0 .246-.022.47-1.007 1.007-2.014.56-3.177.067-.023.111-.045.179-.067.514-.671.559-1.454.559-2.237-.023-4.743-2.461-8.099-6.175-10.694h-.111c.111-.29-.09-.537-.291-.693-.537-.425-.47-.895-.291-1.41h.112c.313-.044.581-.178.828-.38.089-.067.156-.156.246-.246.984-.179 1.856-.604 2.729-1.029zM260.827 230.38c-.045-.268.291-.581-.112-.805-.112.268-.112.537.112.805zM303.712 212.417c-.56.246-.56.783-.828 1.454.739-.269 1.141-.537 1.119-1.141.022-.09-.224-.313-.29-.313z" class="st12" clip-rule="evenodd" fill="#fff" fill-rule="evenodd"/><path d="M469.436 178.637c-.068 0-.157-.023-.224 0-.023-.067-.067-.157-.09-.224.023-.358.067-.694-.156-1.007-.023-2.237-.47-4.407-1.253-6.51-.201-1.253-.671-2.393-1.298-3.49-.805-2.17-1.767-4.25-2.997-6.219-1.88-3.803-3.982-7.45-7.047-10.447-.29-.29-.895-1.476-1.365-.022-.067.223-.358.156-.559.09-.716-.27-1.476-.135-2.215-.157l-1.051-.47-3.222-2.014c-1.565-1.006-2.863-2.37-4.496-3.266-.269-.223-.515-.447-.783-.67-.694-.918-1.723-1.388-2.64-1.992-.447-.29-.872-.179-1.208.202-.335.402-.962.827-.56 1.364.56.738.65 1.7 1.254 2.394.492.56.917 1.186 1.476 1.678.537.47.269.738-.112 1.051-.38.134-.76.336-1.185.29-1.276-.536-2.573-.894-3.96-1.006-2.752-.716-5.302-2.013-8.031-2.796-2.17-.984-4.452-1.656-6.756-2.237a11.196 11.196 0 0 0-3.266-.962c-4.34-1.454-8.77-2.573-13.244-3.468-3.288-.917-6.622-1.61-10-1.99-2.37-.739-4.81-.806-7.248-.985-1.745-.246-3.49-.358-5.257-.246-1.723-.313-3.49-.224-5.235-.336v-.2h-11.006v.2c-1.163.18-2.35-.044-3.49.269-2.17.045-4.362.112-6.51.537-1.007-.023-2.036.022-3.02.313-2.013.134-4.004.47-5.973.984-1.119.246-2.215.515-3.266.962a5.134 5.134 0 0 0-2.506 1.007c-.559.246-1.118.47-1.745.537-.94.067-1.901-.202-2.818.201-.403 0-.783.023-1.186.023-.917-.135-1.834-.09-2.774.044-1.163.045-2.349-.179-3.49.202-.492.022-1.007.022-1.499.044-1.23-.022-2.46-.044-3.669.09-.223 0-.425 0-.648.09l-1.947.066c-.09.023-.156.045-.246.068.09-.023.157-.045.246-.068-.76-.067-1.498 0-2.237.202-1.52.022-3.064-.112-4.519.492-.402.157-.76.403-1.006.76-1.275 1.186-2.752 1.924-4.52 2.014-2.236.112-4.317.828-6.263 1.857-2.148 1.118-4.228 2.438-6.465 3.378-.492.179-1.03.313-1.5.537-4.115 1.946-8.276 3.825-11.498 7.18-.738.336-1.208.963-1.722 1.544-1.969 1.611-3.982 3.155-5.257 5.436-.157.291-.336.783-.806.314-.537-.537-.805-2.484-.425-3.155.873-1.454 1.745-2.93 2.707-4.34 4.407-6.532 9.799-11.968 17.226-15.033.156-.067.268-.156.246-.313-.806-.671-1.477-.269-2.26.447v-2.64c-1.901 2.55-4.228 4.184-6.689 5.549-8.993 5.01-14.697 13.042-20 21.476-.58.559-.961 1.275-1.252 2.013-3.177 4.832-5.906 9.843-6.6 16.085 1.589-1.41 2.529-2.864 3.267-4.43 1.588-3.333 3.087-6.689 4.63-10.044.403-.604.828-1.208 1.253-1.812.985-.85 1.633-2.058 2.953-2.618-.09 1.164-.179 2.215-.268 3.289-.336.67-.18 1.387-.269 2.08-.738 6.488-1.454 12.998-2.17 19.485-.604 3.378-1.23 6.779-1.834 10.157-.29.559-.47 1.118-.492 1.745-.604 1.834-1.365 3.624-1.745 5.525-.56 1.208-.895 2.506-1.163 3.803a2.635 2.635 0 0 1-.09.448c-.29.827-.514 1.655-.492 2.55-.425 1.051-.537 2.148-.671 3.244-.738 2.975-1.387 5.95-2.64 8.77-.157.357-.134.648.29.782.627.626 1.254.783 1.567-.224.403-1.32.649-2.707.962-4.049.425-1.185.85-2.349 1.275-3.534 1.566-1.007 1.901-2.416 1.275-4.117-.045-.111-.045-.246-.067-.358a3.308 3.308 0 0 1 .425-1.52c.94-1.544 1.163-3.2.895-4.967.38-.358.85-.201 1.297-.201l3.96.134c.134.022.29.022.447.022.739.18 1.343.157 1.365-.85 0-.224.18-.335.403-.358.335.515.649 1.007.984 1.521.224.604.582 1.119.984 1.611 1.074 2.215 2.528 4.206 3.803 6.309.38.648.582 1.297 1.745 1.297 1.454 0 2.886.76 4.363.94 2.528.313 4.295 1.588 5.391 3.848.157.335.358.559.76.492 1.03-.18 2.036-.358 3.043-.604.56-.135.94-.56.962-1.186.022-.962.604-1.476 1.342-1.969 1.835-1.23 3.624-2.505 5.436-3.78.358-.246.85-.403.806-1.164-.917.38-1.835.493-2.774.56-3.222.268-6.398-.134-9.597-.269-.627-.022-1.23-.179-1.745-.604-.604-.492-1.164-1.23-1.052-1.879.135-.693 1.097-.783 1.79-.85.492-.045.984.045 1.476.134 2.26.358 4.385.023 6.331-1.208.18-.067.358-.134.515-.201.828-.157 1.119-.76 1.297-1.477.403-1.588 1.365-2.527 3.043-2.64.626-.044 1.029-.335 1.454-.76 1.857-1.812 3.736-3.624 6.13-4.787 2.818-1.365 5.816-1.186 8.903-1.678-.313.917-.85 1.41-1.253 1.968-.559.761-.313 1.455.627 1.566.649.09 1.32.068 1.99.09.336.112.627.134.896.112.895.112 1.79.246 2.684.358.403.044.85.09.716.604-.313 1.23-.09 2.64-1.432 3.534-.648.425-1.498 1.186-1.185 2.126.268.827.716 1.879 1.588 2.102.783.202.895-.94 1.387-1.409.56-.56 1.096-1.14 1.633-1.722.29-.291.783-.56.828-.895.179-1.477 1.208-1.432 2.237-1.41 1.901.425 3.78.492 5.682.067.805-.179 1.656-.223 2.483-.268 1.32-.067 2.215.56 2.64 1.834.201.582.38 1.186.537 1.79.626 2.506.626 5.1 1.163 7.628.09 1.074.202 2.17.291 3.244-.045.269-.09.56.157.76 1.7 3.043 3.803 5.773 6.442 8.032 2.663 2.64 5.705 4.653 9.307 5.772 1.655.805 3.422 1.252 5.235 1.454 3.355.38 6.599-.336 9.798-1.253.09-.09.179-.157.268-.246a11.003 11.003 0 0 0 4.25-2.26c2.327-1.498 3.983-3.579 5.303-5.973.783-1.051 1.387-2.17 1.745-3.445 1.722-3.355 2.662-6.98 3.646-10.581.873-2.864 1.767-5.75 2.618-8.613.223-.716.425-1.364 1.387-1.14a.17.17 0 0 0 .089.022c.962.268 1.946.536 2.908.783 1.678.179 2.73 1.252 3.58 2.595.2.313.47.559.715.827.47 1.208 1.745 1.902 2.014 3.244 0 .76.022 1.499.022 2.26.112 1.946-.47 3.825-.537 5.749-.313.335-.223.783-.29 1.185-.918 2.081-2.014 4.05-3.468 5.817-2.46 2.304-5.212 4.206-8.165 5.816-2.215 1.208-4.385 2.461-6.6 3.692-1.946.626-3.691 1.79-5.704 2.281-1.522.806-3.222 1.074-4.788 1.745-1.342.269-2.684.537-4.004.806-1.499.156-2.975.313-4.474.47h-5.638c.582.268.806.47 1.141.424 1.253.269 2.506.47 3.758.783 1.812.47 3.423 1.276 4.9 2.774-.783-.044-1.298-.067-1.835-.089-1.14-.425-2.304-.201-3.713-.201.917.984 1.856 1.409 2.886 1.722.648.313 1.297.56 1.968.76.336.046.694.068 1.03.135.447.067.916.201 1.341.336.269.022.537.067.806.067.201.067.38.156.581.179 1.365.156 2.73.223 4.094.268a.963.963 0 0 0 .358 0c2.707.09 5.392 0 8.099-.268 1.543-.023 3.064-.112 4.563-.448 1.074-.022 2.148.023 3.2-.313 1.878-.134 3.757-.246 5.883-.38-.604.648-1.186.738-1.7.917-3.311 1.163-6.801 1.454-10.18 2.26-1.834.178-3.668.357-5.502.492-.716.044-1.432.089-2.17.156a14.075 14.075 0 0 1 3.422 2.975c.202 0 .403 0 .604-.022 2.618-.09 5.235.112 7.83.29 3.714.292 7.45.605 11.163.918 1.477.134 2.998.134 4.452-.313.157-.09.313-.179.492-.246 5.145.268 10.201-.269 15.235-1.298.358-.044.738-.156 1.096-.156.895 0 1.722-.582 2.64-.403-.023.045-.045.09-.09.112-.783 1.432-1.61 2.819-2.326 4.273-.246.492-.47 1.029-.985 1.253-1.767.76-3.243 2.058-4.988 2.818-2.55 1.119-5.123 2.17-7.83 2.886-4.497 1.186-9.083.917-13.646.805-.65-.022-1.32-.268-1.97 0-.066.09-.11.157-.133.202l-.023-.023c-.29-.67-.94-.626-1.498-.715-2.26-.358-4.452-.895-6.622-1.5a11.88 11.88 0 0 1-.448 3.67c2.126.268 4.161.827 6.018 2.08.738.805 1.275 1.745 1.745 2.73.157-.045.268-.045.358-.045a1.148 1.148 0 0 1-.358.044c.268 1.812.492 3.624.604 5.436.268 4.229 2.349 7.07 6.42 8.367.493.313.962.671 1.477.917.895.425.76.806.134 1.432a53.004 53.004 0 0 1-9.306 7.54c-2.93 1.856-5.95 3.467-9.083 4.63.18.805.291 1.633.336 2.483v.268c1.879-.648 3.58-1.744 5.235-2.885 6.13-4.228 12.237-8.501 18.321-12.819 1.208-.85 2.528-1.61 3.468-2.819 1.521-1.185 2.796-2.617 3.758-4.317.806-.806 1.365-1.79 1.924-2.752 2.93-5.1 5.75-10.29 9.284-15.033.201-.112.268-.29.268-.492.112-.246.269-.492.358-.76 1.656-5.66 4.296-10.806 7.875-15.504 1.633-1.588 3.423-2.975 5.212-4.385 1.141-.894 2.26-1.812 3.088-3.02.984-.805 1.23-2.147 2.281-2.908 1.544-1.118 3.177-2.103 4.832-3.042 3.311-1.88 6.801-3.423 9.978-5.57 1.722-1.164 3.4-2.372 4.608-4.094 1.365-2.036 1.208-3.2-.693-4.631-1.589-1.186-3.423-1.79-5.28-2.372a3.164 3.164 0 0 0-.537-.29c-1.52-.694-1.52-.694-.223-1.678a90.24 90.24 0 0 0 8.59-7.405c.76-.738 1.41-1.566 2.327-2.595-.828 0-1.32-.045-1.79 0-.984.09-1.477-.246-1.387-1.32.067-.76.022-1.543.022-2.572-.648.738-1.096 1.252-1.566 1.744-2.393 2.528-5.234 4.184-8.702 4.743-.604.09-.984-.022-1.297-.604a136.56 136.56 0 0 0-3.513-6.04c-.47-.738-.425-1.275.314-1.745.738-.201 1.342-.671 1.968-1.074.962-.492 1.946-.984 2.797-1.655.335-.067.604-.224.827-.47 1.678-.626 3.11-1.7 4.631-2.617 2.953-1.812 5.95-3.58 8.546-5.906.492.335.112.827.268 1.23-.224 2.282-.738 4.497-1.342 6.689-.29.693-.604 1.387-.895 2.058-.336.604-.671 1.23-1.007 1.834-.134.247-.425.47-.09.761.247.224.538.157.829.045.313-.112.604-.269.76-.582 1.074-.85 1.342-2.103 1.723-3.31.917-1.79 1.387-3.714 1.521-5.705.336-.985.38-2.014.425-3.043.022-.156.067-.335.09-.492h.111l.112-.022v-5.011zm-51.431 84.718c-1.924 3.78-4.005 7.472-6.532 10.872-.425.56-.94 1.074-.985 1.835 0 .022.023.044.023.09-1.164.58-2.059 1.43-2.573 2.639-.045 0-.09-.022-.134-.022-.515.134-.873.47-1.253.783-1.119.894-2.304 1.588-3.669 2.058-1.387.47-2.73.067-4.071.156a.323.323 0 0 1-.045.157c-.022-.045-.022-.067-.045-.112-.045-.492-.425-.716-.783-.895-2.036-1.14-2.886-2.997-3.199-5.212-.246-1.723-.514-3.445-.738-5.19-.045-.425-.067-.873-.515-1.096.023-.023.023-.045.045-.067.112-.291.112-.537-.134-.761-.112-.067-.18-.112-.224-.179v-.313c.067-.112.18-.224.246-.336.269-.358.627-.492 1.074-.537 1.902-.223 3.803-.29 5.705-.492 5.95-.604 11.767-1.678 17.203-4.295.29-.134.604-.313.94-.157 0 .425-.18.76-.336 1.074zm-19.552-106.194s0-.023 0 0c.022-.023.022 0 .022 0h-.022c.246.111.492.044.738-.068 4.161-.089 8.344-.178 12.505-.246.246 0 .515-.022.76-.022 1.008 0 1.992-.022 2.999-.022.984 0 1.968.022 2.975.022 2.103.022 4.183.022 6.286.045.157 0 .336.022.492.022.403.18.806.269 1.23.18 1.656.178 3.312.357 4.967.558.134.314.38.425.716.403.112-.022.201-.067.313-.09 1.342.314 2.707.627 4.05.94.022.067.044.112.044.18.313.514.738.67 1.32.447.067-.045.09-.112.112-.18.514.269 1.051.515 1.633.582.693.313 1.41.627 2.103.917.425.403.827.828 1.498.761 1.902 1.096 3.781 2.215 5.683 3.31.783.806-.336 1.142-.425 1.723-1.23-.805-2.416-1.655-3.915-1.968-.582-.112-1.253.156-1.768-.336-1.275-.313-2.55-.648-3.825-.962a.674.674 0 0 0-.313-.09c-.984-.268-1.969-.558-2.953-.827-.492-.09-.94-.403-1.477-.313-2.349-.805-4.765-1.342-7.248-1.477-.805-.335-1.633-.313-2.483-.2a.24.24 0 0 0-.246-.023c-1.924-.358-3.87-.313-5.794-.224a53.314 53.314 0 0 0-5.973.224c-.09 0-.18.022-.269.022-.402 0-.827 0-1.23.022-.85-.067-1.722-.111-2.55.18-1.32 0-2.662-.09-3.96.29-2.841 0-5.682.291-8.5.716-1.611 0-3.222.157-4.81.492-1.343.023-2.663.134-3.938.492-1.006-.044-1.99.135-2.997.314-1.365.2-2.73.38-4.094.581-.224 0-.47.023-.694.09-.984.067-1.968.179-2.93.425a2.336 2.336 0 0 0-.38.09h-.023c-3.758.402-7.472 1.163-11.163 1.923-3.535.738-7.092 1.32-10.492 2.573-2.528.67-5.078 1.32-7.606 1.99-.045-.022-.067-.066-.112-.089-.962-.402-1.88.023-2.796.135-.918.111-1.723.044-2.416-.627l-.202-.201c.09-.112.246-.157.448-.224.827-.224 1.633-.514 2.438-.76a85.74 85.74 0 0 0 9.731-2.976c2.484-.581 4.855-1.432 7.293-2.215.627 0 1.186-.156 1.723-.47 3.333-.76 6.666-1.543 10-2.304 1.7-.178 3.4-.425 5.033-.94 1.745-.268 3.49-.558 5.212-.827.85-.022 1.7-.134 2.506-.447.94.067 1.834-.112 2.752-.313.425.044.872.044 1.252-.202zm-52.393-10.873c1.387-.648 2.886-.648 4.34-.962 1.074-.044 2.148-.044 3.222-.134.76-.067.961.246.783.94-.336.94-.56 1.924-1.544 2.46-.895.112-1.812 0-2.685.269-.67-.157-1.342-.022-1.99.067-.605 0-1.209-.179-1.768.112h-.358c-1.051-.962-2.371-.201-3.534-.537.492-.29 1.051-.537 1.566-.85.693-.425 1.61-.47 2.035-1.275-.044-.045-.067-.067-.067-.09zm30.782-3.982h.09c.201 0 .403-.09.626-.179.045-.022.09-.022.112-.044.224-.067.448-.09.694.067 3.4.044 6.711-.671 10.089-1.03.201-.066.38-.134.537-.223 1.007.313 2.013.649 2.953-.268v.022c1.342.537 2.796.38 4.362.671a14.523 14.523 0 0 1-2.304 1.521c-.447.246-1.03.38-1.163 1.007v.022c-.47.358-1.03.425-1.566.604-.112-.022-.224-.045-.358-.045a.745.745 0 0 0-.425.358l-.067.067c-3.602.918-7.226 1.432-10.962 1.276-.694-.112-1.41-.157-2.103-.314-1.521-.38-3.11-.626-4.25-1.901-.47-.537-.627-.873.358-1.119 1.096-.268 2.259-.268 3.378-.492zm-14.183-5.86c.85.066 1.723.089 2.55-.09.157.358.56.38.873.38 2.08.022 4.183.179 6.264-.09a1.44 1.44 0 0 0 .268-.335l.045.045c.604.648 1.41.246 2.125.402.493.112 1.052.135 1.253.671.201.56-.358.761-.671 1.074-.09.09-.201.157-.29.246a1.781 1.781 0 0 0-.426.358l-3.221.873c-.582.067-1.164.156-1.745.223h-1.79c-.85 0-1.655-.38-2.505-.246l-6.466-1.342c-.179-.201-.402-.201-.648-.224 1.208-1.252 2.55-2.102 4.384-1.946zm-22.035 5.905c.29-.067.515-.224.649-.47.246.09.447-.022.604-.246.067.045.112.112.179.157 1.163.067 2.26-.112 3.154-.962v-.224s.022 0 .022.022c.739-.044 1.477-.111 2.215-.156.224.156.448.29.671.403 1.812.044 3.647.313 5.436-.18.09-.089.18-.246.112-.313l-.045-.044c.023 0 .045.022.09.022 2.237.09 4.474.112 6.734-.022.447.022.894.067 1.364.09 2.685.089 1.969-.359 2.618 2.326 0 .044 0 .09.022.112.134.536-.045.76-.626.715-.783-.044-1.566-.044-2.35-.044l-.044.067c.022-.023.045-.045.045-.067-1.656-.224-3.334-.18-5.011-.18h-1.79c-3.736-.402-7.494-.29-11.23-.47-.448-.021-.895-.044-1.343-.066a2.365 2.365 0 0 1-.268-.224c-.313-.268-.693-.313-1.074-.268-.067 0-.112 0-.179.022l-.022-.022c.022.022.045.022.067.022zM328.7 160.024c.157.022.336.045.537.067.76-.022 1.32-.47 1.88-.895 1.99-1.521 3.758-3.288 5.57-5.01 1.006-.963 2.08-1.544 3.557-1.5 1.834.067 3.669.157 5.458-.358a1.29 1.29 0 0 0 .313-.111c.135.067.247.179.202.425-.604 1.61-1.857 2.572-3.311 3.333-.29.156-.537.38-.783.581-1.41.47-2.394 1.566-3.49 2.484-.157 0-.313.022-.47.044-.447-.2-.895-.156-1.342.023-1.7.693-3.467 1.163-5.212 1.745-.157.067-.291.201-.448.223a7.748 7.748 0 0 0-1.007.135c-.782.044-1.543-.023-2.102-.985.268-.09.47-.156.648-.201zm-37.135-1.566c2.528-1.901 5.078-3.736 7.18-6.13.336-.38.985-.67.694-1.387.023 0 .023.023.045.023.649-.112 1.342-.112 1.745-.76 0-.023-.022-.046-.022-.068l.111.022.09-.067c.045-.022.09-.067.157-.09 0 .068.022.157.044.292.47.111.918-.023 1.32-.246 1.7-.895 3.557-1.387 5.257-2.305 3.02-1.61 6.287-2.416 9.665-2.818.984-.112 1.968-.403 2.975-.067.067.022.134.022.201.044.134.671.224 1.343.448 1.969.268.783-.067 1.029-.716 1.186-.985.246-1.991.47-2.908.984-1.365.29-2.595.94-3.87 1.454-.023 0-.023-.022-.045-.045-.604-.268-1.141 0-1.678.246-8.322 3.96-16.309 8.546-23.803 13.937-.962.694-1.99 1.365-2.55 2.528-.336.716-.873.649-1.432.202-.223-.224-.201-.537-.313-.783.067-.515.29-.985.649-1.432.716-.873 1.387-1.79 2.08-2.685.806.157 1.208-.47 1.611-.984.895-1.096 1.901-2.148 3.065-3.02zm7.65 26.644c.582.581.47.827-.29 1.006-.604.135-1.186.358-1.79.537-.984.067-1.99.314-2.975-.09-1.275-1.61-1.298-3.6-1.7-5.726 2.527 1.342 4.899 2.394 6.756 4.273zm-3.601-7.114c.38-.671.805-1.32 1.387-2.26.514 1.678 1.543 2.998.246 4.452-.134.157-.201.38-.447.336-.448-.09-1.41-2.148-1.186-2.528zm3.96-12.215a150.262 150.262 0 0 1-8.949 8.322c-.716.627-1.588 1.096-2.013 2.014-.045.09-.067.201-.09.29-.604.627-1.297 1.141-1.99 1.656l-.023-.022c-.56-.135-.358-.694-.604-1.007h-.022c.111-1.186.805-2.17 1.006-3.311.425-.693.85-1.365 1.275-2.058a.755.755 0 0 0 .269-.134c1.051-.962 1.678-2.26 2.617-3.311 3.893-4.363 8.814-7.159 14.094-9.396.313-.134.626-.403 1.096-.224-1.924 2.662-4.362 4.877-6.666 7.181zm-25.436 12.506c-.022 0-.022 0-.045-.023-.895.291-1.297 1.03-1.722 1.745.022-.067.044-.134.044-.201.56-2.774 1.365-5.481 2.08-8.21.135-.515.336-1.052.046-1.566.536-.38.604-1.007.648-1.61.067-.65.202-1.231.739-1.634a37.085 37.085 0 0 0 3.49-2.975c1.275-1.23 2.93-2.036 3.937-3.557v-.09c.872-.022 1.431-.47 1.722-1.275.582 0 .985-.358 1.432-.626.895-.56 1.655-1.298 2.752-1.835-.783 1.03-1.455 1.924-2.193 2.752-.447.492-.94.94-.984 1.655v.112c-.805.873-1.588 1.745-2.394 2.64-.045-.022-.067-.022-.112-.045-1.677.962-2.326 2.55-2.64 4.34.045.067.045.157.09.224-.626 1.23-.895 2.64-1.7 3.78-1.902 1.97-3.266 4.408-5.19 6.399zm11.901 22.527c-.716 1.074-.984 1.074-1.834.045-4.027-4.743-5.794-10.112-4.497-16.33.403-1.947.582-3.938.917-6.265 2.909 4.474 5.37 8.747 6.913 13.49 1.029 3.221.38 6.264-1.499 9.06zm1.253-14.698c-.917-2.035-.694-3.668.94-5.167.67-.604 1.252-1.298 2.058-2.17.425 2.349.805 4.452 1.163 6.554.179.985.268 2.059 1.655 2.081 1.387.671 2.797 1.297 4.296 1.7.94.358 1.118.85.514 1.745-1.208 1.79-2.192 3.736-3.49 5.459-.693.917-1.767 1.588-2.505 2.55-.515.693-1.141 1.297-1.074 2.304-1.007-.425-1.23-1.163-1.208-2.058.045-1.834.246-3.669.112-5.48-.157-2.663-1.387-5.101-2.461-7.518zm6.264 23.31c-.85.09-1.633.829-2.595.202-.358-.246-.783.134-1.343.269.224-1.633.918-3.043 1.455-4.474.2-.56.536-.18.76.022.783.716 1.678 1.007 2.864.649-.112.536-.112.917-.269 1.185-.402.694.76 1.991-.872 2.148zm9.776-5.793c-1.096-.269-.895-1.656-1.163-2.595-.18-.671.357-.94.715-.917 1.455.022 1.566 1.006 1.633 1.745.09.827-.581 1.923-1.185 1.767zm5.906-5.19c-.56.402-1.521.268-2.282.402-.805.135-1.61.314-2.64.537.671-1.677.85-3.445 2.752-4.183.76-.29 1.499-.671 2.237-1.029.358.626-.067 1.32.112 1.969-.313.783.514 1.79-.18 2.304zm-2.707-7.383a27.751 27.751 0 0 0-5.682 4.005c.044.067.09.156.179.179 1.79.559 1.767.559.894 2.371-.67 1.387-1.387 2.73-2.595 3.736-.67.56-1.409.984-2.259.671-.783-.313-.85-1.163-.917-1.901-.067-1.097-.045-2.014 1.074-2.774 1.006-.672 1.856-1.589 2.93-2.215-.403-.425-.94-.29-1.41-.246-.76.067-1.028-.067-.626-.873 3.065-6.196 8.21-9.753 14.698-11.61.067-.022.157.045.313.067-1.678 3.289-3.02 6.689-6.6 8.59zm3.423-25.167c-.985.448-1.723.313-2.573 0-.224-.09-.537-.112-.604-.38-.067-.29.224-.425.425-.537 1.23-.716 2.327-1.633 3.512-2.394 1.656-1.074 3.445-1.61 5.414-1.61 1.588 0 3.154 0 4.743.022.492 0 .984.022 1.476-.022.246-.023.425-.045.604-.09.224.045.336.134.134.448-.38.134-.716.335-1.006.604-.112-.023-.202-.045-.314-.045-1.073.268-1.856 1.074-2.774 1.633-.894.537-1.744 1.096-2.885 1.051-2.148-.112-4.229.448-6.152 1.32zm9.73 18.389c-1.118.268-2.214.56-3.377.694-.067-.38.157-.537.313-.716 2.953-3.893 7.226-5.168 11.767-5.75 2.797-.358 5.593-.783 8.434-.917l.201-.134c.806.582 1.768.604 2.707.783.515.09 1.052.09 1.521.783-1.364 0-2.527.179-3.713.358-.828.112-1.767.09-2.282.94-.067-.045-.112-.068-.179-.112-.783-.18-1.476.156-2.148.47-1.297.581-2.617 1.096-4.004 1.386-3.11.65-6.152 1.477-9.24 2.215zm13.87 11.79c-.491 1.52-1.453 2.706-2.594 3.78-.022-.022-.045-.022-.067-.022-.985.224-1.768.671-1.924 1.79v.044c-1.186.627-2.327.492-3.512-.179-.783-.447-1.678-.716-2.528-1.051-.425-.157-.85-.425-1.275-.022v.022c-.537-1.119-.47-1.163.827-1.946.492-.291 1.007-.582 1.477-.895.716-.47 1.678-.56 2.125-1.41v-.067c2.192-.827 4.452-1.051 6.778-1.006.761 0 .94.268.694.962zm12.104.335c-.694 0-1.365.179-2.014.425-1.275.18-2.528.358-3.803.515-.045-.023-.09-.023-.112 0-.268-.09-.47.022-.67.156a.523.523 0 0 0-.158.157c-.178 0-.357 0-.559-.023a.591.591 0 0 0-.112-.134c-.715-.335-.962-1.253-1.812-1.387-.29-.805-.917-1.32-1.566-1.812-1.566-1.163-3.378-1.834-5.145-2.595.157-.402.515-.693.783-1.006.022-.023.022-.045.022-.045 2.774-.783 5.548-1.566 8.166-2.73 1.745-.581 3.512-1.185 5.257-1.767a90.85 90.85 0 0 1 8.478-1.499l3.267-.044c1.32.067 2.662-.045 3.982.268.783.38 1.543.805 2.326 1.163.783.358.917.873.76 1.7-.335 1.813-1.32 2.998-2.997 3.67-1.387.536-2.819.984-4.094 1.722-2.282.604-4.384 1.61-6.51 2.595l-3.49.671zm21.677 12.036c-.09.738-.022 1.61-.873 1.901-1.252.425-2.55 1.096-3.847.18v-.158c.044-.335.022-.67-.157-.961-.738-1.141-.76-2.417-.872-3.692.223.067.447.067.67.067 1.365 0 2.708 0 4.072.224.403.067.828.022 1.208-.201a.38.38 0 0 0 .134-.134c0 .067.023.111.068.134-.672.783-.291 1.745-.403 2.64zm-20.044-.224a.793.793 0 0 1 .2-.09c.225.067.47.112.784.112.962-.022 1.901.023 2.841-.067.604-.067.917.224 1.051.783.112.537.18 1.051.202 1.588.022.314-.09.537-.38.716-1.164.671-2.775.269-3.468-.895-.425-.693-.671-1.52-1.23-2.147zm3.154 16.621a.359.359 0 0 0-.022-.335c-.672-1.052-1.208-2.148-1.544-3.356-.09-.335-.313-.559-.649-.693h-.022c-.067-1.656.403-3.2.962-4.743a.762.762 0 0 0 0-.447c.045 0 .112.022.156.022 1.656-.313 1.678-.29 1.723 1.476.022.873-.224 1.79.201 2.618-.022.09-.044.201-.067.29-.223 1.477.47 2.551 1.454 3.535.828.828 1.589 1.7 1.969 3.02-1.588-.246-2.841-.94-4.161-1.387zm20.067 1.835c-.314.47-.85.604-1.41.671-.984.112-1.99-.09-2.953.179-.022.022-.022.022-.022.045-.067-.112-.157-.202-.29-.18.2-.648.872-.738 1.364-1.05.492-.314 1.252-.359 1.23-1.164.358-.268.895-.224 1.208-.582.022.045.045.09.067.157 1.365-.246 2.64-.671 3.222-2.058.223-.492.604-.291.894-.47h.09c-.067.537.112 1.007.335 1.454-1.32.873-2.818 1.588-3.735 2.998zm7.404-20.29c-1.185-.09-1.61.559-1.588 1.655.246 2.304.917 4.608-.134 6.89.022.112.067.201.09.29-1.433 1.03-2.305 2.484-2.775 4.14-.335 1.208-1.074 1.901-2.237 2.237-1.007.268-1.946.716-2.64 1.543-.805.202-1.52.582-2.237.962-.738.067-1.431.336-2.17.336a3.246 3.246 0 0 0-.492-.269c-2.058-.223-4.094-.425-6.062-1.096-.157-.045-.336-.09-.492-.045-1.209-.984-2.059-2.237-2.64-3.69l-.045-.046c.246-.357.067-.783.045-1.163-.067-.917.358-1.208 1.208-1.074.402.067.805.224 1.185.314.672.156 1.276.648 2.014.335v-.045c1.23.403 2.438.739 3.445 1.678.738.694 1.834.604 2.796.09 1.7-.336 3.2-1.119 4.497-2.282 2.26-1.03 3.646-2.707 4.027-5.19.29-.403.246-.85.223-1.298.246-1.32.246-2.774 1.768-3.445.156-.022.313-.045.47-.045.044-.067.066-.134.089-.2.872-.515.604-1.567 1.007-2.305.715.179 1.252.872 2.08.783-.447.358-.671.984-1.432.94zm10.895-20.515c-1.096 1.857-2.058 3.803-3.154 5.66a1.388 1.388 0 0 1-.515.313c-.56.023-1.096.023-1.655.045h-.045c-1.365.045-2.73.045-4.094-.067-1.61-.134-3.221-.224-4.854-.336-.18-.179-.425-.313-.783-.425a2.803 2.803 0 0 0-1.208-.268c-1.991.022-3.96-.134-5.929-.246-.67-.045-1.387-.157-2.035.112.156-1.186.447-2.372.604-3.557.089-.694.2-1.387-.202-2.036l-.134-.134c.224-.537 0-1.007-.38-1.454.022-.045.022-.09.044-.112.023.067.067.112.09.179 1.297-.38 2.595-.76 3.982-.537 1.23.201 2.46.335 3.713.246.426-.045.918.022 1.276-.201 1.297.067 2.595 0 3.87.268.067.09.134.179.223.269.47.313 1.007.357 1.544.402 2.975.291 5.928.604 8.904.76 1.006.046 1.208.314.738 1.12zm-.134-9.015c-.56-.269-1.164-.246-1.745-.201-.738-.269-1.5-.314-2.26-.269-1.32-.313-2.662-.403-3.982-.492-2.393-.403-4.832-.604-7.248-.76-.246 0-.492-.023-.76-.023-1.745-.29-3.513-.29-5.28-.201-3.825-.291-7.382 1.208-11.118 1.566-.291 0-.582.022-.85.067-1.007.067-2.014-.023-2.998.268-.94-.246-2.036.448-2.886-.268-1.41-1.208-3.132-.985-4.765-1.23-.917-.314-1.88-.359-2.841-.403-.604-.135-1.208-.246-1.902-.403.783-.649 1.7-.693 2.394-1.163v-.023c.045.068.09.135.112.202 1.633.201 3.042-.56 4.474-1.119.18-.067.269-.29.336-.492v-.022l7.583-2.014c.403-.067.828-.09 1.23-.179 3.692-.76 7.406-1.543 11.097-2.282 3.221-.626 6.443-1.208 9.664-1.812 3.288-.335 6.555-.917 9.82-1.454 1.925-.09 3.826-.358 5.728-.716a30.882 30.882 0 0 0 4.541-.425c.246 0 .515-.022.76-.111 1.835.044 3.625-.202 5.46-.336 3.22-.045 6.442-.09 9.663.09a19.699 19.699 0 0 1 5.28 2.259c.268.157.872.94 1.23-.045.224-.56.515-1.118.649-1.722.224-.94.694-1.365 1.723-1.253.805.09 1.633-.022 2.46-.045.895.224 1.812.269 2.73.224 2.192.447 4.384.805 6.51 1.543 1.744.65 3.4 1.5 4.966 2.506.537.47.537.984.425 1.678-.492 2.819-1.946 5.056-3.87 7.069-1.812 1.566-3.915 2.662-6.018 3.714-.738.268-1.476.514-2.215.783-.917.223-1.857.447-2.774.67-1.096.09-2.17.27-3.221.582-.917-.022-1.857-.044-2.752.202-2.64.09-5.28-.135-7.919-.269-.336-.246-.716-.201-1.074-.179l-.425-.067c-.649-.179-1.297-.335-2.103-.56.448-.29.739-.491 1.052-.693 2.08-.917 4.228-1.722 6.264-2.751 1.879-.94 3.825-1.835 5.257-3.468.246-.246.514-.492.76-.738 1.298-1.566 1.544-3.221.492-5.011-.179-.313-.335-.671-.581-.94-.246-.29-.403-.156-.448.18-.402 1.968-1.029 3.847-2.281 5.458-.068.09-.157.179-.224.268-1.924 2.17-4.295 3.602-7.07 4.295-1.386.358-2.796.627-4.205.94l-.94.067c-3.49-.022-6.98-.067-10.447-.09-1.007-.313-2.036-.2-3.042-.2-.895-.247-1.656-.18-2.416-.202zm33.22 27.538s0 .023 0 0c1.7 1.365 3.557 2.372 5.526 3.267.268.29.604.402.984.447 1.991.85 3.938 1.79 6.063 2.282 1.968.76 4.094.962 6.107 1.499.09.537.582.716.984.872.85.336.918.783.336 1.41l-.94.268c-.85.246-1.7.492-2.55.76l-3.221.739c-2.08.156-4.161.29-6.242.447-.85-.223-1.588-.716-2.304-1.23-1.633-1.163-3.11-2.506-4.586-3.848-2.394-2.17-4.608-4.564-7.136-6.6-.09-.089-.157-.2-.246-.29-.157-.649-.604-.94-1.253-.962l-.336-.269c-1.096-1.23-2.55-1.968-3.915-2.796 0-.09 0-.179-.022-.268-.09-.493-.179-.962-.134-1.454.201-1.566.447-1.768 1.99-1.544.247.022.493.022.694-.157v-.044l.85.536c.269.358.582.604 1.007.761 2.707 2.192 5.324 4.452 8.344 6.174 0 .023 0 0 0 0zm9.128-5.816c.872 1.969.223 3.2-1.857 3.49-.29.045-.582.067-.805.246 0 .022-.023.022-.023.045-.29-.246-.581-.224-.872 0-.224-.425-.694-.56-1.119-.694-.581-.179-1.208-.313-1.812-.47-.402-.111-.738-.313-.537-.783.739-1.812 1.387-3.713 3.736-4.071.112-.045.202-.045.313-.067.828.335 1.79.335 2.506.94.045-.023.09-.023.134-.023-.335.56.157.962.336 1.387zm-3.87 23.087c-.067-2.573-.045-2.528 2.505-3.02 2.506-.492 5.078-.694 7.517-1.477 1.946-.179 3.848-.56 5.749-.984.067 0 .134-.022.179-.022.022.044.045.089.09.134.492.29 1.029.156 1.498.156-.783.358-1.409.918-1.79 1.7-.022.068-.044.157-.066.224-.985.671-1.947 1.365-2.931 2.036-.425.179-.828.358-1.253.537-3.333 1.499-6.666 2.998-9.977 4.496-.47-.111-.94-.223-1.432-.313-.022-.29-.224-.425-.447-.559.559-.917.38-1.924.358-2.908zm-19.933-5.638h.067c.671-.067 1.342-.156 1.745-.783 0 0 0-.022.022-.022.493.268.962.604 1.544.693v.157c.313.56.895.716 1.41.917 1.79.671 3.512 1.432 5.167 2.394 1.88 1.074 2.819 2.528 2.707 4.743-.045 1.029.045 2.125.76 3.02-.044.067-.111.134-.134.223v.068c-.402.134-.827.022-1.23-.068-.671-.134-1.342-.425-2.036-.425-.134-.067-.268-.112-.402-.179a.564.564 0 0 0-.448.135c-.179-.38-.85-.045-.94-.828-.447-4.295-2.684-7.07-6.487-7.696-.47-.201-.872-.67-1.476-.47.313-.715.178-1.342-.269-1.879zm-9.396-20.939h-.156c-.783-.716-2.08-1.051-3.11-.76-1.208-.985-2.617-1.432-4.116-1.656.067-.112.112-.224.022-.29-1.073-.985-.94-1.97 0-2.954.067-.067.09-.201.09-.313 1.029-.358 2.036-.805 3.132-.984 2.393-.246 4.675.335 6.98.805-.045.045-.068.067-.045.112 1.252.94 2.684 1.41 4.183 1.745.045-.067.112-.09.157-.157 1.029.582 2.08 1.141 3.064 1.768 1.768 1.14 1.768 1.163.023 2.237-.134.09-.246.179-.38.268-.09 0-.157 0-.247-.022-.447.067-.805.29-.962.693-.313.806-.917 1.23-1.722 1.454-.269.09-.537.224-.694.493-.022.044-.022.111-.044.179-.806.179-1.589.492-2.439.425v-.045c-.626-1.812-2.08-2.506-3.736-2.998zm-18.075 45.816c-.38.044-.783.09-1.119.335a2.344 2.344 0 0 0-.38-.09c-1.163-.133-2.327-.29-3.512-.357.09-.022.179-.067.29-.112 2.64-1.163 5.28-2.349 7.853-3.691.425-.224.805-.492.894-1.007.582.269 1.052-.112 1.544-.358 2.125-1.051 4.139-2.304 6.13-3.58 3.11-2.013 6.174-4.07 8.814-6.688.358-.358.984-.671.693-1.387.045 0 .112.022.18 0 .67-.268.782-.917.984-1.477.604-1.61.626-3.4 1.431-4.966 1.119.134 2.215.269 3.334.425.514.246 1.006.492 1.52.738 1.164 1.052 2.506 1.88 3.535 3.065 1.566 1.79 1.835 3.602.873 5.459-.47.917-1.253 1.61-1.857 2.438.313-.022.47.022.515.09-.157 0-.336-.023-.515-.09-2.819 2.371-6.085 4.005-9.306 5.705-3.826 1.61-7.606 3.333-11.655 4.407-1.768.47-3.49 1.096-5.347 1.163a2.318 2.318 0 0 0-.626-.29c-1.41.022-2.842.156-4.273.268zm13.333 3.042c-.94.09-2.014.022-2.752.828-1.007-.649-1.7-.604-2.662.179l-.022.022a.793.793 0 0 0-.09-.201c-.76-.269-1.521-.515-2.282-.112-.044-.045-.067-.09-.134-.157-.492-.313-1.074-.335-1.543-.402.604-.358 1.476-.313 1.946-1.096v-.157c3.176-1.052 6.42-1.79 9.62-2.707 2.773-.783 5.525-1.655 7.986-3.266 3.064-1.23 5.906-2.864 8.433-4.944 2.036-1.655 4.161-2.55 6.779-1.767.246 1.588-.649 2.729-1.633 3.758-2.752 2.93-6.175 4.854-9.866 6.309-.201-.045-.38-.09-.604-.068-.917.112-1.745.56-2.595.873-3.4 1.297-6.868 2.55-10.581 2.908zm58.455-26.442c0-.023-.023-.045-.023-.09.739-.447 1.634-.29 2.417-.559.67-.045 1.342-.067 1.99-.112l.157.157c.269.223.604.268.917.29.694.09 1.41.135 2.058.38.918.359.224 1.276.515 1.858a.17.17 0 0 1-.09.044c-.581.515-.738 1.365-1.476 1.835-3.221 2.058-6.51 4.049-9.933 5.772-3.243 1.633-6.353 3.445-9.306 5.547-.335.247-.671.493-.738.962.022.023.045.023.09.045-.493-.134-.828.202-1.186.47-2.014 1.61-3.759 3.512-5.593 5.324-.246.246-.649.492-.47.94-.156-.023-.29.045-.402.156-1.88 1.969-3.692 4.027-5.638 5.929-.358.335-.671.738-.76 1.252 0 .023.022.023.022.045-2.014 1.521-4.363 2.35-6.69 3.177-3.78.716-7.605.716-11.43.716-.291-.515-.806-.56-1.298-.537-2.08.067-4.005-.671-5.95-1.23-.448-.135-.963-.224-1.254-.716.202-.425.604-.425.94-.537 1.969-.671 3.893-1.432 5.816-2.215a22.596 22.596 0 0 0 4.765-2.662c.023-.09.045-.157.068-.246 2.37-1.007 4.54-2.282 6.42-4.072.872-.425 1.521-1.14 2.26-1.767 2.214-1.566 4.317-3.31 6.42-5.033.76-.582 1.521-1.164 2.26-1.745 3.064-2.08 6.084-4.206 9.194-6.22 2.035-1.342 4.183-2.55 6.264-3.803.626 0 1.073-.402 1.61-.648.067.044.112.067.18.112.514.134.984-.023 1.453-.224 1.79-.76 3.602-1.477 5.481-1.991.403-.09.76-.202.94-.604zm-2.193-13.378c1.365 2.863 1.41 2.841-1.655 3.915-.76.268-1.655.29-2.148 1.051-3.378.895-6.733.56-10.089-.223-1.857-.448-3.602-1.208-5.28-2.103-1.968-1.052-2.013-1.119-.223-2.372 1.834-1.275 3.803-2.438 4.004-5.01l.537-1.209c.336-.738.806-1.252 1.7-1.096 1.074.112 2.148.202 3.222.313l.067.135c.626.581 1.454.626 2.215.738 3.646.514 6.084 2.55 7.65 5.861zm4.452-16.912c-.223.156-.447.38-.604.626-.76 1.074-1.879 1.902-2.214 3.244-.224.067-.403.223-.56.358-1.275 1.14-2.617 2.192-4.273 2.751-.044.023-.089.067-.111.09h-.448c-2.46.358-4.944.447-7.45.313-.245.09-.514.157-.715.29l-1.633-.066c-.492-.313-1.052-.112-1.566-.246-1.03-.224-2.036-.47-3.043-.694-2.818-1.051-5.66-2.08-8.232-3.713-.582-.448-1.163-.895-1.723-1.343-1.431-1.252-2.863-2.528-4.496-3.534-.18-.448-.806-.604-.76-1.186.737-.268 1.498-.537 2.236-.805l4.497-1.007c.604-.134 1.23-.09 1.767-.447a7.922 7.922 0 0 0 2.752-.783 6.914 6.914 0 0 0 2.751-1.208 21.559 21.559 0 0 0 4.296-2.461c.67-.18 1.23-.56 1.7-1.052l.268-.2c1.745-.94 3.468-1.97 3.445-4.251 0-1.119.313-1.991 1.096-2.752a13.247 13.247 0 0 0 1.455-1.7c.536-.76 1.163-.985 2.013-.627l3.758 2.014c1.096.738 2.215 1.476 3.311 2.237 0 .067 0 .134.022.201.135.403.425.716.739.985 2.393 2.125 3.69 4.81 3.96 7.964.156 2.64.223 5.234-2.238 7.002zm12.036-8.054l-.045.045c-.246.335-.358.76-.47 1.14-.962 3.02-2.774 5.258-5.86 6.354-1.209.425-1.813.022-1.79-1.253 0-.47.357-.716.626-1.029 1.007-1.275 2.013-2.572 1.946-4.34 0-.156-.045-.29-.067-.447.067-.582-.201-1.163-.29-1.745-.47-.805-.806-1.633-.918-2.55-.157-1.298-.694-2.483-1.387-3.58.022-.044.022-.067.045-.112a4.084 4.084 0 0 0-1.253-2.55c-.067 0-.112 0-.179-.022-.447-1.41-.425-1.387 1.051-1.096.515.111 1.052.134 1.566.201.582.201 1.03-.201 1.522-.38.2-.09.38-.269.358-.47-.023-.336-.314-.358-.56-.29-.514.133-.402-.225-.402-.493 0-.269.179-.582-.135-.805-1.32-.023-2.416-.582-3.333-1.522h-.045c.023-.313-.223-.514-.38-.738.336-.29.694-.56 1.186-.582.246 0 .537-.044.626-.29.828.537 2.08.067 2.707 1.073.022 0 .045.023.067.023-.358.693.38 1.521-.29 2.17.447 1.096 2.147 2.214 3.444 2.26.157.58.448.648.828.38 0 .335.112.67.313.984.358.358.448.917.985 1.14-.067.023-.135.023-.202.068a.902.902 0 0 0-.268.805c.201 1.924.29 3.87.783 5.772.045.09.112.134.179.179-.604.492-.739 1.074-.358 1.7z" class="st12" clip-rule="evenodd" fill="#fff" fill-rule="evenodd"/><path d="M364.83 244.116c-.023-.045-.045-.045-.068-.09.023-.022.067-.022.09-.044 0 .067 0 .09-.023.134zM373.934 240.783v-.023l.023.023zM434.515 154.208c.022.067.067.111.09.179h-.158c.023-.068.045-.135.068-.18zM425.947 154.52v.113h-.202a.906.906 0 0 1 .202-.112zM422.748 145.617c0 .09 0 .18.022.269-.022-.09-.022-.202-.045-.291l.022.022zM421.204 148.593c-.022 0-.022.022-.045.022v-.045c.023 0 .045.022.045.022zM408.43 152.865v.023zM404.538 145.55v.067h-.112c.045-.022.067-.045.112-.067zM402.882 146.333l.045.045c-.022 0-.067 0-.112-.023.022 0 .045-.022.067-.022zM399.683 147.384c-.022 0-.022.023-.045.023v-.067l.045.044zM448.541 166.735l-.09-.09c.023.046.068.068.09.09zM413.285 162.53c-.023 0-.023 0-.045-.023.022 0 .022 0 .045.023zM380.422 154.118c.022.022.045.045.09.067-.023 0-.045 0-.068.023 0-.045-.022-.068-.022-.09zM354.427 137.877c0-.045.022-.067.022-.09 0 .023 0 .067.023.09h-.045zM339.93 168.346h-.022v-.022zM325.434 157.54h-.067v-.021c.022.022.045.022.067.022zM296.8 208.591l.022-.022v.022zM357.626 176.623h.045v.023c-.023 0-.045 0-.045-.023zM369.08 205.504H369.282a.31.31 0 0 0-.202 0zM376.417 198.882h.045s-.022.023-.045 0c.023.023 0 .023 0 0zM380.914 225.459v-.067l.067.067h-.067zM422.032 259.91a52.52 52.52 0 0 0-.068-.067c.112.022.202.045.269.067zM315.927 201.298c.044-.38-.246-.447-.537-.447-.358 0-.492.224-.515.537-.022.268.023.492.38.492.247-.112.605-.201.672-.582z" class="st12" clip-rule="evenodd" fill="#fff" fill-rule="evenodd"/><path d="M95.596 275.592c.492.045 1.051.045 1.544.045 1.431 0 2.572-.537 2.572-2.73v-21.811h4.497v21.476c0 5.727-3.065 7.18-6.443 7.18-.805 0-1.432 0-2.17-.089zM106.916 257.941c0-4.563 2.416-7.18 6.823-7.18s6.823 2.617 6.823 7.18v14.877c0 4.564-2.416 7.181-6.823 7.181s-6.823-2.617-6.823-7.181zm4.496 15.145c0 2.036.895 2.82 2.327 2.82 1.431 0 2.326-.784 2.326-2.82V257.65c0-2.035-.895-2.818-2.326-2.818-1.432 0-2.327.783-2.327 2.818zM132.843 279.663c-.246-.738-.402-1.185-.402-3.512v-4.496c0-2.662-.895-3.624-2.93-3.624h-1.544v11.632h-4.497v-28.59h6.778c4.654 0 6.667 2.17 6.667 6.577v2.238c0 2.93-.94 4.854-2.93 5.794 2.236.94 2.975 3.11 2.975 6.085v4.407c0 1.387.044 2.416.492 3.467h-4.609zm-4.899-24.496v8.792h1.768c1.677 0 2.684-.738 2.684-3.02v-2.819c0-2.035-.693-2.93-2.282-2.93h-2.17zM143.872 258.97v20.716h-4.049v-28.59h5.638l4.608 17.114v-17.114h4.004v28.59h-4.608zM171.836 279.663h-4.541l-.783-5.19h-5.504l-.783 5.19h-4.116l4.564-28.59h6.577zm-10.246-9.06h4.34l-2.17-14.451zM173.939 251.073h7.114c4.496 0 6.689 2.484 6.689 7.07v14.451c0 4.564-2.215 7.07-6.69 7.07h-7.113zm4.474 4.094v20.425h2.528c1.432 0 2.282-.738 2.282-2.774V257.94c0-2.035-.85-2.774-2.282-2.774zM205.079 279.663h-4.541l-.783-5.19h-5.504l-.783 5.19h-4.116l4.564-28.59h6.577zm-10.246-9.06h4.34l-2.17-14.451zM213.49 251.073h7.114c4.497 0 6.69 2.484 6.69 7.07v14.451c0 4.564-2.215 7.07-6.69 7.07h-7.114zm4.497 4.094v20.425h2.528c1.432 0 2.282-.738 2.282-2.774V257.94c0-2.035-.85-2.774-2.282-2.774zM234.653 263.131h6.175v4.094h-6.175v8.367h7.763v4.094h-12.26v-28.59h12.26v4.094h-7.763zM256.017 263.131h6.175v4.094h-6.175v8.367h7.763v4.094h-12.26v-28.59h12.26v4.094h-7.763zM281.543 251.073l-4.698 13.893 5.033 14.697h-4.742l-3.67-11.32-3.713 11.32h-4.206l5.034-14.697-4.698-13.893h4.653l3.4 10.537 3.468-10.537zM282.795 251.073h13.893v4.094h-4.698v24.496h-4.497v-24.496h-4.698zM303.13 263.131h6.175v4.094h-6.175v8.367h7.763v4.094h-12.26v-28.59h12.26v4.094h-7.763zM317.672 258.97v20.716h-4.05v-28.59h5.638l4.608 17.114v-17.114h4.005v28.59h-4.609zM337.157 250.76c4.362 0 6.621 2.618 6.621 7.181v.895h-4.25v-1.186c0-2.035-.828-2.818-2.237-2.818-1.432 0-2.237.783-2.237 2.818 0 5.884 8.791 6.98 8.791 15.146 0 4.563-2.281 7.18-6.688 7.18s-6.69-2.617-6.69-7.18v-1.745h4.251v2.035c0 2.036.895 2.774 2.327 2.774 1.431 0 2.326-.738 2.326-2.774 0-5.883-8.791-6.98-8.791-15.145-.045-4.563 2.192-7.18 6.577-7.18zM360.914 279.663h-4.54l-.784-5.19h-5.503l-.783 5.19h-4.116l4.563-28.59h6.577zm-4.496-34.384l2.17 1.522c-.783 2.08-2.036 2.774-3.468 2.774-1.722 0-2.46-1.03-3.668-1.03-.739 0-1.276.157-1.768 1.186l-2.17-1.521c.783-2.08 2.036-2.774 3.468-2.774 1.722 0 2.46 1.029 3.669 1.029.76 0 1.297-.157 1.767-1.186zm-5.75 25.324h4.318l-2.17-14.451zM362.592 257.941c0-4.563 2.416-7.18 6.823-7.18s6.823 2.617 6.823 7.18v14.877c0 4.564-2.416 7.181-6.823 7.181s-6.823-2.617-6.823-7.181zm4.497 15.145c0 2.036.895 2.82 2.326 2.82 1.432 0 2.327-.784 2.327-2.82V257.65c0-2.035-.895-2.818-2.327-2.818-1.431 0-2.326.783-2.326 2.818zM104.634 289.842v34.407c0 3.176 1.41 4.34 3.624 4.34 2.237 0 3.624-1.141 3.624-4.34v-34.407h6.622v33.96c0 7.135-3.58 11.207-10.447 11.207-6.89 0-10.448-4.072-10.448-11.208v-33.959zM129.555 302.146v32.304h-6.309v-44.608h8.792l7.204 26.711v-26.71h6.241v44.607h-7.203zM150.516 289.842h7.003v44.608h-7.003zM173.2 326.24l5.347-36.398h6.443l-6.89 44.608h-10.447l-6.89-44.608h7.068zM195.258 308.634h9.62v6.375h-9.62v13.065h12.103v6.376h-19.127v-44.608h19.127v6.376h-12.103zM226.376 334.45c-.38-1.141-.626-1.857-.626-5.481v-7.002c0-4.139-1.41-5.682-4.586-5.682h-2.416v18.165h-7.003v-44.608h10.582c7.27 0 10.38 3.378 10.38 10.268v3.513c0 4.586-1.476 7.583-4.586 9.06 3.512 1.476 4.653 4.854 4.653 9.507v6.89c0 2.17.067 3.759.76 5.414h-7.158zm-7.65-38.232v13.713h2.728c2.618 0 4.206-1.14 4.206-4.72v-4.407c0-3.177-1.074-4.586-3.58-4.586zM246.756 289.328c6.823 0 10.335 4.071 10.335 11.207v1.41h-6.622v-1.857c0-3.177-1.275-4.407-3.512-4.407s-3.512 1.208-3.512 4.407c0 9.172 13.713 10.895 13.713 23.646 0 7.136-3.579 11.208-10.447 11.208-6.89 0-10.447-4.072-10.447-11.208v-2.73h6.622v3.177c0 3.177 1.41 4.34 3.624 4.34 2.237 0 3.624-1.14 3.624-4.34 0-9.172-13.713-10.894-13.713-23.646.022-7.113 3.512-11.207 10.335-11.207zM261.163 289.842h7.024v44.608h-7.002v-44.608zM271.23 289.842h21.677v6.376h-7.338v38.232h-7.002v-38.232h-7.337zM316.24 334.45h-7.07l-1.207-8.099h-8.613l-1.208 8.099h-6.443l7.136-44.608h10.269zm-4.788-54.048l-6.51 7.069h-4.72l4.34-7.07zm-11.207 39.91H307l-3.378-22.55zM334.137 334.45c-.38-1.141-.627-1.857-.627-5.481v-7.002c0-4.139-1.41-5.682-4.586-5.682h-2.416v18.165h-7.002v-44.608h10.581c7.27 0 10.38 3.378 10.38 10.268v3.513c0 4.586-1.476 7.583-4.586 9.06 3.513 1.476 4.654 4.854 4.654 9.507v6.89c0 2.17.067 3.759.76 5.414h-7.158zm-7.629-38.232v13.713h2.73c2.617 0 4.205-1.14 4.205-4.72v-4.407c0-3.177-1.074-4.586-3.58-4.586zM345.12 289.842h7.003v44.608h-7.002zM379.907 334.45h-7.069l-1.208-8.099h-8.613l-1.208 8.099h-6.443l7.137-44.608h10.268zm-15.995-14.139h6.756l-3.378-22.55z" class="st13" fill="#fff"/></g></svg>