<svg xmlns="http://www.w3.org/2000/svg" height="1078.66" width="1078.66"><defs><clipPath id="a" clipPathUnits="userSpaceOnUse"><path d="M4055.12 2656.7c-2.97 3.6-5.95 7.2-8.96 10.7h8.96v-10.7"/></clipPath><clipPath id="b" clipPathUnits="userSpaceOnUse"><path d="M3036.09 2356.9c0-165.2 87.68-310.8 239.47-310.8 72.96 0 131.55 30.9 175.79 92.7 42.45 59 63.68 131.7 63.68 218.1 0 85.9-21.23 158.4-63.68 217.4-43.98 62-102.58 93-175.79 93-151.25 0-239.47-145.6-239.47-310.4zm314.97 146.1c26.69-37.9 40.04-86.6 40.04-146.1 0-60-13.35-108.7-40.04-146-19.57-26.7-44.86-40.1-75.88-40.1-30.76 0-55.93 13.4-75.5 40.1-26.95 37.6-40.42 86.3-40.42 146 0 59 13.47 107.7 40.42 146.1 19.57 26.7 44.74 40 75.5 40 31.02 0 56.31-13.3 75.88-40zm385.58 163.5l-183.41-485.4h316.87v-131.9h123.17v131.9h61.77v123.2h-61.77v239.1H3870.1v-239.1h-131.55l131.55 361.5z"/></clipPath><clipPath id="c" clipPathUnits="userSpaceOnUse"><path d="M5605.4 2784.1v13.3c.74-3.2 1.59-6.2 2.51-9-.83-1.4-1.67-2.9-2.51-4.3m20.67 39.4c-.28 5.3-.32 10.4-.32 14.6-.01 9.3.24 22.1 2.5 33.9 5.18 9.8 10.51 19.5 15.95 29.2 3.4 1.9 7.45 3 12.35 3.1 4.32 0 7.83-1.2 10.62-3.2-14.63-25.4-28.39-51.3-41.1-77.6m52.3 96.7c-5.57 3.2-12.24 5.2-20.01 5.5 1.14 1.9 2.29 3.8 3.44 5.8h23.35c-2.28-3.8-4.54-7.5-6.78-11.3"/></clipPath><clipPath id="d" clipPathUnits="userSpaceOnUse"/><clipPath id="e" clipPathUnits="userSpaceOnUse"><path d="M5653.45 2760.1c-9.49.6-31.29 0-40.31 37.7 2.25 4.1 4.44 8.3 6.57 12.5.68-5.2 1.68-10.5 3.15-15.5 4.14-14.7 13.6-28.2 31.35-28.2h.2c8.71 0 17.93 3.5 24.83 11.4 6.93 7.9 11.39 20 11.38 36.6V2829h-3.74v-3.8 3.8h-33.91v6.4h46.77v-75.3h-9.12v22.2l-6.63-8.1c-7.47-9-18.54-14.1-30.54-14.1m-44.29 74.3c-.01.4-.01.8-.02 1.2.49 61.6 17.48 81.6 44.82 82.6-1.36-2.4-2.71-4.7-4.06-7-14.51-2.8-22.76-14.9-26.66-28.2-2.94-9.5-4.15-20.1-4.64-29.6-3.2-6.3-6.36-12.6-9.44-19m82.6 47.5h-8.74c-.09 9.8-4 20.1-12.13 25.6l3.66 6.3c10.65-5.9 16-17.3 17.21-31.9"/></clipPath><clipPath id="f" clipPathUnits="userSpaceOnUse"/><clipPath id="g" clipPathUnits="userSpaceOnUse"><path d="M8966.41 2760.7l-5.26 18.6-4.54-5.5c-7.56-8.9-15.19-12.9-26.56-13-20.31.1-31.22 15.3-31.46 35 .19 21.4 12.61 38.9 34.11 38.9 8.09 0 16.05-2.4 23.36-5.4l5.18-2.2v16.9c-.02 14.6-9.61 26.1-24.11 26.1-9.98 0-18.88-3.9-27.13-7.4l-1.85 7.2c10.01 3.8 19.09 6.7 29.64 6.7 20.27 0 32.44-16.5 32.56-34.6v-51.3c0-9.7 1.19-19.6 3.91-29l-7.85-1m-31.5 67.6c-19.62 0-27.19-17.6-27.22-33.4.03-12 6.41-27.5 22.36-27.7 15.28.2 23.69 12.6 30.49 21.9l.7 1v31.2l-2.25.9c-7.25 3.2-15.27 6.1-24.08 6.1"/></clipPath><clipPath id="h" clipPathUnits="userSpaceOnUse"/><clipPath id="i" clipPathUnits="userSpaceOnUse"><path d="M5861.18 2764.7c-7.81 2.9-15.23 7.2-21.71 12.3 1.39 2.4 2.77 4.7 4.16 7.1 5.92-5.4 13.2-10.4 21.04-13.5-1.16-2-2.32-4-3.49-5.9m27.85 47.7c-3.68 1.9-7.56 3.3-11.11 4.6-4.16 1.6-8.31 3.2-12.21 5 1.18 2.1 2.36 4.1 3.54 6.2 3.27-1.6 6.52-2.8 9.16-3.9 4.95-1.8 9.77-3.6 14.17-5.7-1.18-2.1-2.37-4.1-3.55-6.2m17.49 46.2c-4.59 3.1-9.54 6.2-14.95 8.4 1.22 2.1 2.43 4.2 3.65 6.3 5.14-1.9 10.04-4.5 15-7.9l-3.7-6.8"/></clipPath><clipPath id="j" clipPathUnits="userSpaceOnUse"/><clipPath id="k" clipPathUnits="userSpaceOnUse"><path d="M8710.05 2787.1h-.28c-6.57 0-12.15 3.6-16.52 10.4-4.31 6.7-6.98 16.4-6.97 27.3-.01 8.6 1.69 18.5 5.71 25.8 4.13 7.3 9.82 12 19.34 12h.2c8.11 0 17.2-5.5 21.94-12v-50.7c-4.43-6.8-15.23-12.8-23.42-12.8"/></clipPath><clipPath id="l" clipPathUnits="userSpaceOnUse"/></defs><path d="M554.195 257.483L365.913 303.02l192.531 48.684zM562.5 259.973l4.249 93.83 281.435 71.159z" fill="#ccc" paint-order="stroke markers fill"/><path d="M2.259 270.197l106.098 80.12-11.344-69.647zM0 278.75l46.177 88.05 56.739-10.33z" fill="#4d4d4d" paint-order="stroke markers fill"/><path d="M105.441 281.612l12.304 75.178 100.73 63.122-13.585-127.311zM213.211 293.526l13.513 126.688 113.603-112.642zM346.78 312.71L230.78 427.736 390.7 531.381z" fill="#f9f9f9" paint-order="stroke markers fill"/><path d="M372.066 313.05l189.65 111.042-2.88-63.834z" fill="#ccc" paint-order="stroke markers fill"/><path d="M356.259 318.26l43.207 215.184 95.518-61.29zM370.074 321.39l131.899 146.282 56.258-36.113z" fill="#999" paint-order="stroke markers fill"/><path d="M567.14 362.357l3.023 66.695 125.32 73.347 166.997-65.363z" fill="#ccc" paint-order="stroke markers fill"/><path d="M112.357 363.085l-57.556 10.473 144.257 43.848zM54.072 381.88l120.252 229.356 44.328-179.338zM226.386 434.6l-44.842 181.525 206.026-77.027z" fill="#f9f9f9" paint-order="stroke markers fill"/><path d="M566.143 436.2l-58.605 37.625L595.41 571.3l93.741-63.069z" fill="#999" paint-order="stroke markers fill"/><path d="M871.121 442.441L704.16 507.822l151.795 100.303zM878.785 448.345l-14.882 162.766 149.715 48.666z" fill="#f9f9f9" paint-order="stroke markers fill"/><path d="M500.55 478.305l-96.035 61.647 125.782 75.142 58.251-39.189zM694.22 514.704l-93.26 62.748 145.767 161.646z" fill="#999" paint-order="stroke markers fill"/><path d="M703.234 517.086l53.13 227.222 97.581-127.632z" fill="#f9f9f9" paint-order="stroke markers fill"/><path d="M396.585 544.735a3.187 3.187 0 0 1-.765 0L189.988 621.69l338.3 76.583-3.753-77.115z" fill="gray" paint-order="stroke markers fill"/><path d="M594.078 582.075l-55.974 37.66 194.932 116.447z" fill="#999" paint-order="stroke markers fill"/><path d="M866.072 624.624l28.111 136.61 90.506 7.54-20.769-80.05zM857.768 625.122L762.142 750.21l123.56 10.295zM883.088 625.96l85.064 55.725 44.15-13.745z" fill="#f9f9f9" paint-order="stroke markers fill"/><path d="M533.018 626.263l3.592 73.933 193.51 43.812zM202.205 632.914l332.004 186.68-5.459-112.766z" fill="gray" paint-order="stroke markers fill"/><path d="M1021.832 673.542l-45.465 14.136 100.871 75.925zM974.411 696.497l18.919 72.92 85.33 5.512z" fill="#4d4d4d" paint-order="stroke markers fill"/><path d="M537.019 708.713l5.458 112.464 196.746-66.696z" fill="gray" paint-order="stroke markers fill"/></svg>