<?xml version="1.0" encoding="UTF-8"?>
<!DOCTYPE svg PUBLIC "-//W3C//DTD SVG 1.1//EN" "http://www.w3.org/Graphics/SVG/1.1/DTD/svg11.dtd">
<!-- Creator: CorelDRAW 2017 -->
<svg xmlns="http://www.w3.org/2000/svg" xml:space="preserve" width="1400px" height="800px" version="1.1" style="shape-rendering:geometricPrecision; text-rendering:geometricPrecision; image-rendering:optimizeQuality; fill-rule:evenodd; clip-rule:evenodd"
viewBox="0 0 1400 800"
 xmlns:xlink="http://www.w3.org/1999/xlink">
 <defs>
  <style type="text/css">
   <![CDATA[
    .fil0 {fill:#347AA8;fill-rule:nonzero}
   ]]>
  </style>
 </defs>
 <g id="Camada_x0020_1">
  <metadata id="CorelCorpID_0Corel-Layer"/>
  <path id="PROPESP_x0020_art" class="fil0" d="M1042.14 776.03l-206.56 -12.99 -267.52 -16.82 -0.02 0c-16.73,-9.66 -33.11,-20.33 -49.08,-32.03 -58.67,-42.95 -106.03,-95.62 -141.51,-154.17 -55.73,22.56 -100.13,76.09 -155.13,100.6l-58.13 60.21 -137.22 -8.64 -27 -1.69 0 -60.76 119.09 -174.11c60.59,-26.98 141.02,-23.71 199.2,-54.37 -28.57,-106.55 -24.2,-221.22 15.73,-327.3l116.39 -6.98c-103.93,190.77 -53.2,433.7 126.91,565.55 78.45,57.43 169.51,85.09 259.83,85.09 135.63,0 269.44,-62.46 355.7,-180.28 114.97,-157.01 110.66,-364.8 3.87,-515.17l113.51 -6.82c39.62,76.38 60.12,161.07 60.27,246.42l0 0.96c0,109.74 -33.62,220.45 -103.41,315.76 -59.67,81.51 -138.06,141.23 -224.92,177.54l0 0z"/>
 </g>
</svg>
