<?xml version="1.0" encoding="UTF-8" standalone="no"?>
<!-- Creator: CorelDRAW 2017 -->

<svg
   xmlns:dc="http://purl.org/dc/elements/1.1/"
   xmlns:cc="http://creativecommons.org/ns#"
   xmlns:rdf="http://www.w3.org/1999/02/22-rdf-syntax-ns#"
   xmlns:svg="http://www.w3.org/2000/svg"
   xmlns="http://www.w3.org/2000/svg"
   xmlns:sodipodi="http://sodipodi.sourceforge.net/DTD/sodipodi-0.dtd"
   xmlns:inkscape="http://www.inkscape.org/namespaces/inkscape"
   xml:space="preserve"
   width="157.25999"
   height="165.96001"
   version="1.1"
   style="clip-rule:evenodd;fill-rule:evenodd;image-rendering:optimizeQuality;shape-rendering:geometricPrecision;text-rendering:geometricPrecision"
   viewBox="0 0 157.25999 165.96001"
   id="svg176"
   sodipodi:docname="microscope.svg"
   inkscape:version="0.92.3 (2405546, 2018-03-11)"><metadata
   id="metadata180"><rdf:RDF><cc:Work
       rdf:about=""><dc:format>image/svg+xml</dc:format><dc:type
         rdf:resource="http://purl.org/dc/dcmitype/StillImage" /><dc:title /></cc:Work></rdf:RDF></metadata><sodipodi:namedview
   pagecolor="#ffffff"
   bordercolor="#666666"
   borderopacity="1"
   objecttolerance="10"
   gridtolerance="10"
   guidetolerance="10"
   inkscape:pageopacity="0"
   inkscape:pageshadow="2"
   inkscape:window-width="1920"
   inkscape:window-height="1012"
   id="namedview178"
   showgrid="false"
   fit-margin-top="0"
   fit-margin-left="0"
   fit-margin-right="0"
   fit-margin-bottom="0"
   inkscape:zoom="2.3629152"
   inkscape:cx="-63.256344"
   inkscape:cy="13.510433"
   inkscape:window-x="0"
   inkscape:window-y="0"
   inkscape:window-maximized="1"
   inkscape:current-layer="svg176" />
 <defs
   id="defs13">
  <style
   type="text/css"
   id="style2">
   <![CDATA[
    .fil6 {fill:none}
    .fil0 {fill:#4C3C83}
    .fil3 {fill:#B2ACD0}
    .fil4 {fill:#B2ACD0}
    .fil7 {fill:#F3EFFF}
    .fil1 {fill:white}
    .fil2 {fill:white}
    .fil5 {fill:#0C035C;fill-opacity:0.411765}
   ]]>
  </style>
   <clipPath
   id="id0">
    <path
   d="M 0,0.05 V 1080 c 95.81,-20.86 184.05,-43.2 264.72,-67.02 93.26,-28.9 187.79,-60.75 283.59,-95.57 137.24,-50.37 238.37,-97.24 303.39,-140.63 53.06,-35.64 77.11,-66.89 72.13,-93.75 -0.36,-24.48 -28.39,-53.56 -84.11,-87.24 C 782.47,559.96 736.81,530.36 702.74,506.99 607.65,444.17 547.49,398.41 522.26,369.72 455.03,310.08 435.16,256.18 462.63,208 502.67,140.2 652.67,70.89 912.63,0.05 Z"
   id="path4"
   inkscape:connector-curvature="0" />
   </clipPath>
    <clipPath
   id="id1">
     <path
   d="M 0,0.05 V 1080 c 95.81,-20.86 184.05,-43.2 264.72,-67.02 93.26,-28.9 187.79,-60.75 283.59,-95.57 137.24,-50.37 238.37,-97.24 303.39,-140.63 53.06,-35.64 77.11,-66.89 72.13,-93.75 -0.36,-24.48 -28.39,-53.56 -84.11,-87.24 C 782.47,559.96 736.81,530.36 702.74,506.99 607.65,444.17 547.49,398.41 522.26,369.72 455.03,310.08 435.16,256.18 462.63,208 502.67,140.2 652.67,70.89 912.63,0.05 Z"
   id="path7"
   inkscape:connector-curvature="0" />
    </clipPath>
    <clipPath
   id="id2">
     <path
   d="M 0,0.05 V 1080 c 95.81,-20.86 184.05,-43.2 264.72,-67.02 93.26,-28.9 187.79,-60.75 283.59,-95.57 137.24,-50.37 238.37,-97.24 303.39,-140.63 53.06,-35.64 77.11,-66.89 72.13,-93.75 -0.36,-24.48 -28.39,-53.56 -84.11,-87.24 C 782.47,559.96 736.81,530.36 702.74,506.99 607.65,444.17 547.49,398.41 522.26,369.72 455.03,310.08 435.16,256.18 462.63,208 502.67,140.2 652.67,70.89 912.63,0.05 Z"
   id="path10"
   inkscape:connector-curvature="0" />
    </clipPath>
 
  
  
  
  
  
  
  
  
  
  
  
  
  
  
  
  
  
  
  
  
  
  
  
  
  
  
  
  
  
  
  
  
  
  
  
  
  
  
  
  
  
  
  
  
  
  
  
  
  
  
  
  
  
  
  
  
  
  
  
  
  
  
  
  
  
  
  
  
  
  
  
  
  
  
  
  
  
 </defs>
 <g
   id="g289"
   transform="translate(-921.4,-94.98)"
   style="fill:#ffffff"><polygon
     class="fil1"
     points="1031.58,253.28 1006.25,247.61 999.63,254.89 1021.18,260.94 "
     id="polygon82"
     style="fill:#b3b3b3" /><polygon
     class="fil1"
     points="1008.7,244.87 1036.03,251.96 1051.81,243.26 1024.3,235.32 "
     id="polygon84"
     style="fill:#b3b3b3" /><polygon
     class="fil1"
     points="1026.1,233.24 1057.72,241.21 1075.26,230.03 1044.06,221.14 "
     id="polygon86"
     style="fill:#b3b3b3" /><polygon
     class="fil1"
     points="1048.98,195.62 1045.57,200.06 1044.82,216.89 1078.28,226.06 1078.66,194.39 1047.37,186.16 "
     id="polygon88"
     style="fill:#ececec" /><polygon
     class="fil1"
     points="1047.18,178.69 1077.72,187.96 1078.28,159.79 1047.94,150.71 "
     id="polygon90"
     style="fill:#ececec" /><polygon
     class="fil1"
     points="1047.75,145.23 1077.72,154.59 1078,130.86 1048.69,122.35 "
     id="polygon92"
     style="fill:#ececec" /><polygon
     class="fil1"
     points="1037.82,136.53 1035.36,118.76 1009.93,110.91 1008.51,126.6 "
     id="polygon94"
     style="fill:#ececec" /><polygon
     class="fil1"
     points="1038.77,140.78 1008.23,130.86 1008.33,151.28 1041.98,160.92 "
     id="polygon96"
     style="fill:#ececec" /><polygon
     class="fil1"
     points="1042.83,165.93 1008.23,156.48 1008.99,181.44 1045.86,191.55 "
     id="polygon98"
     style="fill:#ececec" /><polygon
     class="fil1"
     points="1026.1,218.49 1044.53,197.41 1008.99,186.35 995.47,203.65 995.09,209.8 "
     id="polygon100"
     style="fill:#b3b3b3" /><polygon
     class="fil1"
     points="1022.74,223.3 990.84,215.09 975.99,231.82 1007.62,240.14 "
     id="polygon102"
     style="fill:#b3b3b3" /><polygon
     class="fil1"
     points="1004.01,244.16 973.82,235.32 961.62,252.62 990.55,259.15 "
     id="polygon104"
     style="fill:#b3b3b3" /><polygon
     class="fil1"
     points="954.11,241.85 961.58,235.98 928.68,228.52 923.1,235.04 "
     id="polygon106"
     style="fill:#b3b3b3" /><polygon
     class="fil1"
     points="930.94,226.72 964.98,234.19 974.24,226.72 938.13,218.49 "
     id="polygon108"
     style="fill:#b3b3b3" /><polygon
     class="fil1"
     points="941.25,215.56 976.89,225.21 989.27,215.19 951.03,205.18 "
     id="polygon110"
     style="fill:#b3b3b3" /><polygon
     class="fil1"
     points="951.89,199.87 991.03,210.27 996.13,177.09 958.98,165.55 "
     id="polygon112"
     style="fill:#ececec" /><polygon
     class="fil1"
     points="961.15,158.56 998.21,169.62 1002.58,140.26 967.7,128.27 "
     id="polygon114"
     style="fill:#ececec" /><polygon
     class="fil1"
     points="968.95,122.53 1003.59,133.49 1007.62,106.47 974.91,94.98 "
     id="polygon116"
     style="fill:#ececec" /><polygon
     class="fil1"
     points="964.37,128.51 969.47,99.44 959.92,116.04 956.47,139.72 "
     id="polygon118"
     style="fill:#b3b3b3" /><polygon
     class="fil1"
     points="954.2,144.3 957.98,117.93 949.33,132.3 946.26,153.9 "
     id="polygon120"
     style="fill:#b3b3b3" /><polygon
     class="fil1"
     points="944.75,155.36 947.68,134.47 941.34,144.97 937.71,165.43 "
     id="polygon122"
     style="fill:#b3b3b3" /><polygon
     class="fil1"
     points="941.06,165.24 935.29,174.32 931.65,193.28 938.08,184.25 "
     id="polygon124"
     style="fill:#b3b3b3" /><polygon
     class="fil1"
     points="942.72,162.93 939.5,182.92 947.06,174.23 950.85,150.21 "
     id="polygon126"
     style="fill:#b3b3b3" /><polygon
     class="fil1"
     points="952.45,148.98 949.19,171.34 956.47,161.23 960.68,136.83 "
     id="polygon128"
     style="fill:#b3b3b3" /><polygon
     class="fil1"
     points="955.57,166.47 943.94,181.79 939.97,210.43 948.96,201.55 "
     id="polygon130"
     style="fill:#b3b3b3" /><polygon
     class="fil1"
     points="938.89,211.21 942.39,183.89 934.29,194.15 930.14,221.47 "
     id="polygon132"
     style="fill:#b3b3b3" /><polygon
     class="fil1"
     points="928.06,223.91 933.1,195.66 927.16,203.18 921.4,231.73 "
     id="polygon134"
     style="fill:#b3b3b3" /></g><path
   style="fill:none"
   inkscape:connector-curvature="0"
   id="path171"
   d="M -921.4,-94.93 V 985.02 c 95.81,-20.86 184.05,-43.2 264.72,-67.02 93.26,-28.9 187.79,-60.75 283.59,-95.57 137.24,-50.37 238.37,-97.24 303.39,-140.63 53.06,-35.64 77.11,-66.89 72.13,-93.75 -0.36,-24.48 -28.39,-53.56 -84.11,-87.24 -57.25,-35.83 -102.91,-65.43 -136.98,-88.8 -95.09,-62.82 -155.25,-108.58 -180.48,-137.27 -67.23,-59.64 -87.1,-113.54 -59.63,-161.72 40.04,-67.8 190.04,-137.11 450,-207.95 z"
   class="fil6" />
</svg>