<svg xmlns="http://www.w3.org/2000/svg" viewBox="0 0 512.004 512.004"><g opacity=".271" stroke-width="12.269"><path d="M13.09 337.59c.135.22.403.348.68.348a.883.883 0 0 0 .344-.07c.045-.018 4.523-1.92 6.731-2.503.4-.106.622-.464.495-.798-.126-.335-.55-.52-.954-.415-2.327.615-6.774 2.503-6.962 2.583-.375.16-.524.542-.334.856zM13.77 330.307a.883.883 0 0 0 .344-.07c.045-.018 4.523-1.92 6.731-2.503.4-.106.622-.463.495-.798-.126-.334-.55-.52-.954-.415-2.327.615-6.774 2.503-6.962 2.584-.375.159-.524.541-.334.855.135.22.403.347.68.347z"/><path d="M32.026 329.035c-.42 0-.76.285-.76.636v24.8c0 1.053-1.025 1.909-2.283 1.909H10.726v-1.464c1.11-.324 3.999-1.08 6.847-1.08 6.626 0 11.126 1.227 11.17 1.24a.892.892 0 0 0 .685-.089.61.61 0 0 0 .316-.515v-27.98c0-.299-.247-.557-.596-.621 0 0-.596-.111-1.616-.268-.411-.063-.809.166-.885.51-.076.346.197.677.61.741.389.06.714.113.965.155v26.618c-1.723-.378-5.551-1.063-10.65-1.063-3.314 0-6.57.91-7.577 1.218-.895-.33-3.602-1.218-6.876-1.218-5.24 0-9.556.722-11.41 1.09v-26.67c1.519-.313 6.005-1.128 11.41-1.128 2.774 0 5.152.721 6.086 1.048v25.024c0 .23.147.44.385.553a.89.89 0 0 0 .767-.008c.076-.037 7.613-3.8 14.302-5.665.311-.087.52-.329.52-.603v-26.073c0-.208-.122-.403-.327-.522a.887.887 0 0 0-.7-.073c-6.087 1.908-12.246 5.112-12.308 5.143-.356.187-.464.58-.242.877.223.297.692.388 1.049.202.056-.03 5.414-2.816 11.007-4.697v24.688c-5.192 1.508-10.614 3.971-12.932 5.074v-24.332c0-.241-.163-.461-.42-.57-.131-.054-3.249-1.338-7.187-1.338-6.874 0-12.158 1.243-12.38 1.296-.327.078-.552.328-.552.612v27.98a.61.61 0 0 0 .302.507.862.862 0 0 0 .667.104c.053-.012 5.313-1.247 11.963-1.247 2.781 0 5.158.724 6.086 1.049v1.495H-9.052c-1.258 0-2.282-.856-2.282-1.908v-24.8c0-.352-.341-.637-.761-.637s-.76.285-.76.636v24.8c0 1.754 1.706 3.18 3.803 3.18h38.035c2.097 0 3.804-1.426 3.804-3.18v-24.8c0-.35-.34-.636-.761-.636z"/><path d="M13.09 333.775c.135.22.403.347.68.347a.883.883 0 0 0 .344-.069c.045-.019 4.523-1.92 6.731-2.503.4-.107.622-.464.495-.798-.126-.335-.55-.521-.954-.416-2.327.615-6.774 2.504-6.962 2.584-.375.159-.524.542-.334.855zM13.09 341.406c.135.22.403.347.68.347a.883.883 0 0 0 .344-.069c.045-.019 4.523-1.92 6.731-2.503.4-.107.622-.464.495-.799-.126-.334-.55-.52-.954-.415-2.327.615-6.774 2.504-6.962 2.584-.375.159-.524.542-.334.855zM5.575 331.298c-4.698-.922-10.035.252-10.26.303-.405.09-.646.439-.538.779.092.284.399.47.734.47a.917.917 0 0 0 .198-.02c.051-.013 5.19-1.143 9.519-.294.407.08.819-.132.914-.474.096-.342-.158-.684-.567-.764zM5.575 335.113c-4.698-.92-10.035.253-10.26.303-.405.09-.646.44-.538.779.092.284.399.471.734.471a.917.917 0 0 0 .198-.021c.051-.012 5.19-1.143 9.519-.294.407.08.819-.132.914-.474.096-.341-.158-.684-.567-.764zM13.09 345.222c.135.22.403.347.68.347a.883.883 0 0 0 .344-.07c.045-.018 4.523-1.92 6.731-2.503.4-.106.622-.464.495-.798-.126-.334-.55-.52-.954-.415-2.327.615-6.774 2.503-6.962 2.583-.375.16-.524.542-.334.856zM5.575 338.929c-4.698-.921-10.035.252-10.26.303-.405.09-.646.439-.538.778.092.285.399.472.734.472a.914.914 0 0 0 .198-.022c.051-.012 5.19-1.142 9.519-.293.407.08.819-.132.914-.475.096-.341-.158-.683-.567-.763zM5.575 346.56c-4.698-.922-10.035.252-10.26.302-.405.091-.646.44-.538.78.092.284.399.471.734.471a.914.914 0 0 0 .198-.022c.051-.012 5.19-1.142 9.519-.293.407.079.819-.132.914-.475.096-.341-.158-.683-.567-.763zM5.575 342.744c-4.698-.921-10.035.252-10.26.303-.405.09-.646.44-.538.779.092.284.399.472.734.472a.914.914 0 0 0 .198-.022c.051-.013 5.19-1.143 9.519-.294.407.08.819-.132.914-.474.096-.341-.158-.684-.567-.764z"/></g><g opacity=".271" stroke-width="12.269"><path d="M433.857 329.522c.134.22.402.347.68.347a.883.883 0 0 0 .344-.07c.045-.018 4.522-1.92 6.73-2.503.4-.106.623-.464.496-.798-.127-.335-.551-.52-.955-.415-2.326.615-6.773 2.503-6.962 2.583-.374.16-.523.542-.333.856zM434.536 322.238a.883.883 0 0 0 .345-.07c.045-.018 4.522-1.92 6.73-2.503.4-.106.623-.464.496-.798s-.551-.52-.955-.415c-2.326.615-6.773 2.503-6.962 2.584-.374.158-.523.541-.333.855.134.22.402.347.68.347z"/><path d="M452.792 320.966c-.42 0-.76.285-.76.636v24.8c0 1.052-1.024 1.908-2.283 1.908h-18.256v-1.463c1.109-.324 3.998-1.08 6.846-1.08 6.626 0 11.126 1.227 11.17 1.24a.892.892 0 0 0 .685-.089.61.61 0 0 0 .316-.515v-27.98c0-.299-.247-.557-.596-.621 0 0-.596-.111-1.615-.268-.412-.063-.81.165-.886.51-.076.346.197.677.61.74.39.06.715.113.966.155v26.619c-1.724-.378-5.552-1.063-10.65-1.063-3.315 0-6.57.91-7.578 1.218-.895-.33-3.602-1.218-6.876-1.218-5.24 0-9.556.722-11.41 1.09v-26.67c1.519-.313 6.006-1.128 11.41-1.128 2.774 0 5.153.721 6.086 1.048v25.024c0 .229.148.44.386.553a.89.89 0 0 0 .766-.008c.076-.037 7.613-3.8 14.302-5.665.312-.087.52-.33.52-.603v-26.073c0-.208-.122-.404-.327-.522a.887.887 0 0 0-.7-.073c-6.087 1.908-12.246 5.112-12.307 5.143-.356.187-.465.58-.242.877.222.297.691.388 1.048.202.056-.03 5.414-2.816 11.007-4.697v24.688c-5.192 1.508-10.614 3.97-12.932 5.074v-24.332c0-.241-.162-.462-.42-.57-.131-.054-3.248-1.338-7.187-1.338-6.873 0-12.158 1.243-12.38 1.296-.327.078-.552.328-.552.612v27.98a.61.61 0 0 0 .302.507.862.862 0 0 0 .667.104c.053-.012 5.313-1.247 11.963-1.247 2.781 0 5.158.724 6.086 1.048v1.496h-18.257c-1.258 0-2.282-.856-2.282-1.908v-24.8c0-.352-.34-.637-.76-.637s-.761.285-.761.636v24.8c0 1.754 1.706 3.18 3.803 3.18h38.035c2.098 0 3.804-1.426 3.804-3.18v-24.8c0-.351-.34-.636-.76-.636z"/><path d="M433.857 325.706c.134.22.402.347.68.347a.883.883 0 0 0 .344-.069c.045-.019 4.522-1.92 6.73-2.504.4-.106.623-.463.496-.798-.127-.334-.551-.52-.955-.415-2.326.615-6.773 2.504-6.962 2.584-.374.159-.523.542-.333.855zM433.857 333.337c.134.22.402.347.68.347a.883.883 0 0 0 .344-.069c.045-.019 4.522-1.92 6.73-2.504.4-.106.623-.463.496-.798-.127-.334-.551-.52-.955-.415-2.326.615-6.773 2.504-6.962 2.584-.374.159-.523.542-.333.855zM426.341 323.229c-4.697-.922-10.035.252-10.26.302-.405.091-.646.44-.537.78.09.284.398.47.734.47a.917.917 0 0 0 .197-.021c.051-.012 5.19-1.142 9.52-.293.406.08.818-.132.914-.475.095-.341-.159-.683-.568-.763zM426.341 327.044c-4.697-.92-10.035.253-10.26.303-.405.09-.646.44-.537.779.09.284.398.471.734.471a.917.917 0 0 0 .197-.021c.051-.013 5.19-1.143 9.52-.294.406.08.818-.132.914-.474.095-.342-.159-.684-.568-.764zM433.857 337.153c.134.22.402.347.68.347a.883.883 0 0 0 .344-.07c.045-.019 4.522-1.92 6.73-2.503.4-.106.623-.464.496-.798-.127-.335-.551-.52-.955-.415-2.326.615-6.773 2.503-6.962 2.583-.374.16-.523.542-.333.856zM426.341 330.86c-4.697-.921-10.035.252-10.26.302-.405.091-.646.44-.537.78.09.284.398.471.734.471a.914.914 0 0 0 .197-.022c.051-.012 5.19-1.142 9.52-.293.406.08.818-.132.914-.475.095-.341-.159-.683-.568-.763zM426.341 338.49c-4.697-.92-10.035.253-10.26.303-.405.091-.646.44-.537.78.09.284.398.471.734.471a.914.914 0 0 0 .197-.022c.051-.012 5.19-1.142 9.52-.293.406.079.818-.132.914-.475.095-.341-.159-.683-.568-.763zM426.341 334.675c-4.697-.921-10.035.252-10.26.303-.405.09-.646.44-.537.779.09.284.398.472.734.472a.914.914 0 0 0 .197-.023c.051-.012 5.19-1.142 9.52-.293.406.08.818-.132.914-.474.095-.342-.159-.684-.568-.764z"/></g><g opacity=".271" stroke-width="12.269"><path d="M365.648 371.776c.134.22.402.348.679.348a.883.883 0 0 0 .345-.07c.044-.019 4.522-1.92 6.73-2.503.4-.106.623-.464.496-.798-.127-.335-.551-.521-.955-.416-2.326.615-6.773 2.504-6.962 2.584-.374.16-.523.542-.333.855zM366.327 364.493a.883.883 0 0 0 .345-.07c.044-.019 4.522-1.92 6.73-2.503.4-.106.623-.464.496-.798-.127-.335-.551-.521-.955-.415-2.326.615-6.773 2.503-6.962 2.583-.374.16-.523.542-.333.856.134.22.402.347.679.347z"/><path d="M384.583 363.22c-.42 0-.76.286-.76.637v24.8c0 1.052-1.024 1.908-2.283 1.908h-18.257v-1.463c1.11-.324 3.999-1.08 6.847-1.08 6.626 0 11.126 1.226 11.17 1.239a.892.892 0 0 0 .685-.088.61.61 0 0 0 .316-.516v-27.98c0-.298-.247-.556-.596-.62 0 0-.596-.112-1.615-.268-.412-.064-.81.165-.886.51-.076.346.197.677.61.74.39.06.715.113.966.155v26.618c-1.724-.377-5.552-1.062-10.65-1.062-3.315 0-6.57.91-7.578 1.218-.895-.33-3.602-1.218-6.876-1.218-5.24 0-9.556.722-11.41 1.09v-26.67c1.519-.313 6.005-1.129 11.41-1.129 2.774 0 5.153.722 6.086 1.048v25.025c0 .229.147.44.386.553a.89.89 0 0 0 .766-.008c.076-.038 7.613-3.801 14.302-5.665.312-.087.52-.33.52-.603v-26.073c0-.208-.122-.404-.327-.523a.887.887 0 0 0-.7-.073c-6.087 1.909-12.246 5.112-12.307 5.144-.356.187-.465.579-.242.876.222.298.691.39 1.048.203.056-.03 5.414-2.817 11.007-4.697v24.687c-5.192 1.509-10.614 3.972-12.932 5.074v-24.332c0-.24-.162-.46-.42-.569-.131-.054-3.249-1.338-7.187-1.338-6.873 0-12.158 1.243-12.38 1.296-.327.078-.552.328-.552.611v27.98a.61.61 0 0 0 .302.508.862.862 0 0 0 .667.104c.053-.012 5.313-1.247 11.963-1.247 2.781 0 5.158.723 6.086 1.048v1.495h-18.257c-1.258 0-2.282-.856-2.282-1.907v-24.801c0-.351-.34-.636-.76-.636s-.761.285-.761.636v24.8c0 1.754 1.706 3.18 3.803 3.18h38.035c2.098 0 3.804-1.426 3.804-3.18v-24.8c0-.351-.34-.636-.76-.636z"/><path d="M365.648 367.961c.134.22.402.347.679.347a.883.883 0 0 0 .345-.07c.044-.018 4.522-1.92 6.73-2.503.4-.106.623-.463.496-.798-.127-.334-.551-.52-.955-.415-2.326.615-6.773 2.504-6.962 2.584-.374.159-.523.542-.333.855zM365.648 375.592c.134.22.402.347.679.347a.883.883 0 0 0 .345-.07c.044-.018 4.522-1.92 6.73-2.503.4-.106.623-.463.496-.798-.127-.334-.551-.52-.955-.415-2.326.615-6.773 2.504-6.962 2.584-.374.159-.523.542-.333.855zM358.132 365.484c-4.697-.922-10.035.252-10.26.302-.405.091-.646.44-.537.78.09.283.398.47.734.47a.917.917 0 0 0 .197-.021c.051-.012 5.19-1.142 9.52-.293.406.08.818-.133.914-.475.095-.341-.159-.683-.568-.763zM358.132 369.299c-4.697-.92-10.035.253-10.26.303-.405.09-.646.44-.537.779.09.284.398.47.734.47a.917.917 0 0 0 .197-.02c.051-.013 5.19-1.143 9.52-.294.406.08.818-.132.914-.474.095-.342-.159-.684-.568-.764zM365.648 379.407c.134.22.402.348.679.348a.883.883 0 0 0 .345-.07c.044-.019 4.522-1.92 6.73-2.503.4-.106.623-.464.496-.798-.127-.335-.551-.521-.955-.416-2.326.615-6.773 2.504-6.962 2.584-.374.16-.523.542-.333.855zM358.132 373.115c-4.697-.921-10.035.251-10.26.302-.405.091-.646.44-.537.78.09.283.398.471.734.471a.914.914 0 0 0 .197-.022c.051-.012 5.19-1.142 9.52-.293.406.08.818-.133.914-.475.095-.341-.159-.683-.568-.763zM358.132 380.745c-4.697-.921-10.035.253-10.26.303-.405.091-.646.44-.537.78.09.283.398.471.734.471a.914.914 0 0 0 .197-.022c.051-.012 5.19-1.142 9.52-.293.406.078.818-.133.914-.475.095-.341-.159-.683-.568-.764zM358.132 376.93c-4.697-.921-10.035.252-10.26.303-.405.09-.646.44-.537.779.09.284.398.472.734.472a.914.914 0 0 0 .197-.023c.051-.012 5.19-1.142 9.52-.293.406.08.818-.132.914-.474.095-.342-.159-.684-.568-.764z"/></g><g opacity=".271" stroke-width="12.269"><path d="M472.552 382.159c.134.22.402.347.679.347a.883.883 0 0 0 .345-.07c.044-.018 4.522-1.92 6.73-2.503.4-.106.623-.464.496-.798-.127-.335-.551-.52-.955-.415-2.326.615-6.773 2.503-6.962 2.583-.374.16-.523.542-.333.856zM473.23 374.875a.883.883 0 0 0 .346-.07c.044-.018 4.522-1.92 6.73-2.503.4-.106.623-.463.496-.798-.127-.334-.551-.52-.955-.415-2.326.615-6.773 2.503-6.962 2.584-.374.159-.523.541-.333.855.134.22.402.347.679.347z"/><path d="M491.487 373.603c-.42 0-.76.285-.76.636v24.8c0 1.053-1.024 1.908-2.283 1.908h-18.257v-1.463c1.11-.324 3.999-1.08 6.847-1.08 6.626 0 11.126 1.227 11.17 1.24a.892.892 0 0 0 .685-.089.61.61 0 0 0 .316-.515v-27.98c0-.299-.247-.557-.596-.621 0 0-.596-.111-1.615-.268-.412-.063-.81.165-.886.51-.076.346.197.677.61.741.389.06.715.112.966.155v26.618c-1.724-.378-5.552-1.063-10.65-1.063-3.315 0-6.57.91-7.578 1.218-.895-.33-3.602-1.218-6.876-1.218-5.24 0-9.556.722-11.41 1.09v-26.67c1.519-.313 6.005-1.128 11.41-1.128 2.774 0 5.152.721 6.086 1.048v25.024c0 .229.147.44.386.553a.89.89 0 0 0 .766-.008c.076-.037 7.613-3.8 14.302-5.665.311-.087.52-.329.52-.603V364.7c0-.208-.122-.403-.327-.522a.887.887 0 0 0-.7-.073c-6.087 1.908-12.246 5.112-12.307 5.143-.356.187-.465.58-.242.877.222.297.691.388 1.048.202.056-.03 5.414-2.816 11.007-4.697v24.688c-5.192 1.508-10.614 3.97-12.932 5.074V371.06c0-.241-.163-.462-.42-.57-.131-.054-3.249-1.338-7.187-1.338-6.873 0-12.158 1.243-12.38 1.296-.327.078-.552.328-.552.612v27.98a.61.61 0 0 0 .302.507.862.862 0 0 0 .667.104c.053-.012 5.313-1.247 11.963-1.247 2.781 0 5.158.724 6.086 1.049v1.495h-18.257c-1.258 0-2.282-.856-2.282-1.908v-24.8c0-.352-.341-.637-.76-.637-.42 0-.762.285-.762.636v24.8c0 1.754 1.707 3.18 3.804 3.18h38.035c2.098 0 3.804-1.426 3.804-3.18v-24.8c0-.35-.34-.636-.76-.636z"/><path d="M472.552 378.343c.134.22.402.347.679.347a.883.883 0 0 0 .345-.069c.044-.019 4.522-1.92 6.73-2.503.4-.107.623-.464.496-.799-.127-.334-.551-.52-.955-.415-2.326.615-6.773 2.504-6.962 2.584-.374.159-.523.542-.333.855zM472.552 385.974c.134.22.402.347.679.347a.883.883 0 0 0 .345-.069c.044-.019 4.522-1.92 6.73-2.503.4-.107.623-.464.496-.799-.127-.334-.551-.52-.955-.415-2.326.615-6.773 2.504-6.962 2.584-.374.159-.523.542-.333.855zM465.036 375.866c-4.697-.922-10.035.252-10.26.303-.405.09-.646.439-.538.778.092.285.399.472.735.472a.917.917 0 0 0 .197-.022c.051-.012 5.19-1.142 9.52-.293.406.08.818-.132.913-.474.096-.342-.158-.684-.567-.764zM465.036 379.681c-4.697-.92-10.035.253-10.26.303-.405.09-.646.44-.538.779.092.284.399.471.735.471a.917.917 0 0 0 .197-.021c.051-.013 5.19-1.143 9.52-.294.406.08.818-.132.913-.474.096-.341-.158-.684-.567-.764zM472.552 389.79c.134.22.402.347.679.347a.883.883 0 0 0 .345-.07c.044-.018 4.522-1.92 6.73-2.503.4-.106.623-.464.496-.798s-.551-.52-.955-.415c-2.326.615-6.773 2.503-6.962 2.583-.374.16-.523.542-.333.856zM465.036 383.497c-4.697-.921-10.035.252-10.26.302-.405.091-.646.44-.538.78.092.284.399.471.735.471a.914.914 0 0 0 .197-.022c.051-.012 5.19-1.142 9.52-.293.406.08.818-.132.913-.475.096-.341-.158-.683-.567-.763zM465.036 391.128c-4.697-.922-10.035.252-10.26.302-.405.091-.646.44-.538.78.092.284.399.471.735.471a.914.914 0 0 0 .197-.022c.051-.012 5.19-1.142 9.52-.293.406.079.818-.132.913-.475.096-.341-.158-.683-.567-.763zM465.036 387.312c-4.697-.921-10.035.252-10.26.303-.405.09-.646.44-.538.779.092.284.399.472.735.472a.914.914 0 0 0 .197-.022c.051-.013 5.19-1.143 9.52-.294.406.08.818-.132.913-.474.096-.341-.158-.684-.567-.764z"/></g><g opacity=".271" stroke-width="12.269"><path d="M241.138 375.14c.134.22.402.347.679.347a.883.883 0 0 0 .345-.07c.044-.018 4.522-1.92 6.73-2.503.4-.106.623-.464.496-.798-.127-.335-.551-.52-.955-.415-2.326.615-6.773 2.503-6.962 2.584-.374.158-.523.541-.333.855zM241.817 367.856a.883.883 0 0 0 .345-.07c.044-.018 4.522-1.92 6.73-2.503.4-.106.623-.463.496-.798-.127-.334-.551-.52-.955-.415-2.326.615-6.773 2.503-6.962 2.584-.374.159-.523.541-.333.855.134.22.402.347.679.347z"/><path d="M260.073 366.584c-.42 0-.76.285-.76.636v24.8c0 1.053-1.024 1.909-2.283 1.909h-18.257v-1.464c1.11-.324 3.999-1.08 6.847-1.08 6.626 0 11.126 1.227 11.17 1.24a.892.892 0 0 0 .685-.089.61.61 0 0 0 .316-.515v-27.98c0-.299-.247-.557-.596-.621 0 0-.596-.111-1.615-.268-.412-.063-.81.166-.886.51-.076.346.197.677.61.741.39.06.715.113.966.155v26.618c-1.724-.378-5.552-1.063-10.65-1.063-3.315 0-6.57.91-7.578 1.218-.895-.33-3.602-1.218-6.876-1.218-5.24 0-9.556.722-11.41 1.09v-26.67c1.519-.313 6.006-1.128 11.41-1.128 2.774 0 5.153.721 6.086 1.048v25.024c0 .23.148.44.386.553a.89.89 0 0 0 .766-.008c.076-.037 7.613-3.8 14.302-5.665.312-.087.52-.329.52-.603V357.68c0-.208-.122-.403-.327-.522a.887.887 0 0 0-.7-.073c-6.087 1.908-12.246 5.112-12.307 5.144-.356.186-.465.578-.242.876.222.297.691.388 1.048.202.056-.03 5.414-2.816 11.007-4.697V383.3c-5.192 1.508-10.614 3.971-12.932 5.074V364.04c0-.241-.162-.461-.42-.57-.131-.054-3.249-1.338-7.187-1.338-6.873 0-12.158 1.243-12.38 1.296-.327.078-.552.328-.552.612v27.98a.61.61 0 0 0 .302.507.862.862 0 0 0 .667.104c.053-.012 5.313-1.247 11.963-1.247 2.781 0 5.158.724 6.086 1.049v1.495h-18.257c-1.258 0-2.282-.856-2.282-1.908v-24.8c0-.352-.34-.637-.76-.637s-.761.285-.761.636v24.8c0 1.754 1.706 3.18 3.803 3.18h38.035c2.098 0 3.804-1.426 3.804-3.18v-24.8c0-.35-.34-.636-.76-.636z"/><path d="M241.138 371.324c.134.22.402.347.679.347a.883.883 0 0 0 .345-.069c.044-.019 4.522-1.92 6.73-2.503.4-.107.623-.464.496-.798-.127-.335-.551-.521-.955-.416-2.326.615-6.773 2.504-6.962 2.584-.374.159-.523.542-.333.855zM241.138 378.955c.134.22.402.347.679.347a.883.883 0 0 0 .345-.069c.044-.019 4.522-1.92 6.73-2.503.4-.107.623-.464.496-.799-.127-.334-.551-.52-.955-.415-2.326.615-6.773 2.504-6.962 2.584-.374.159-.523.542-.333.855zM233.622 368.847c-4.697-.922-10.035.252-10.26.303-.405.09-.646.439-.537.779.09.284.398.47.734.47a.917.917 0 0 0 .197-.02c.051-.013 5.19-1.143 9.52-.294.406.08.818-.132.914-.474.095-.342-.159-.684-.568-.764zM233.622 372.662c-4.697-.92-10.035.253-10.26.303-.405.09-.646.44-.537.779.09.284.398.471.734.471a.917.917 0 0 0 .197-.021c.051-.012 5.19-1.143 9.52-.294.406.08.818-.132.914-.474.095-.341-.159-.684-.568-.764zM241.138 382.77c.134.22.402.348.679.348a.883.883 0 0 0 .345-.07c.044-.018 4.522-1.92 6.73-2.503.4-.106.623-.464.496-.798s-.551-.52-.955-.415c-2.326.615-6.773 2.503-6.962 2.583-.374.16-.523.542-.333.856zM233.622 376.478c-4.697-.921-10.035.252-10.26.303-.405.09-.646.439-.537.778.09.285.398.472.734.472a.914.914 0 0 0 .197-.022c.051-.012 5.19-1.142 9.52-.293.406.08.818-.132.914-.474.095-.342-.159-.684-.568-.764zM233.622 384.109c-4.697-.922-10.035.252-10.26.302-.405.091-.646.44-.537.78.09.284.398.471.734.471a.914.914 0 0 0 .197-.022c.051-.012 5.19-1.142 9.52-.293.406.079.818-.132.914-.475.095-.341-.159-.683-.568-.763zM233.622 380.293c-4.697-.921-10.035.252-10.26.303-.405.09-.646.44-.537.779.09.284.398.472.734.472a.914.914 0 0 0 .197-.022c.051-.013 5.19-1.143 9.52-.294.406.08.818-.132.914-.474.095-.341-.159-.684-.568-.764z"/></g><g opacity=".271" stroke-width="12.269"><path d="M202.555 300.853c.134.22.402.347.679.347a.883.883 0 0 0 .345-.07c.044-.018 4.522-1.92 6.73-2.503.4-.106.622-.464.495-.798-.126-.334-.55-.52-.954-.415-2.326.615-6.774 2.503-6.962 2.584-.375.158-.524.541-.333.855zM203.234 293.57a.883.883 0 0 0 .345-.07c.044-.02 4.522-1.92 6.73-2.504.4-.106.622-.463.495-.798-.126-.334-.55-.52-.954-.415-2.326.615-6.774 2.504-6.962 2.584-.374.159-.524.541-.333.855.134.22.402.347.679.347z"/><path d="M221.49 292.297c-.42 0-.76.285-.76.636v24.8c0 1.053-1.024 1.909-2.283 1.909H200.19v-1.464c1.11-.324 3.999-1.08 6.847-1.08 6.626 0 11.126 1.227 11.17 1.24a.892.892 0 0 0 .685-.089.61.61 0 0 0 .316-.515v-27.98c0-.299-.247-.557-.596-.621 0 0-.596-.111-1.615-.268-.412-.063-.81.166-.886.51-.076.346.197.677.61.741.389.06.715.113.966.155v26.618c-1.724-.378-5.552-1.063-10.65-1.063-3.315 0-6.57.91-7.578 1.218-.895-.33-3.602-1.218-6.876-1.218-5.24 0-9.556.722-11.41 1.09v-26.67c1.519-.312 6.005-1.128 11.41-1.128 2.774 0 5.152.721 6.086 1.048v25.024c0 .23.147.44.385.553a.89.89 0 0 0 .767-.008c.076-.037 7.613-3.8 14.302-5.665.311-.087.52-.329.52-.603v-26.073c0-.208-.122-.403-.327-.522a.887.887 0 0 0-.7-.073c-6.087 1.908-12.246 5.112-12.307 5.144-.357.186-.465.578-.242.876.222.297.691.388 1.048.202.056-.03 5.414-2.816 11.007-4.697v24.688c-5.192 1.508-10.614 3.971-12.932 5.074v-24.332c0-.241-.163-.461-.42-.57-.131-.054-3.249-1.338-7.187-1.338-6.874 0-12.158 1.243-12.38 1.296-.327.078-.552.328-.552.612v27.98a.61.61 0 0 0 .302.507.862.862 0 0 0 .667.104c.053-.012 5.313-1.247 11.963-1.247 2.781 0 5.158.724 6.086 1.049v1.495h-18.257c-1.258 0-2.282-.856-2.282-1.908v-24.8c0-.352-.341-.637-.76-.637-.42 0-.762.285-.762.636v24.8c0 1.754 1.707 3.18 3.804 3.18h38.035c2.098 0 3.804-1.426 3.804-3.18v-24.8c0-.35-.34-.636-.76-.636z"/><path d="M202.555 297.037c.134.22.402.348.679.348a.883.883 0 0 0 .345-.07c.044-.019 4.522-1.92 6.73-2.503.4-.107.622-.464.495-.798-.126-.335-.55-.521-.954-.416-2.326.615-6.774 2.504-6.962 2.584-.375.159-.524.542-.333.855zM202.555 304.668c.134.22.402.347.679.347a.883.883 0 0 0 .345-.069c.044-.019 4.522-1.92 6.73-2.503.4-.107.622-.464.495-.798-.126-.335-.55-.521-.954-.416-2.326.615-6.774 2.504-6.962 2.584-.375.159-.524.542-.333.855zM195.039 294.56c-4.697-.922-10.035.252-10.26.303-.405.09-.646.439-.538.779.092.284.399.47.735.47a.917.917 0 0 0 .197-.02c.051-.013 5.19-1.143 9.52-.294.406.08.818-.132.913-.474.096-.342-.158-.684-.567-.764zM195.039 298.375c-4.697-.92-10.035.253-10.26.303-.405.091-.646.44-.538.779.092.284.399.471.735.471a.917.917 0 0 0 .197-.021c.051-.012 5.19-1.142 9.52-.294.406.08.818-.132.913-.474.096-.341-.158-.684-.567-.764zM202.555 308.484c.134.22.402.347.679.347a.883.883 0 0 0 .345-.07c.044-.018 4.522-1.92 6.73-2.503.4-.106.622-.464.495-.798-.126-.334-.55-.52-.954-.415-2.326.615-6.774 2.503-6.962 2.584-.375.158-.524.541-.333.855zM195.039 302.19c-4.697-.92-10.035.253-10.26.304-.405.09-.646.439-.538.779.092.284.399.471.735.471a.914.914 0 0 0 .197-.022c.051-.012 5.19-1.142 9.52-.293.406.08.818-.132.913-.474.096-.342-.158-.684-.567-.764zM195.039 309.822c-4.697-.922-10.035.252-10.26.303-.405.09-.646.439-.538.778.092.285.399.472.735.472a.914.914 0 0 0 .197-.022c.051-.012 5.19-1.142 9.52-.293.406.079.818-.132.913-.474.096-.342-.158-.684-.567-.764zM195.039 306.006c-4.697-.921-10.035.252-10.26.303-.405.09-.646.44-.538.779.092.284.399.472.735.472a.914.914 0 0 0 .197-.022c.051-.012 5.19-1.143 9.52-.294.406.08.818-.132.913-.474.096-.341-.158-.684-.567-.764z"/></g><g opacity=".271" stroke-width="12.269"><path d="M315.704 330.76c.134.22.402.348.68.348a.883.883 0 0 0 .344-.07c.045-.019 4.522-1.92 6.73-2.503.4-.106.623-.464.496-.798-.127-.335-.551-.521-.955-.415-2.326.615-6.773 2.503-6.962 2.583-.374.16-.523.542-.333.856zM316.383 323.477a.883.883 0 0 0 .345-.07c.045-.018 4.522-1.92 6.73-2.503.4-.106.623-.464.496-.798-.127-.335-.551-.52-.955-.415-2.326.615-6.773 2.503-6.962 2.583-.374.16-.523.542-.333.856.134.22.402.347.68.347z"/><path d="M334.64 322.205c-.421 0-.761.285-.761.636v24.8c0 1.052-1.024 1.908-2.282 1.908H313.34v-1.463c1.109-.324 3.998-1.08 6.846-1.08 6.627 0 11.126 1.226 11.171 1.24a.892.892 0 0 0 .685-.089.61.61 0 0 0 .315-.515v-27.98c0-.299-.247-.557-.595-.621 0 0-.597-.111-1.616-.268-.412-.064-.81.165-.886.51-.076.346.197.677.61.74.39.06.715.113.966.155v26.618c-1.724-.377-5.552-1.062-10.65-1.062-3.315 0-6.57.91-7.578 1.218-.895-.33-3.601-1.218-6.876-1.218-5.24 0-9.556.722-11.41 1.09v-26.67c1.519-.313 6.006-1.129 11.41-1.129 2.774 0 5.153.722 6.086 1.048v25.025c0 .229.148.44.386.553a.89.89 0 0 0 .767-.008c.075-.038 7.612-3.8 14.302-5.665.31-.087.52-.33.52-.603v-26.073c0-.208-.123-.404-.328-.522a.887.887 0 0 0-.7-.074c-6.087 1.909-12.246 5.113-12.307 5.144-.356.187-.465.579-.242.877.222.297.691.388 1.048.202.056-.03 5.414-2.817 11.007-4.697v24.688c-5.192 1.508-10.614 3.97-12.932 5.073v-24.332c0-.24-.162-.46-.42-.569-.131-.054-3.248-1.338-7.187-1.338-6.873 0-12.158 1.243-12.38 1.296-.326.078-.552.328-.552.611v27.98a.61.61 0 0 0 .302.508.862.862 0 0 0 .668.104c.052-.012 5.312-1.247 11.962-1.247 2.782 0 5.158.723 6.086 1.048v1.495h-18.257c-1.258 0-2.282-.855-2.282-1.907V322.84c0-.35-.34-.636-.76-.636s-.761.285-.761.636v24.8c0 1.754 1.706 3.18 3.803 3.18h38.036c2.097 0 3.803-1.426 3.803-3.18v-24.8c0-.351-.34-.636-.76-.636z"/><path d="M315.704 326.945c.134.22.402.347.68.347a.883.883 0 0 0 .344-.069c.045-.019 4.522-1.92 6.73-2.504.4-.106.623-.463.496-.798-.127-.334-.551-.52-.955-.415-2.326.615-6.773 2.504-6.962 2.584-.374.159-.523.542-.333.855zM315.704 334.576c.134.22.402.347.68.347a.883.883 0 0 0 .344-.069c.045-.02 4.522-1.92 6.73-2.504.4-.106.623-.463.496-.798-.127-.334-.551-.52-.955-.415-2.326.615-6.773 2.504-6.962 2.584-.374.159-.523.542-.333.855zM308.188 324.468c-4.697-.922-10.035.252-10.26.302-.405.091-.646.44-.537.78.091.284.398.47.734.47a.917.917 0 0 0 .198-.021c.05-.012 5.19-1.142 9.518-.293.407.08.819-.132.915-.475.095-.341-.159-.683-.568-.763zM308.188 328.283c-4.697-.92-10.035.253-10.26.303-.405.09-.646.44-.537.779.091.284.398.471.734.471a.917.917 0 0 0 .198-.022c.05-.012 5.19-1.142 9.518-.293.407.08.819-.132.915-.474.095-.342-.159-.684-.568-.764zM315.704 338.392c.134.22.402.347.68.347a.883.883 0 0 0 .344-.07c.045-.019 4.522-1.92 6.73-2.503.4-.106.623-.464.496-.798-.127-.335-.551-.521-.955-.415-2.326.615-6.773 2.503-6.962 2.583-.374.16-.523.542-.333.856zM308.188 332.099c-4.697-.921-10.035.251-10.26.302-.405.091-.646.44-.537.78.091.284.398.471.734.471a.914.914 0 0 0 .198-.022c.05-.012 5.19-1.142 9.518-.293.407.08.819-.133.915-.475.095-.341-.159-.683-.568-.763zM308.188 339.73c-4.697-.922-10.035.252-10.26.302-.405.091-.646.44-.537.78.091.284.398.471.734.471a.914.914 0 0 0 .198-.022c.05-.012 5.19-1.142 9.518-.293.407.079.819-.133.915-.475.095-.341-.159-.683-.568-.763zM308.188 335.914c-4.697-.921-10.035.252-10.26.303-.405.09-.646.44-.537.779.091.284.398.472.734.472a.914.914 0 0 0 .198-.023c.05-.012 5.19-1.142 9.518-.293.407.08.819-.132.915-.474.095-.342-.159-.684-.568-.764z"/></g><g opacity=".271" stroke-width="12.269"><path d="M129.88 348.579c.134.22.402.347.679.347a.883.883 0 0 0 .344-.07c.045-.019 4.523-1.92 6.731-2.503.4-.106.622-.464.495-.798-.126-.335-.55-.521-.954-.415-2.327.615-6.774 2.503-6.962 2.583-.375.16-.524.542-.334.856zM130.559 341.295a.883.883 0 0 0 .344-.07c.045-.018 4.523-1.92 6.731-2.503.4-.106.622-.464.495-.798-.126-.335-.55-.52-.954-.415-2.327.615-6.774 2.503-6.962 2.583-.375.16-.524.542-.334.856.135.22.403.347.68.347z"/><path d="M148.815 340.023c-.42 0-.76.285-.76.636v24.8c0 1.052-1.025 1.908-2.283 1.908h-18.257v-1.463c1.11-.324 3.998-1.08 6.847-1.08 6.626 0 11.126 1.226 11.17 1.24a.892.892 0 0 0 .685-.089.61.61 0 0 0 .316-.515v-27.98c0-.299-.247-.557-.596-.621 0 0-.596-.112-1.616-.268-.411-.064-.809.165-.885.51-.076.346.197.677.61.74.389.06.714.113.965.155v26.618c-1.723-.377-5.551-1.062-10.65-1.062-3.314 0-6.57.91-7.577 1.218-.895-.33-3.602-1.218-6.876-1.218-5.24 0-9.556.722-11.41 1.09v-26.67c1.519-.313 6.005-1.129 11.41-1.129 2.774 0 5.152.722 6.086 1.048v25.025c0 .229.147.44.385.553a.89.89 0 0 0 .767-.008c.075-.038 7.613-3.8 14.302-5.665.311-.087.52-.33.52-.603V331.12c0-.208-.122-.404-.327-.522a.887.887 0 0 0-.701-.074c-6.086 1.909-12.245 5.113-12.307 5.144-.356.187-.464.579-.242.877.223.297.692.388 1.049.202.056-.03 5.414-2.817 11.007-4.697v24.688c-5.193 1.508-10.614 3.97-12.932 5.073V337.48c0-.24-.163-.46-.42-.569-.132-.054-3.249-1.338-7.187-1.338-6.874 0-12.158 1.243-12.38 1.296-.327.078-.552.328-.552.611v27.98a.61.61 0 0 0 .302.508.862.862 0 0 0 .667.104c.053-.012 5.313-1.247 11.963-1.247 2.781 0 5.158.723 6.086 1.048v1.495h-18.257c-1.258 0-2.282-.856-2.282-1.907v-24.801c0-.351-.341-.636-.761-.636s-.76.285-.76.636v24.8c0 1.754 1.706 3.18 3.803 3.18h38.035c2.097 0 3.804-1.426 3.804-3.18v-24.8c0-.351-.34-.636-.761-.636z"/><path d="M129.88 344.763c.134.22.402.347.679.347a.883.883 0 0 0 .344-.069c.045-.02 4.523-1.92 6.731-2.504.4-.106.622-.463.495-.798-.126-.334-.55-.52-.954-.415-2.327.615-6.774 2.504-6.962 2.584-.375.159-.524.542-.334.855zM129.88 352.394c.134.22.402.347.679.347a.883.883 0 0 0 .344-.069c.045-.02 4.523-1.92 6.731-2.504.4-.106.622-.463.495-.798-.126-.334-.55-.52-.954-.415-2.327.615-6.774 2.504-6.962 2.584-.375.159-.524.542-.334.855zM122.364 342.286c-4.698-.922-10.036.252-10.26.302-.405.091-.647.44-.538.78.092.284.399.47.734.47a.917.917 0 0 0 .198-.021c.051-.012 5.19-1.142 9.519-.293.407.08.818-.133.914-.475.096-.341-.158-.683-.567-.763zM122.364 346.101c-4.698-.92-10.036.253-10.26.303-.405.09-.647.44-.538.779.092.284.399.471.734.471a.917.917 0 0 0 .198-.022c.051-.012 5.19-1.142 9.519-.293.407.08.818-.132.914-.474.096-.342-.158-.684-.567-.764zM129.88 356.21c.134.22.402.347.679.347a.883.883 0 0 0 .344-.07c.045-.019 4.523-1.92 6.731-2.503.4-.106.622-.464.495-.798-.126-.335-.55-.521-.954-.415-2.327.615-6.774 2.503-6.962 2.583-.375.16-.524.542-.334.856zM122.364 349.917c-4.698-.921-10.036.251-10.26.302-.405.091-.647.44-.538.78.092.284.399.471.734.471a.914.914 0 0 0 .198-.022c.051-.012 5.19-1.142 9.519-.293.407.08.818-.133.914-.475.096-.341-.158-.683-.567-.763zM122.364 357.548c-4.698-.922-10.036.252-10.26.302-.405.091-.647.44-.538.78.092.284.399.471.734.471a.914.914 0 0 0 .198-.022c.051-.012 5.19-1.142 9.519-.293.407.079.818-.133.914-.475.096-.341-.158-.683-.567-.763zM122.364 353.732c-4.698-.921-10.036.252-10.26.303-.405.09-.647.44-.538.779.092.284.399.472.734.472a.914.914 0 0 0 .198-.023c.051-.012 5.19-1.142 9.519-.293.407.08.818-.132.914-.474.096-.342-.158-.684-.567-.764z"/></g><g opacity=".271" stroke-width="12.269"><path d="M77.303 305.192c.134.22.402.347.68.347a.883.883 0 0 0 .344-.07c.045-.018 4.522-1.92 6.73-2.503.4-.106.623-.463.496-.798-.127-.334-.551-.52-.955-.415-2.326.615-6.773 2.503-6.962 2.584-.374.159-.523.541-.333.855zM77.982 297.908a.883.883 0 0 0 .345-.07c.045-.018 4.522-1.92 6.73-2.503.4-.106.623-.463.496-.798-.127-.334-.551-.52-.955-.415-2.326.615-6.773 2.504-6.962 2.584-.374.159-.523.541-.333.855.134.22.402.347.68.347z"/><path d="M96.238 296.636c-.42 0-.76.285-.76.636v24.8c0 1.053-1.024 1.909-2.282 1.909H74.939v-1.464c1.109-.324 3.998-1.08 6.846-1.08 6.627 0 11.126 1.227 11.171 1.24a.892.892 0 0 0 .685-.088.61.61 0 0 0 .315-.516v-27.98c0-.299-.247-.557-.595-.621 0 0-.597-.111-1.616-.268-.412-.063-.81.166-.886.51-.076.346.197.677.61.741.39.06.715.113.966.155v26.618c-1.724-.378-5.552-1.063-10.65-1.063-3.314 0-6.57.91-7.578 1.218-.895-.33-3.601-1.218-6.876-1.218-5.24 0-9.556.722-11.41 1.09v-26.67c1.519-.312 6.006-1.128 11.41-1.128 2.774 0 5.153.721 6.086 1.048v25.024c0 .23.148.44.386.553a.89.89 0 0 0 .767-.008c.075-.037 7.612-3.8 14.302-5.665.31-.087.52-.329.52-.603v-26.073c0-.208-.123-.403-.328-.522a.887.887 0 0 0-.7-.073c-6.087 1.908-12.246 5.112-12.307 5.144-.356.186-.465.578-.242.876.222.297.691.388 1.048.202.056-.03 5.414-2.816 11.008-4.697v24.688c-5.193 1.508-10.615 3.971-12.933 5.074v-24.332c0-.241-.162-.461-.42-.57-.131-.054-3.248-1.338-7.187-1.338-6.873 0-12.158 1.243-12.38 1.296-.326.078-.552.328-.552.612v27.98a.61.61 0 0 0 .302.507.862.862 0 0 0 .668.104c.052-.012 5.312-1.247 11.962-1.247 2.782 0 5.158.724 6.086 1.049v1.495H55.16c-1.258 0-2.282-.856-2.282-1.908v-24.8c0-.352-.34-.637-.76-.637s-.761.285-.761.636v24.8c0 1.754 1.706 3.18 3.803 3.18h38.036c2.097 0 3.803-1.426 3.803-3.18v-24.8c0-.35-.34-.636-.76-.636z"/><path d="M77.303 301.376c.134.22.402.348.68.348a.883.883 0 0 0 .344-.07c.045-.019 4.522-1.92 6.73-2.503.4-.107.623-.464.496-.798-.127-.335-.551-.521-.955-.416-2.326.615-6.773 2.504-6.962 2.584-.374.159-.523.542-.333.855zM77.303 309.007c.134.22.402.348.68.348a.883.883 0 0 0 .344-.07c.045-.019 4.522-1.92 6.73-2.503.4-.107.623-.464.496-.798-.127-.335-.551-.521-.955-.416-2.326.615-6.773 2.504-6.962 2.584-.374.159-.523.542-.333.855zM69.787 298.899c-4.697-.922-10.035.252-10.26.303-.405.09-.646.439-.537.779.091.284.398.47.734.47a.917.917 0 0 0 .198-.02c.05-.013 5.19-1.143 9.518-.294.407.08.819-.132.915-.474.095-.342-.159-.684-.568-.764zM69.787 302.714c-4.697-.92-10.035.253-10.26.303-.405.091-.646.44-.537.779.091.284.398.471.734.471a.917.917 0 0 0 .198-.021c.05-.012 5.19-1.142 9.518-.294.407.08.819-.132.915-.474.095-.341-.159-.684-.568-.764zM77.303 312.823c.134.22.402.347.68.347a.883.883 0 0 0 .344-.07c.045-.018 4.522-1.92 6.73-2.503.4-.106.623-.464.496-.798s-.551-.52-.955-.415c-2.326.615-6.773 2.503-6.962 2.584-.374.158-.523.541-.333.855zM69.787 306.53c-4.697-.92-10.035.252-10.26.303-.405.09-.646.439-.537.779.091.284.398.471.734.471a.914.914 0 0 0 .198-.022c.05-.012 5.19-1.142 9.518-.293.407.08.819-.132.915-.474.095-.342-.159-.684-.568-.764zM69.787 314.16c-4.697-.92-10.035.253-10.26.304-.405.09-.646.439-.537.779.091.284.398.471.734.471a.914.914 0 0 0 .198-.022c.05-.012 5.19-1.142 9.518-.293.407.079.819-.132.915-.474.095-.342-.159-.684-.568-.764zM69.787 310.345c-4.697-.921-10.035.252-10.26.303-.405.091-.646.44-.537.779.091.284.398.472.734.472a.914.914 0 0 0 .198-.022c.05-.012 5.19-1.143 9.518-.294.407.08.819-.132.915-.474.095-.341-.159-.684-.568-.764z"/></g><g opacity=".271" stroke-width="12.269"><path d="M58.447 393.868c.135.22.403.347.68.347a.883.883 0 0 0 .344-.07c.045-.019 4.523-1.92 6.731-2.503.4-.106.622-.464.495-.798-.126-.335-.55-.521-.954-.415-2.327.614-6.774 2.503-6.962 2.583-.375.16-.524.542-.334.856zM59.127 386.584a.883.883 0 0 0 .344-.07c.045-.019 4.523-1.92 6.731-2.503.4-.106.622-.464.495-.798-.126-.335-.55-.521-.954-.415-2.327.615-6.774 2.503-6.962 2.583-.375.16-.524.542-.334.856.135.22.403.347.68.347z"/><path d="M77.383 385.312c-.42 0-.76.285-.76.636v24.8c0 1.052-1.025 1.908-2.283 1.908H56.083v-1.463c1.11-.324 3.998-1.08 6.847-1.08 6.626 0 11.126 1.226 11.17 1.239a.892.892 0 0 0 .685-.088.61.61 0 0 0 .316-.516v-27.98c0-.298-.247-.556-.596-.62 0 0-.596-.112-1.616-.268-.411-.064-.809.165-.885.51-.076.346.197.677.61.74.389.06.714.113.965.155v26.618c-1.723-.377-5.551-1.062-10.65-1.062-3.314 0-6.57.91-7.577 1.218-.895-.33-3.602-1.218-6.876-1.218-5.24 0-9.556.722-11.41 1.09v-26.67c1.519-.313 6.005-1.129 11.41-1.129 2.774 0 5.152.722 6.086 1.048v25.025c0 .229.147.44.385.553a.89.89 0 0 0 .767-.008c.075-.038 7.613-3.801 14.302-5.665.311-.087.52-.33.52-.603v-26.073c0-.208-.122-.404-.327-.523a.887.887 0 0 0-.701-.073c-6.086 1.909-12.245 5.112-12.307 5.144-.356.187-.464.579-.242.877.223.297.692.388 1.049.202.056-.03 5.414-2.817 11.007-4.697v24.687c-5.193 1.509-10.614 3.972-12.932 5.074v-24.332c0-.24-.163-.46-.42-.569-.132-.054-3.249-1.338-7.187-1.338-6.874 0-12.158 1.243-12.38 1.296-.327.078-.552.328-.552.611v27.98a.61.61 0 0 0 .302.508.862.862 0 0 0 .667.104c.053-.012 5.313-1.247 11.963-1.247 2.781 0 5.158.723 6.086 1.048v1.495H36.305c-1.258 0-2.282-.856-2.282-1.907v-24.801c0-.351-.341-.636-.761-.636s-.76.285-.76.636v24.8c0 1.754 1.705 3.18 3.803 3.18H74.34c2.097 0 3.804-1.426 3.804-3.18v-24.8c0-.351-.34-.636-.761-.636z"/><path d="M58.447 390.052c.135.22.403.347.68.347a.883.883 0 0 0 .344-.07c.045-.018 4.523-1.92 6.731-2.503.4-.106.622-.463.495-.798-.126-.334-.55-.52-.954-.415-2.327.615-6.774 2.504-6.962 2.584-.375.159-.524.542-.334.855zM58.447 397.683c.135.22.403.347.68.347a.883.883 0 0 0 .344-.07c.045-.018 4.523-1.92 6.731-2.503.4-.106.622-.463.495-.798-.126-.334-.55-.52-.954-.415-2.327.615-6.774 2.504-6.962 2.584-.375.159-.524.542-.334.855zM50.932 387.575c-4.698-.922-10.036.252-10.26.302-.405.091-.647.44-.538.78.092.283.399.47.734.47a.917.917 0 0 0 .198-.021c.051-.012 5.19-1.142 9.519-.293.407.08.818-.133.914-.475.096-.341-.158-.683-.567-.763zM50.932 391.39c-4.698-.92-10.036.253-10.26.303-.405.09-.647.44-.538.779.092.284.399.47.734.47a.917.917 0 0 0 .198-.02c.051-.013 5.19-1.143 9.519-.294.407.08.818-.132.914-.474.096-.342-.158-.684-.567-.764zM58.447 401.498c.135.22.403.348.68.348a.883.883 0 0 0 .344-.07c.045-.019 4.523-1.92 6.731-2.503.4-.106.622-.464.495-.798-.126-.335-.55-.521-.954-.416-2.327.615-6.774 2.504-6.962 2.584-.375.16-.524.542-.334.855zM50.932 395.206c-4.698-.921-10.036.251-10.26.302-.405.091-.647.44-.538.78.092.283.399.471.734.471a.914.914 0 0 0 .198-.022c.051-.012 5.19-1.142 9.519-.293.407.08.818-.133.914-.475.096-.341-.158-.683-.567-.763zM50.932 402.837c-4.698-.922-10.036.252-10.26.302-.405.091-.647.44-.538.78.092.283.399.471.734.471a.914.914 0 0 0 .198-.022c.051-.012 5.19-1.142 9.519-.293.407.078.818-.133.914-.475.096-.341-.158-.683-.567-.763zM50.932 399.021c-4.698-.921-10.036.252-10.26.303-.405.09-.647.44-.538.779.092.284.399.472.734.472a.914.914 0 0 0 .198-.023c.051-.012 5.19-1.142 9.519-.293.407.08.818-.132.914-.474.096-.342-.158-.684-.567-.764z"/></g><g opacity=".271" stroke-width="12.269"><path d="M389.297 286.477c.135.22.403.347.68.347a.883.883 0 0 0 .344-.07c.045-.018 4.523-1.92 6.731-2.503.4-.106.622-.463.495-.798-.126-.334-.55-.52-.954-.415-2.327.615-6.774 2.503-6.962 2.584-.375.159-.524.541-.334.855zM389.977 279.193a.883.883 0 0 0 .344-.07c.045-.018 4.523-1.92 6.731-2.503.4-.106.622-.463.495-.798-.126-.334-.55-.52-.954-.415-2.327.615-6.774 2.504-6.962 2.584-.375.159-.524.541-.334.855.135.22.403.347.68.347z"/><path d="M408.233 277.921c-.42 0-.76.285-.76.636v24.8c0 1.053-1.025 1.909-2.283 1.909h-18.257v-1.464c1.11-.324 3.998-1.08 6.847-1.08 6.626 0 11.126 1.227 11.17 1.24a.892.892 0 0 0 .685-.088.61.61 0 0 0 .316-.516v-27.98c0-.299-.247-.557-.596-.621 0 0-.596-.111-1.616-.268-.411-.063-.809.166-.885.51-.076.346.197.677.61.741.389.06.714.113.965.155v26.618c-1.723-.378-5.551-1.063-10.65-1.063-3.314 0-6.57.91-7.577 1.219-.895-.331-3.602-1.219-6.876-1.219-5.24 0-9.556.723-11.41 1.09v-26.67c1.519-.312 6.005-1.128 11.41-1.128 2.774 0 5.152.721 6.086 1.048v25.024c0 .23.147.44.385.553a.89.89 0 0 0 .767-.008c.076-.037 7.613-3.8 14.302-5.665.311-.087.52-.329.52-.603v-26.073c0-.208-.122-.403-.327-.522a.887.887 0 0 0-.7-.073c-6.087 1.908-12.246 5.112-12.308 5.144-.356.186-.464.578-.242.876.223.298.692.388 1.049.202.056-.03 5.414-2.816 11.007-4.697v24.688c-5.193 1.508-10.614 3.971-12.932 5.074v-24.332c0-.241-.163-.461-.42-.57-.131-.053-3.249-1.338-7.187-1.338-6.874 0-12.158 1.243-12.38 1.297-.327.077-.552.327-.552.61v27.98a.61.61 0 0 0 .302.508.862.862 0 0 0 .667.104c.053-.012 5.313-1.247 11.963-1.247 2.781 0 5.158.724 6.086 1.049v1.495h-18.257c-1.258 0-2.282-.856-2.282-1.908v-24.8c0-.352-.341-.637-.761-.637s-.76.285-.76.636v24.8c0 1.754 1.706 3.18 3.803 3.18h38.035c2.097 0 3.804-1.426 3.804-3.18v-24.8c0-.35-.34-.636-.761-.636z"/><path d="M389.297 282.661c.135.22.403.348.68.348a.883.883 0 0 0 .344-.07c.045-.019 4.523-1.92 6.731-2.503.4-.107.622-.464.495-.798-.126-.335-.55-.521-.954-.416-2.327.615-6.774 2.504-6.962 2.584-.375.159-.524.542-.334.855zM389.297 290.292c.135.22.403.348.68.348a.883.883 0 0 0 .344-.07c.045-.019 4.523-1.92 6.731-2.503.4-.107.622-.464.495-.798-.126-.335-.55-.521-.954-.416-2.327.615-6.774 2.504-6.962 2.584-.375.159-.524.542-.334.855zM381.782 280.184c-4.698-.922-10.036.252-10.26.303-.405.09-.646.439-.538.779.092.284.399.47.734.47a.917.917 0 0 0 .198-.02c.051-.013 5.19-1.143 9.519-.294.407.08.818-.132.914-.474.096-.342-.158-.684-.567-.764zM381.782 284c-4.698-.921-10.036.252-10.26.302-.405.091-.646.44-.538.78.092.283.399.47.734.47a.917.917 0 0 0 .198-.021c.051-.012 5.19-1.142 9.519-.294.407.08.818-.132.914-.474.096-.341-.158-.683-.567-.764zM389.297 294.108c.135.22.403.347.68.347a.883.883 0 0 0 .344-.07c.045-.018 4.523-1.92 6.731-2.503.4-.106.622-.463.495-.798-.126-.334-.55-.52-.954-.415-2.327.615-6.774 2.503-6.962 2.584-.375.158-.524.541-.334.855zM381.782 287.815c-4.698-.92-10.036.252-10.26.303-.405.09-.646.439-.538.779.092.284.399.471.734.471a.914.914 0 0 0 .198-.022c.051-.012 5.19-1.142 9.519-.293.407.08.818-.132.914-.474.096-.342-.158-.684-.567-.764zM381.782 295.446c-4.698-.922-10.036.252-10.26.303-.405.09-.646.439-.538.779.092.284.399.471.734.471a.914.914 0 0 0 .198-.022c.051-.012 5.19-1.142 9.519-.293.407.079.818-.132.914-.474.096-.342-.158-.684-.567-.764zM381.782 291.63c-4.698-.921-10.036.252-10.26.303-.405.091-.646.44-.538.779.092.284.399.472.734.472a.914.914 0 0 0 .198-.022c.051-.012 5.19-1.142 9.519-.294.407.08.818-.132.914-.474.096-.341-.158-.684-.567-.764z"/></g></svg>