<?xml version="1.0" encoding="UTF-8"?>
<!DOCTYPE svg PUBLIC "-//W3C//DTD SVG 1.1//EN" "http://www.w3.org/Graphics/SVG/1.1/DTD/svg11.dtd">
<!-- Creator: CorelDRAW 2017 -->
<svg xmlns="http://www.w3.org/2000/svg" xml:space="preserve" width="1400px" height="800px" version="1.1" style="shape-rendering:geometricPrecision; text-rendering:geometricPrecision; image-rendering:optimizeQuality; fill-rule:evenodd; clip-rule:evenodd"
viewBox="0 0 1400 800"
 xmlns:xlink="http://www.w3.org/1999/xlink">
 <defs>
  <style type="text/css">
   <![CDATA[
    .fil0 {fill:#EDA062;fill-rule:nonzero}
   ]]>
  </style>
 </defs>
 <g id="Camada_x0020_1">
  <metadata id="CorelCorpID_0Corel-Layer"/>
  <path id="PROEG_x0020_art" class="fil0" d="M1163.25 579.88l-279.78 18.83 -5.16 1.14c-7.65,2.85 -9.62,1.82 -9.62,1.82 -16.67,-7.1 -19.12,-88.11 35.73,-211.06 55.29,-123.11 117.54,-175.85 134.26,-168.73 0,0 2.02,1.1 5.22,8.36l177.3 220.05 -57.95 129.59 0 0zm-1163.37 -580.03l0 566.66 853.15 67.38 0.85 0.45c9.55,4.31 20.73,4.13 33.75,0l501.16 -33.91 -312.95 -386.66c-5.57,-12.44 -12.93,-20.31 -22.47,-24.66 -0.65,-0.19 -0.88,-0.01 -1.42,0l-436.84 -189.26 -615.23 0 0 0zm25.12 168.87c14.89,-17.02 29.53,-37.88 43.31,-60.51l745.26 322.66c-7.72,25.66 -13.51,50.12 -16.5,72.52l-772.07 -334.67 0 0z"/>
 </g>
</svg>
