<?xml version="1.0" encoding="utf-8"?>
<!-- Generator: Adobe Illustrator 16.0.4, SVG Export Plug-In . SVG Version: 6.00 Build 0)  -->
<!DOCTYPE svg PUBLIC "-//W3C//DTD SVG 1.1//EN" "http://www.w3.org/Graphics/SVG/1.1/DTD/svg11.dtd">
<svg version="1.1" id="Ebene_1" xmlns="http://www.w3.org/2000/svg" xmlns:xlink="http://www.w3.org/1999/xlink" x="0px" y="0px"
	 width="221px" height="377px" viewBox="316 49 221 377" enable-background="new 316 49 221 377" xml:space="preserve">
<path d="M401.689,323.356v-19.049c-23.812-2.381-42.859-22.858-42.859-47.146V133.344c0-26.192,21.43-47.622,47.622-47.622h38.099
	c26.191,0,47.621,21.43,47.621,47.622v123.817c0,24.764-19.049,44.767-42.859,47.146v19.049c34.764-2.381,61.91-31.432,61.91-66.195
	V133.344c0-36.67-30.004-66.672-66.672-66.672h-38.099c-36.669,0-66.671,30.002-66.671,66.672v123.817
	C339.781,292.402,366.925,320.975,401.689,323.356z"/>
<path d="M425.5,166.678c5.238,0,9.523-4.286,9.523-9.524v-28.573c0-5.238-4.285-9.523-9.523-9.523s-9.523,4.285-9.523,9.523v28.573
	C415.977,162.392,420.262,166.678,425.5,166.678z"/>
<path d="M415.977,304.784v19.05v53.337l-7.619-7.619c-1.905-1.905-4.287-2.857-6.668-2.857s-4.762,0.952-6.668,2.857
	c-3.81,3.81-3.81,9.523,0,13.334l6.668,6.667l17.145,17.145l0,0c0.477,0.477,0.952,0.952,1.43,0.952l0.477,0.478
	c0.477,0,0.477,0.476,0.951,0.476c0.477,0,0.479,0,0.953,0.477c0.477,0,0.477,0,0.953,0.478c0.475,0,1.428,0,1.904,0
	s1.428,0,1.904,0s0.477,0,0.951-0.478c0.479,0,0.479,0,0.953-0.477c0.477,0,0.477-0.476,0.953-0.476c0,0,0.475,0,0.475-0.478
	c0.479-0.477,0.953-0.952,1.43-0.952l0,0l17.145-17.145l6.668-6.667c3.809-3.811,3.809-9.524,0-13.334
	c-1.906-1.905-4.287-2.857-6.668-2.857s-4.762,0.952-6.668,2.857l-7.619,7.619v-53.337v-19.05V276.21
	c0-5.237-4.285-9.523-9.523-9.523s-9.523,4.286-9.523,9.523v28.574H415.977z"/>
</svg>
