<?xml version="1.0" encoding="UTF-8"?>
<!DOCTYPE svg PUBLIC "-//W3C//DTD SVG 1.1//EN" "http://www.w3.org/Graphics/SVG/1.1/DTD/svg11.dtd">
<!-- Creator: CorelDRAW 2017 -->
<svg xmlns="http://www.w3.org/2000/svg" xml:space="preserve" width="1400px" height="800px" version="1.1" style="shape-rendering:geometricPrecision; text-rendering:geometricPrecision; image-rendering:optimizeQuality; fill-rule:evenodd; clip-rule:evenodd"
viewBox="0 0 1400 800"
 xmlns:xlink="http://www.w3.org/1999/xlink">
 <defs>
  <style type="text/css">
   <![CDATA[
    .fil0 {fill:#5C5C91;fill-rule:nonzero}
   ]]>
  </style>
 </defs>
 <g id="Camada_x0020_1">
  <metadata id="CorelCorpID_0Corel-Layer"/>
  <path id="PROEX_x0020_art" class="fil0" d="M1077.97 700.71c-13.24,3.78 -21.11,17.2 -18.05,30.59 6.01,26.26 11.83,48.22 17.41,66.56l54.35 0c-4.9,-14.54 -10.21,-32.63 -15.81,-54.83 150.78,-51.14 246.74,-160.65 246.74,-284.01 0,-172.64 -191.81,-313.21 -427.73,-313.21 -4.43,0 -8.73,0.24 -13.13,0.37 -11.22,-29.67 -27.8,-58.08 -49.82,-84.49l-78.57 -5.69c9.27,7.82 17.99,15.98 26.11,24.53 46.84,49.12 69.96,106.69 67.17,166.68 -7.81,161.39 -180.6,291.36 -401.85,302.23 -10.11,0.49 -18.96,6.81 -22.73,16.16 -25.25,62.89 -127.67,104.31 -192.99,122.11 11.75,-26.9 25.03,-67.56 39.15,-129.57 3.05,-13.4 -4.79,-26.79 -18.03,-30.68 -162.95,-46.97 -268.11,-156.49 -268.11,-278.98 0,-95.69 64.14,-181.11 164.01,-236.42l-83.64 -6.06c-45.21,34.98 -80.76,76.65 -103.56,122.74l0 240.47c43.22,87.92 133.09,160.6 253.4,200.65 -21.85,88.45 -40.67,121.63 -47.63,126.46 -20.83,10.47 -17.8,28.39 -16.9,31.93 1.14,4.92 6.69,20.95 29.9,20.95 32.11,0 226.44,-41.42 285.2,-149.14 14.77,-0.99 29.42,-2.64 43.67,-4.68 61.88,97.89 190.95,163.81 343.89,175.07 5.49,9.75 12.25,18.88 19.96,27.4l81.86 0c-27.93,-16.75 -51.34,-37.43 -61.15,-61.9 -3.76,-9.35 -12.76,-15.65 -22.84,-16.16 -131.49,-6.43 -244.13,-55.92 -303.88,-131.72 198.79,-45.72 339.34,-185.16 339.34,-342.38 0,-16.03 -1.51,-32.08 -4.52,-48.11 205.31,1.65 371.67,118.2 371.67,261.44 0,105.95 -91.44,200.92 -232.89,241.69l0 0zm-860.31 22.6l-0.22 -25.74 0.22 0 0 25.74z"/>
 </g>
</svg>
